<?xml version="1.0" encoding="utf-8"?>
<!-- Generator: Adobe Illustrator 16.0.0, SVG Export Plug-In . SVG Version: 6.00 Build 0)  -->
<!DOCTYPE svg PUBLIC "-//W3C//DTD SVG 1.1//EN" "http://www.w3.org/Graphics/SVG/1.1/DTD/svg11.dtd">
<svg version="1.1" id="Layer_1" xmlns="http://www.w3.org/2000/svg" xmlns:xlink="http://www.w3.org/1999/xlink" x="0px" y="0px"
	 width="37px" height="26px" viewBox="0 0 37 26" enable-background="new 0 0 37 26" xml:space="preserve">
<g opacity="0.5">
	<defs>
		<rect id="SVGID_1_" y="-0.256" opacity="0.5" width="37" height="26.512"/>
	</defs>
	<clipPath id="SVGID_2_">
		<use xlink:href="#SVGID_1_"  overflow="visible"/>
	</clipPath>
	<path clip-path="url(#SVGID_2_)" fill="#272D33" d="M34.9,26.256H2.1V1.921h32.8V26.256z M3.625,24.73h29.75V3.446H3.625V24.73z"/>
	<path clip-path="url(#SVGID_2_)" fill="#FFFFFF" d="M36.237,22.573L36.237,22.573V22.57v-0.002v-0.001v-0.001v-0.001v-0.002v-0.002
		H36.21h-0.028h-0.027h-0.027h-0.028h-0.027h-0.028h-0.027c0.009,0,0.02,0,0.027,0c0.011,0.001,0.02,0.001,0.028,0.001
		c0.01,0.001,0.019,0.001,0.028,0.002s0.018,0.001,0.027,0.002s0.019,0.001,0.027,0.001c0.01,0.001,0.019,0.001,0.029,0.002
		l0.026,0.002C36.22,22.572,36.229,22.573,36.237,22.573"/>
	<path clip-path="url(#SVGID_2_)" fill="#FFFFFF" d="M26.188,0.507h-0.545h-0.545h-0.545h-0.545h-0.545h-0.544h-0.545H21.83
		c-0.23,0-0.455,0.021-0.672,0.059c-0.216,0.039-0.424,0.097-0.623,0.169c-0.199,0.074-0.389,0.164-0.565,0.269
		s-0.341,0.223-0.491,0.354c-0.151,0.131-0.287,0.275-0.406,0.43c-0.12,0.154-0.223,0.319-0.307,0.492
		c-0.084,0.174-0.15,0.356-0.194,0.545c-0.044,0.188-0.067,0.385-0.067,0.585v2.757v2.757v2.758v2.756v2.758v2.757v2.757v2.757
		c0-0.2,0.023-0.396,0.067-0.585c0.044-0.188,0.11-0.371,0.194-0.544c0.084-0.174,0.187-0.339,0.307-0.494
		c0.119-0.154,0.255-0.298,0.406-0.429c0.15-0.132,0.314-0.25,0.491-0.355c0.177-0.104,0.366-0.193,0.565-0.268
		c0.199-0.073,0.407-0.13,0.623-0.169c0.217-0.039,0.441-0.06,0.672-0.06h0.129h0.129h0.129h0.129h0.129h0.129h0.129h0.129v-2.394
		v-2.395V15.38v-2.395v-2.394V8.197V5.803V3.409c0-0.2,0.023-0.396,0.068-0.585c0.043-0.188,0.109-0.371,0.193-0.545
		c0.084-0.173,0.188-0.338,0.307-0.492s0.255-0.299,0.406-0.43c0.15-0.132,0.314-0.25,0.491-0.354s0.366-0.194,0.565-0.269
		c0.199-0.072,0.408-0.13,0.623-0.169C25.733,0.527,25.957,0.507,26.188,0.507"/>
	<path clip-path="url(#SVGID_2_)" fill="#FFFFFF" d="M36.016,0.507h-1.229h-1.229H32.33h-1.229h-1.229h-1.229h-1.229h-1.229
		c-0.23,0-0.454,0.021-0.67,0.059c-0.217,0.039-0.426,0.097-0.625,0.169c-0.199,0.074-0.389,0.164-0.565,0.269
		s-0.341,0.223-0.491,0.354c-0.151,0.131-0.287,0.275-0.406,0.43c-0.12,0.154-0.223,0.319-0.307,0.492
		c-0.084,0.174-0.15,0.356-0.193,0.545c-0.045,0.188-0.068,0.385-0.068,0.585v2.394v2.395v2.395v2.394v2.395v2.394v2.395v2.394
		h0.416h0.415h0.416h0.415h0.416h0.417h0.415h0.416h1.229h1.229h1.229h1.229h1.229h1.229h1.229h1.229h0.029h0.026H36.1h0.027h0.027
		h0.027h0.028h0.027v-2.755v-2.756v-2.756v-2.756V8.784V6.028V3.272V0.517c-0.009,0-0.019-0.001-0.027-0.001
		s-0.019-0.001-0.028-0.002c-0.008,0-0.018-0.001-0.027-0.001c-0.009-0.001-0.018-0.001-0.027-0.002
		C36.118,0.51,36.109,0.51,36.1,0.509c-0.01,0-0.019-0.001-0.028-0.001c-0.009,0-0.019,0-0.026-0.001
		C36.034,0.507,36.025,0.507,36.016,0.507"/>
	<path clip-path="url(#SVGID_2_)" fill="#272D33" d="M19.267,25.465h-1.525V3.409c0-0.257,0.029-0.512,0.087-0.759
		c0.057-0.242,0.141-0.479,0.25-0.704c0.108-0.223,0.239-0.434,0.391-0.628c0.148-0.191,0.319-0.373,0.507-0.536
		c0.185-0.162,0.388-0.309,0.604-0.436c0.216-0.128,0.447-0.238,0.688-0.327c0.245-0.09,0.499-0.158,0.755-0.204
		c0.264-0.047,0.534-0.071,0.805-0.071l14.429,0.011l0.728,0.032L37,0.517v22.819l-15.17-0.012c-0.182,0-0.361,0.016-0.535,0.048
		c-0.171,0.03-0.337,0.075-0.497,0.134c-0.154,0.058-0.304,0.128-0.44,0.208c-0.137,0.082-0.265,0.174-0.377,0.272
		c-0.115,0.101-0.217,0.208-0.306,0.322c-0.087,0.112-0.161,0.232-0.224,0.359c-0.061,0.125-0.106,0.255-0.137,0.387
		C19.282,25.188,19.267,25.326,19.267,25.465z M21.83,1.27c-0.181,0-0.361,0.016-0.537,0.047c-0.168,0.03-0.335,0.075-0.495,0.134
		c-0.153,0.058-0.302,0.128-0.44,0.209c-0.136,0.081-0.264,0.172-0.379,0.272c-0.113,0.099-0.215,0.206-0.303,0.321
		c-0.088,0.112-0.162,0.232-0.225,0.359c-0.061,0.125-0.106,0.255-0.137,0.386c-0.032,0.134-0.048,0.271-0.048,0.411v19.198
		c0.101-0.072,0.204-0.141,0.313-0.205c0.216-0.127,0.447-0.237,0.689-0.327c0.247-0.091,0.501-0.159,0.758-0.205
		c0.26-0.047,0.53-0.071,0.803-0.071h13.645V1.269L21.83,1.27z"/>
	<path clip-path="url(#SVGID_2_)" fill="#FFFFFF" d="M18.497,25.465v-0.363v-0.362v-0.363v-0.363V23.65v-0.362v-0.363v-0.363h-0.416
		h-0.416H17.25h-0.416h-0.416h-0.415h-0.416h-0.416c0.229,0,0.454,0.021,0.67,0.059c0.216,0.04,0.425,0.097,0.624,0.171
		c0.199,0.073,0.388,0.162,0.564,0.267c0.177,0.104,0.342,0.224,0.492,0.355c0.15,0.131,0.286,0.274,0.406,0.43
		c0.12,0.154,0.223,0.319,0.307,0.493c0.084,0.173,0.15,0.355,0.194,0.544C18.474,25.069,18.497,25.265,18.497,25.465"/>
	<path clip-path="url(#SVGID_2_)" fill="#FFFFFF" d="M5.342,0.507H4.797H4.252H3.708H3.163H2.618H2.074H1.529H0.984
		c-0.009,0-0.019,0-0.028,0C0.947,0.508,0.938,0.508,0.929,0.508c-0.009,0-0.019,0.001-0.028,0.001
		C0.892,0.51,0.882,0.51,0.873,0.511C0.864,0.512,0.855,0.512,0.845,0.513c-0.009,0-0.018,0.001-0.027,0.001
		C0.809,0.515,0.8,0.516,0.791,0.516S0.771,0.517,0.763,0.517v2.758v2.757v2.757v2.757v2.757v2.758v2.757v2.757
		c0.009,0,0.019-0.001,0.028-0.002l0.027-0.002c0.009-0.001,0.019-0.001,0.027-0.002c0.01,0,0.019,0,0.028-0.001
		c0.009-0.001,0.019-0.001,0.028-0.002s0.019-0.001,0.028-0.001c0.009-0.001,0.019-0.001,0.028-0.001
		c0.009-0.001,0.019-0.001,0.028-0.001h0.517h0.518h0.517h0.517h0.517h0.517h0.517H5.12v-2.755v-2.756v-2.756v-2.756V8.784V6.028
		V3.272V0.517c0.009,0,0.019-0.001,0.028-0.001s0.019-0.001,0.027-0.002c0.009,0,0.019-0.001,0.028-0.001
		c0.009-0.001,0.019-0.001,0.028-0.002C5.24,0.51,5.249,0.51,5.258,0.509c0.009,0,0.019-0.001,0.028-0.001s0.019,0,0.028-0.001
		C5.324,0.507,5.333,0.507,5.342,0.507"/>
	<path clip-path="url(#SVGID_2_)" fill="#FFFFFF" d="M5.12,22.573c0.009,0,0.019-0.001,0.027-0.002l0.027-0.002
		c0.01-0.001,0.019-0.001,0.028-0.002c0.009,0,0.018,0,0.027-0.001s0.019-0.001,0.028-0.002s0.019-0.001,0.028-0.002
		c0.009,0,0.018,0,0.028-0.001c0.009,0,0.019,0,0.028,0H5.314H5.286H5.259H5.231H5.203H5.175H5.148H5.12v0.002v0.002v0.001v0.001
		v0.001v0.002V22.573L5.12,22.573z"/>
	<path clip-path="url(#SVGID_2_)" fill="#FFFFFF" d="M15.171,0.507h-1.229h-1.229h-1.229h-1.229H9.028H7.799H6.571H5.342
		c-0.009,0-0.019,0-0.028,0C5.305,0.508,5.295,0.508,5.286,0.508c-0.009,0-0.019,0.001-0.028,0.001C5.249,0.51,5.24,0.51,5.23,0.511
		S5.212,0.512,5.203,0.513c-0.009,0-0.018,0.001-0.028,0.001C5.166,0.515,5.157,0.516,5.148,0.516c-0.009,0-0.019,0.001-0.028,0.001
		v2.756v2.756v2.756v2.755v2.756v2.756v2.756v2.755h0.028h0.027h0.028h0.027h0.027h0.028h0.028h0.028h1.229h1.229h1.229h1.229h1.229
		h1.229h1.229h1.229h0.416h0.416h0.415h0.416h0.416h0.416h0.416h0.416v-2.394v-2.395V15.38v-2.395v-2.394V8.197V5.803V3.409
		c0-0.2-0.023-0.396-0.068-0.585c-0.044-0.188-0.11-0.371-0.194-0.545c-0.084-0.173-0.187-0.338-0.306-0.492
		c-0.12-0.154-0.256-0.299-0.406-0.43c-0.15-0.132-0.315-0.25-0.492-0.354s-0.366-0.194-0.564-0.269
		c-0.199-0.072-0.408-0.13-0.624-0.169C15.625,0.527,15.401,0.507,15.171,0.507"/>
	<rect y="8.788" clip-path="url(#SVGID_2_)" fill="#272D33" width="1.525" height="2.757"/>
	<path clip-path="url(#SVGID_2_)" fill="#272D33" d="M19.26,25.465h-1.526c0-0.137-0.016-0.275-0.048-0.413
		c-0.03-0.129-0.076-0.259-0.137-0.384c-0.06-0.124-0.136-0.245-0.225-0.36c-0.088-0.114-0.19-0.222-0.302-0.319
		c-0.118-0.103-0.243-0.193-0.378-0.272c-0.139-0.082-0.287-0.152-0.441-0.209c-0.163-0.06-0.329-0.105-0.497-0.136
		c-0.174-0.031-0.355-0.047-0.535-0.047L0.866,23.33c-0.038,0.003-0.071,0.006-0.104,0.006H0v-9.905h1.525v8.368h13.646
		c0.269,0,0.539,0.024,0.803,0.07c0.257,0.047,0.51,0.116,0.755,0.206c0.241,0.088,0.473,0.198,0.689,0.326
		c0.108,0.063,0.213,0.133,0.315,0.206V3.409c0-0.137-0.016-0.275-0.048-0.413c-0.03-0.129-0.077-0.259-0.137-0.384
		c-0.06-0.124-0.136-0.245-0.224-0.359c-0.088-0.114-0.19-0.222-0.304-0.32c-0.116-0.102-0.243-0.193-0.38-0.273
		c-0.138-0.082-0.287-0.152-0.44-0.209c-0.159-0.059-0.325-0.104-0.494-0.134c-0.176-0.031-0.356-0.047-0.536-0.047H1.525v5.633H0
		v-7.113l0.839-0.04l0.076,0.76L0.893-0.254l0.063-0.002h14.215c0.268,0,0.538,0.024,0.803,0.071
		c0.258,0.046,0.511,0.114,0.755,0.204c0.239,0.088,0.47,0.198,0.688,0.325c0.218,0.13,0.422,0.276,0.607,0.438
		c0.188,0.164,0.359,0.345,0.509,0.539c0.151,0.195,0.283,0.406,0.389,0.625c0.11,0.227,0.194,0.463,0.25,0.704
		c0.058,0.252,0.088,0.507,0.088,0.759V25.465z"/>
	<rect x="5.01" y="4.843" clip-path="url(#SVGID_2_)" fill="#272D33" width="4.638" height="1.525"/>
	<rect x="5.01" y="8.321" clip-path="url(#SVGID_2_)" fill="#272D33" width="4.638" height="1.524"/>
	<rect x="5.01" y="11.799" clip-path="url(#SVGID_2_)" fill="#272D33" width="4.638" height="1.524"/>
</g>
</svg>
