<?xml version="1.0" encoding="utf-8"?>
<!-- Generator: Adobe Illustrator 16.0.0, SVG Export Plug-In . SVG Version: 6.00 Build 0)  -->
<!DOCTYPE svg PUBLIC "-//W3C//DTD SVG 1.1//EN" "http://www.w3.org/Graphics/SVG/1.1/DTD/svg11.dtd">
<svg version="1.1" id="Layer_1" xmlns="http://www.w3.org/2000/svg" xmlns:xlink="http://www.w3.org/1999/xlink" x="0px" y="0px"
	 width="21px" height="29px" viewBox="0 0 21 29" enable-background="new 0 0 21 29" xml:space="preserve">
<path fill="#444445" d="M1.954,1.749C0.773,2.638-2.571,7.461,3.687,18.392c6.593,11.52,12.867,11.04,14.125,10.26L13.366,21.1
	c-1.05,0.623-1.936-0.4-3.57-2.626c-0.027-0.019-3.188-5.363-3.199-5.433c-0.653-1.436-1.181-2.904-0.082-3.557L1.954,1.749z"/>
<path fill="#444445" d="M20.523,27.061c0.488-0.289,0.601-0.893,0.339-1.341l0.002-0.005c0,0-3.472-5.883-3.475-5.886
	c-0.273-0.466-0.865-0.612-1.327-0.342l-2.126,1.266l4.457,7.571c0,0,2.127-1.259,2.126-1.262L20.523,27.061z"/>
<path fill="#444445" d="M9.225,7.876C9.712,7.585,9.828,6.983,9.566,6.54l0.002-0.006c0,0-3.571-6.054-3.573-6.055
	C5.72,0.009,5.126-0.135,4.667,0.136L2.541,1.401l4.556,7.74c0,0,2.126-1.257,2.127-1.26L9.225,7.876z"/>
</svg>
