<?xml version="1.0" encoding="utf-8"?>
<!-- Generator: Adobe Illustrator 16.0.0, SVG Export Plug-In . SVG Version: 6.00 Build 0)  -->
<!DOCTYPE svg PUBLIC "-//W3C//DTD SVG 1.1//EN" "http://www.w3.org/Graphics/SVG/1.1/DTD/svg11.dtd">
<svg version="1.1" id="Layer_1" xmlns="http://www.w3.org/2000/svg" xmlns:xlink="http://www.w3.org/1999/xlink" x="0px" y="0px"
	 width="30px" height="21px" viewBox="0 0 30 21" enable-background="new 0 0 30 21" xml:space="preserve">
<path fill-rule="evenodd" clip-rule="evenodd" fill="#666766" d="M5,21V6V0h20v6v15H5z M12,2h-2v2h2V2z M20,2h-2v2h2V2z M24,6H6v14
	h18V6z"/>
<path fill-rule="evenodd" clip-rule="evenodd" fill="#666766" d="M10,14H8v-2h2V14z M10,18H8v-2h2V18z M14,10h-2V8h2V10z M14,14h-2
	v-2h2V14z M14,18h-2v-2h2V18z M18,10h-2V8h2V10z M18,14h-2v-2h2V14z M18,18h-2v-2h2V18z M22,10h-2V8h2V10z M22,14h-2v-2h2V14z"/>
</svg>
