<?xml version="1.0" encoding="utf-8"?>
<!-- Generator: Adobe Illustrator 16.0.0, SVG Export Plug-In . SVG Version: 6.00 Build 0)  -->
<!DOCTYPE svg PUBLIC "-//W3C//DTD SVG 1.1//EN" "http://www.w3.org/Graphics/SVG/1.1/DTD/svg11.dtd">
<svg version="1.1" id="Layer_1" xmlns="http://www.w3.org/2000/svg" xmlns:xlink="http://www.w3.org/1999/xlink" x="0px" y="0px"
	 width="50px" height="50px" viewBox="0 0 50 50" enable-background="new 0 0 50 50" xml:space="preserve">
<g>
	<g>
		<path fill="#817E7B" d="M20.505,36.049c0-0.199-0.162-0.362-0.361-0.362h-6.296c-0.2,0-0.362,0.163-0.362,0.362v6.877h7.02V36.049
			z"/>
		<path fill="#4A5F70" d="M21.175,34.919c0,0.2-0.162,0.362-0.362,0.362h-7.733c-0.2,0-0.362-0.162-0.362-0.362v-0.858
			c0-0.199,0.162-0.362,0.362-0.362h7.733c0.2,0,0.362,0.163,0.362,0.362V34.919z"/>
		<path fill="#4A5F70" d="M29.396,2.067H4.57C3.703,2.067,3,2.771,3,3.639v42.724c0,0.868,0.703,1.57,1.57,1.57h24.825
			c0.868,0,1.57-0.702,1.57-1.57V3.639C30.966,2.771,30.264,2.067,29.396,2.067z M27.132,42.501c0,0.712-0.51,1.287-1.14,1.287
			H7.974c-0.63,0-1.14-0.575-1.14-1.287V7.5c0-0.711,0.51-1.287,1.14-1.287h18.018c0.63,0,1.14,0.576,1.14,1.287V42.501z"/>
		<path fill="#71C4C2" d="M14.952,14.537c0,0.2-0.162,0.362-0.362,0.362h-3.42c-0.2,0-0.362-0.162-0.362-0.362v-3.42
			c0-0.2,0.162-0.362,0.362-0.362h3.42c0.2,0,0.362,0.162,0.362,0.362V14.537z"/>
		<path fill="#71C4C2" d="M23.126,14.537c0,0.2-0.162,0.362-0.362,0.362h-3.42c-0.2,0-0.362-0.162-0.362-0.362v-3.42
			c0-0.2,0.162-0.362,0.362-0.362h3.42c0.2,0,0.362,0.162,0.362,0.362V14.537z"/>
		<path fill="#7FB6C8" d="M39.148,24.17c0,0.2-0.162,0.362-0.362,0.362h-3.42c-0.2,0-0.362-0.162-0.362-0.362v-3.42
			c0-0.2,0.162-0.362,0.362-0.362h3.42c0.2,0,0.362,0.162,0.362,0.362V24.17z"/>
		<path fill="#7FB6C8" d="M39.148,32.08c0,0.2-0.162,0.363-0.362,0.363h-3.42c-0.2,0-0.362-0.163-0.362-0.363v-3.42
			c0-0.201,0.162-0.362,0.362-0.362h3.42c0.2,0,0.362,0.161,0.362,0.362V32.08z"/>
		<path fill="#71C4C2" d="M14.952,22.302c0,0.2-0.162,0.362-0.362,0.362h-3.42c-0.2,0-0.362-0.163-0.362-0.362v-3.42
			c0-0.201,0.162-0.362,0.362-0.362h3.42c0.2,0,0.362,0.162,0.362,0.362V22.302z"/>
		<path fill="#71C4C2" d="M23.126,22.302c0,0.2-0.162,0.362-0.362,0.362h-3.42c-0.2,0-0.362-0.163-0.362-0.362v-3.42
			c0-0.201,0.162-0.362,0.362-0.362h3.42c0.2,0,0.362,0.162,0.362,0.362V22.302z"/>
		<path fill="#71C4C2" d="M14.952,30.067c0,0.2-0.162,0.362-0.362,0.362h-3.42c-0.2,0-0.362-0.162-0.362-0.362v-3.421
			c0-0.199,0.162-0.361,0.362-0.361h3.42c0.2,0,0.362,0.162,0.362,0.361V30.067z"/>
		<path fill="#71C4C2" d="M23.126,30.067c0,0.2-0.162,0.362-0.362,0.362h-3.42c-0.2,0-0.362-0.162-0.362-0.362v-3.421
			c0-0.199,0.162-0.361,0.362-0.361h3.42c0.2,0,0.362,0.162,0.362,0.361V30.067z"/>
	</g>
	<g>
		<path fill="#716279" d="M45.43,12.362H32.077v4.119h10.118c0.603,0,1.092,0.564,1.092,1.259v23.749
			c0,0.695-0.489,1.259-1.092,1.259H32.077v3.978H45.43c0.867,0,1.57-0.703,1.57-1.571V13.934C47,13.066,46.297,12.362,45.43,12.362
			z"/>
	</g>
</g>
</svg>
