<?xml version="1.0" encoding="utf-8"?>
<!-- Generator: Adobe Illustrator 16.0.0, SVG Export Plug-In . SVG Version: 6.00 Build 0)  -->
<!DOCTYPE svg PUBLIC "-//W3C//DTD SVG 1.1//EN" "http://www.w3.org/Graphics/SVG/1.1/DTD/svg11.dtd">
<svg version="1.1" id="Layer_1" xmlns="http://www.w3.org/2000/svg" xmlns:xlink="http://www.w3.org/1999/xlink" x="0px" y="0px"
	 width="22px" height="16px" viewBox="0 0 22 16" enable-background="new 0 0 22 16" xml:space="preserve">
<g>
	<path fill="none" d="M8.068,2.536c-0.456-1.334-1.576-1.64-1.782-1.685h-5.42v8.838h5.189c0.897,0,1.556,0.334,2.012,0.704V2.536z
		 M2.955,3.503h1.03v0.854h-1.03V3.503z M5.743,6.786H2.955V5.932h2.788V6.786z M5.743,4.357H4.712V3.503h1.031V4.357z"/>
	<path fill="none" d="M12.476,6.786h-1.354V5.932h2.331c0.777-0.52,1.691-0.849,2.682-0.914V0.852h-5.421
		c-0.199,0.043-1.325,0.347-1.781,1.685v7.857c0.456-0.37,1.114-0.704,2.012-0.704h0.122C11.231,8.572,11.745,7.578,12.476,6.786z
		 M12.879,3.503h1.031v0.854h-1.031V3.503z M11.122,3.503h1.031v0.854h-1.031V3.503z"/>
	<polygon fill="none" points="16.706,10.193 16.706,7.359 16.134,7.359 15.757,7.359 15.757,10.193 14.678,10.193 13.117,10.193 
		13.117,10.544 13.117,11.076 15.757,11.076 15.757,13.923 16.706,13.923 16.706,11.076 19.346,11.076 19.346,10.193 16.981,10.193 
			"/>
	<g>
		<rect x="11.122" y="3.503" fill="#555655" width="1.031" height="0.854"/>
		<rect x="12.879" y="3.503" fill="#555655" width="1.031" height="0.854"/>
		<rect x="2.955" y="3.503" fill="#555655" width="1.03" height="0.854"/>
		<rect x="4.712" y="3.503" fill="#555655" width="1.031" height="0.854"/>
		<rect x="2.955" y="5.932" fill="#555655" width="2.788" height="0.854"/>
		<path fill="#555655" d="M16.997,5.024v-4.6c0-0.236-0.193-0.427-0.432-0.427h-5.895c-0.024,0-0.048,0.002-0.071,0.005
			C10.536,0.013,9.287,0.25,8.5,1.481C7.713,0.25,6.464,0.013,6.4,0.002C6.377-0.001,6.353-0.003,6.33-0.003H0.435
			c-0.239,0-0.432,0.191-0.432,0.427v9.693c0,0.235,0.193,0.427,0.432,0.427h5.622c1.429,0,2.031,1.164,2.057,1.214
			c0.008,0.016,0.026,0.023,0.036,0.039c0.018,0.027,0.039,0.045,0.063,0.068c0.043,0.041,0.09,0.07,0.146,0.092
			c0.017,0.006,0.026,0.022,0.044,0.027c0.03,0.006,0.06,0.01,0.089,0.01c0.003,0,0.006,0.002,0.009,0.002
			c0.032,0,0.065-0.004,0.097-0.011c0.021-0.005,0.031-0.024,0.051-0.032c0.053-0.02,0.096-0.047,0.138-0.086
			c0.025-0.023,0.047-0.042,0.066-0.07c0.01-0.016,0.028-0.023,0.036-0.039c0.025-0.05,0.626-1.214,2.056-1.214h0.058
			c0.025,3.016,2.477,5.453,5.499,5.453c3.038,0,5.501-2.463,5.501-5.5C22.002,7.628,19.803,5.275,16.997,5.024z M6.056,9.689H0.867
			V0.852h5.42c0.206,0.045,1.326,0.35,1.782,1.685v7.857C7.612,10.023,6.954,9.689,6.056,9.689z M8.932,10.394V2.536
			c0.456-1.338,1.582-1.641,1.781-1.685h5.421v4.166c-0.99,0.065-1.904,0.394-2.682,0.914h-2.331v0.854h1.354
			c-0.73,0.792-1.245,1.786-1.41,2.903h-0.122C10.046,9.689,9.388,10.023,8.932,10.394z M19.346,11.076h-2.64v2.847h-0.949v-2.847
			h-2.64v-0.532v-0.351h1.561h1.079V7.359h0.377h0.572v2.834h0.275h2.364V11.076z"/>
	</g>
</g>
</svg>
