<?xml version="1.0" encoding="utf-8"?>
<!-- Generator: Adobe Illustrator 16.0.0, SVG Export Plug-In . SVG Version: 6.00 Build 0)  -->
<!DOCTYPE svg PUBLIC "-//W3C//DTD SVG 1.1//EN" "http://www.w3.org/Graphics/SVG/1.1/DTD/svg11.dtd">
<svg version="1.1" id="Layer_1" xmlns="http://www.w3.org/2000/svg" xmlns:xlink="http://www.w3.org/1999/xlink" x="0px" y="0px"
	 width="16px" height="16px" viewBox="0 0 16 16" enable-background="new 0 0 16 16" xml:space="preserve">
<path fill-rule="evenodd" clip-rule="evenodd" fill="#555655" d="M5.853,6.407c0-1.546,1.185-2.799,2.647-2.799
	c1.461,0,2.648,1.252,2.648,2.799c0,1.546-1.187,2.799-2.648,2.799C7.038,9.206,5.853,7.953,5.853,6.407z M4,6.757
	c0,1.171,1.343,3.638,1.343,3.638l3.157,4.6l2.976-4.6c0,0,1.524-2.484,1.524-3.638c0-2.628-2.015-4.759-4.5-4.759
	C6.014,1.998,4,4.128,4,6.757z"/>
</svg>
