<?xml version="1.0" encoding="utf-8"?>
<!-- Generator: Adobe Illustrator 16.0.0, SVG Export Plug-In . SVG Version: 6.00 Build 0)  -->
<!DOCTYPE svg PUBLIC "-//W3C//DTD SVG 1.1//EN" "http://www.w3.org/Graphics/SVG/1.1/DTD/svg11.dtd">
<svg version="1.1" id="Layer_1" xmlns="http://www.w3.org/2000/svg" xmlns:xlink="http://www.w3.org/1999/xlink" x="0px" y="0px"
	 width="50px" height="50px" viewBox="0 0 50 50" enable-background="new 0 0 50 50" xml:space="preserve">
<g>
	<defs>
		<rect id="SVGID_1_" y="0" width="49.658" height="50"/>
	</defs>
	<clipPath id="SVGID_2_">
		<use xlink:href="#SVGID_1_"  overflow="visible"/>
	</clipPath>
	<path clip-path="url(#SVGID_2_)" fill="#FFFFFF" d="M31.896,39.15v-0.737H8.274V4.901h40.435V39.15
		c0,4.462-2.723,8.286-6.598,9.901h-3.613C34.621,47.437,31.896,43.612,31.896,39.15"/>
	<polyline clip-path="url(#SVGID_2_)" fill="#FFFFFF" points="8.274,24.236 8.274,13.279 8.274,4.901 18.382,4.901 28.492,4.901 
		38.602,4.901 48.709,4.901 48.709,15.397 	"/>
	
		<polyline clip-path="url(#SVGID_2_)" fill="none" stroke="#1B1C1C" stroke-width="3" stroke-linecap="round" stroke-linejoin="round" points="
		8.274,24.236 8.274,13.279 8.274,4.901 18.382,4.901 28.492,4.901 38.602,4.901 48.709,4.901 48.709,15.397 	"/>
	<path clip-path="url(#SVGID_2_)" fill="#FFFFFF" d="M48.709,22.026v8.562v8.563c0,1.115-0.168,2.19-0.486,3.202
		c-0.314,1.011-0.777,1.958-1.359,2.816c-0.582,0.857-1.287,1.627-2.086,2.281c-0.801,0.656-1.697,1.198-2.666,1.603h-0.904h-0.902
		h-0.902h-0.904c-0.969-0.404-1.865-0.946-2.666-1.603c-0.801-0.654-1.506-1.424-2.088-2.281c-0.582-0.858-1.045-1.806-1.361-2.816
		c-0.316-1.012-0.486-2.087-0.486-3.202v-0.185v-0.184v-0.185v-0.185h-5.906h-5.906h-5.905H8.274v-8.378"/>
	
		<path clip-path="url(#SVGID_2_)" fill="none" stroke="#1B1C1C" stroke-width="3" stroke-linecap="round" stroke-linejoin="round" d="
		M48.709,22.026v8.562v8.563c0,1.115-0.168,2.19-0.486,3.202c-0.314,1.011-0.777,1.958-1.359,2.816
		c-0.582,0.857-1.287,1.627-2.086,2.281c-0.801,0.656-1.697,1.198-2.666,1.603h-0.904h-0.902h-0.902h-0.904
		c-0.969-0.404-1.865-0.946-2.666-1.603c-0.801-0.654-1.506-1.424-2.088-2.281c-0.582-0.858-1.045-1.806-1.361-2.816
		c-0.316-1.012-0.486-2.087-0.486-3.202v-0.185v-0.184v-0.185v-0.185h-5.906h-5.906h-5.905H8.274v-8.378"/>
	<path clip-path="url(#SVGID_2_)" fill="#FFFFFF" d="M31.896,38.413v0.738c0,4.461,2.725,8.285,6.602,9.901H7.55
		c-3.877-1.616-6.603-5.44-6.603-9.901v-0.738H31.896z"/>
	
		<path clip-path="url(#SVGID_2_)" fill="none" stroke="#1B1C1C" stroke-width="3" stroke-linecap="round" stroke-linejoin="round" d="
		M31.896,38.413v0.738c0,4.461,2.725,8.285,6.602,9.901H7.55c-3.877-1.616-6.603-5.44-6.603-9.901v-0.738H31.896z"/>
	<path clip-path="url(#SVGID_2_)" fill="#7BCFDD" d="M5.302,0.948h22.009c1.961,0,3.549,1.59,3.549,3.551v11.832
		c0,1.959-1.588,3.55-3.549,3.55h-1.893v5.205l-5.642-5.205H5.302c-1.96,0-3.549-1.59-3.549-3.55V4.499
		C1.752,2.539,3.341,0.948,5.302,0.948"/>
	
		<path clip-path="url(#SVGID_2_)" fill="none" stroke="#1B1C1C" stroke-width="3" stroke-linecap="round" stroke-linejoin="round" d="
		M5.302,0.948h22.009c1.961,0,3.549,1.59,3.549,3.551v11.832c0,1.959-1.588,3.55-3.549,3.55h-1.893v5.205l-5.642-5.205H5.302
		c-1.96,0-3.549-1.59-3.549-3.55V4.499C1.752,2.539,3.341,0.948,5.302,0.948z"/>
	<line clip-path="url(#SVGID_2_)" fill="#FFFFFF" x1="22.481" y1="9.368" x2="22.481" y2="12.175"/>
	
		<line clip-path="url(#SVGID_2_)" fill="none" stroke="#1B1C1C" stroke-width="3" stroke-linecap="round" stroke-linejoin="round" x1="22.481" y1="9.368" x2="22.481" y2="12.175"/>
	<line clip-path="url(#SVGID_2_)" fill="#FFFFFF" x1="16.306" y1="9.368" x2="16.306" y2="12.175"/>
	
		<line clip-path="url(#SVGID_2_)" fill="none" stroke="#1B1C1C" stroke-width="3" stroke-linecap="round" stroke-linejoin="round" x1="16.306" y1="9.368" x2="16.306" y2="12.175"/>
	<line clip-path="url(#SVGID_2_)" fill="#FFFFFF" x1="10.131" y1="9.368" x2="10.131" y2="12.175"/>
	
		<line clip-path="url(#SVGID_2_)" fill="none" stroke="#1B1C1C" stroke-width="3" stroke-linecap="round" stroke-linejoin="round" x1="10.131" y1="9.368" x2="10.131" y2="12.175"/>
	
		<line clip-path="url(#SVGID_2_)" fill="none" stroke="#1B1C1C" stroke-width="3" stroke-linecap="round" stroke-linejoin="round" x1="36.641" y1="15.76" x2="42.23" y2="15.76"/>
	
		<line clip-path="url(#SVGID_2_)" fill="none" stroke="#1B1C1C" stroke-width="3" stroke-linecap="round" stroke-linejoin="round" x1="36.641" y1="21.347" x2="42.23" y2="21.347"/>
	
		<line clip-path="url(#SVGID_2_)" fill="none" stroke="#1B1C1C" stroke-width="3" stroke-linecap="round" stroke-linejoin="round" x1="36.641" y1="26.935" x2="42.23" y2="26.935"/>
	
		<line clip-path="url(#SVGID_2_)" fill="none" stroke="#1B1C1C" stroke-width="3" stroke-linecap="round" stroke-linejoin="round" x1="36.641" y1="32.522" x2="42.23" y2="32.522"/>
</g>
</svg>
