<?xml version="1.0" encoding="utf-8"?>
<!-- Generator: Adobe Illustrator 16.0.0, SVG Export Plug-In . SVG Version: 6.00 Build 0)  -->
<!DOCTYPE svg PUBLIC "-//W3C//DTD SVG 1.1//EN" "http://www.w3.org/Graphics/SVG/1.1/DTD/svg11.dtd">
<svg version="1.1" id="Layer_1" xmlns="http://www.w3.org/2000/svg" xmlns:xlink="http://www.w3.org/1999/xlink" x="0px" y="0px"
	 width="16px" height="16px" viewBox="0 0 16 16" enable-background="new 0 0 16 16" xml:space="preserve">
<path fill-rule="evenodd" clip-rule="evenodd" fill="#555655" d="M14.576,7.149v0.428v0.428h-1.697V7.577h1.272V7.149h-0.425V5.437
	h0.425V5.008h-1.27l-0.009,6.41H3.115V8.005H1.424V7.577V7.149H1V5.437h0.424V5.008V4.581h1.691V4.115
	c0-1.041,1.151-2.113,4.688-2.113c4.024,0,5.08,1.073,5.08,2.113v0.466h1.693v0.428v0.428H15v1.712H14.576z M3.115,5.008H1.849
	v0.428h0.424v1.712H1.849v0.428h1.267V5.008z M11.186,10.482c0.427,0,0.773-0.35,0.773-0.779c0-0.432-0.347-0.78-0.773-0.78
	c-0.428,0-0.773,0.349-0.773,0.78C10.412,10.133,10.758,10.482,11.186,10.482z M6.102,10.545h3.821v-0.414H6.102V10.545z
	 M6.102,9.691h3.821V9.277H6.102V9.691z M6.091,8.861h3.818V8.433H6.091V8.861z M4.813,10.457c0.427,0,0.773-0.35,0.773-0.781
	s-0.346-0.78-0.773-0.78c-0.427,0-0.773,0.348-0.773,0.78S4.386,10.457,4.813,10.457z M3.987,5.102v1.534
	c0,0.288,0.231,0.52,0.516,0.52h2.763c0.285,0,0.516-0.232,0.516-0.52V5.102c0-0.288-0.231-0.521-0.516-0.521H4.502
	C4.218,4.581,3.987,4.814,3.987,5.102z M9.697,3.27H6.303c-0.117,0-0.212,0.096-0.212,0.214s0.095,0.214,0.212,0.214h3.394
	c0.117,0,0.212-0.096,0.212-0.214S9.814,3.27,9.697,3.27z M12.032,5.102c0-0.288-0.231-0.521-0.516-0.521H8.733
	c-0.285,0-0.516,0.233-0.516,0.521v1.534c0,0.288,0.231,0.52,0.516,0.52h2.784c0.284,0,0.516-0.232,0.516-0.52V5.102z
	 M12.883,12.164c0,0.287-0.23,0.52-0.516,0.52H3.63c-0.285,0-0.515-0.232-0.515-0.52s0-0.307,0-0.307h9.768
	C12.883,11.857,12.883,11.877,12.883,12.164z M5.667,13.57c0,0.236-0.19,0.428-0.424,0.428H4.818c-0.234,0-0.424-0.191-0.424-0.428
	v-0.883h1.272V13.57z M11.605,13.57c0,0.236-0.189,0.428-0.424,0.428h-0.424c-0.234,0-0.425-0.191-0.425-0.428v-0.883h1.272V13.57z"
	/>
</svg>
