<?xml version="1.0" encoding="utf-8"?>
<!-- Generator: Adobe Illustrator 16.0.0, SVG Export Plug-In . SVG Version: 6.00 Build 0)  -->
<!DOCTYPE svg PUBLIC "-//W3C//DTD SVG 1.1//EN" "http://www.w3.org/Graphics/SVG/1.1/DTD/svg11.dtd">
<svg version="1.1" id="Layer_1" xmlns="http://www.w3.org/2000/svg" xmlns:xlink="http://www.w3.org/1999/xlink" x="0px" y="0px"
	 width="16px" height="16px" viewBox="0 0 16 16" enable-background="new 0 0 16 16" xml:space="preserve">
<path fill-rule="evenodd" clip-rule="evenodd" fill="#555655" d="M12.619,14H3.38c-0.486,0-0.88-0.336-0.88-0.75v-9
	c0-0.414,0.394-0.75,0.88-0.75v9c0,0.414,0.394,0.75,0.88,0.75h1.76c0.486,0,0.88-0.336,0.88-0.75v-9h5.719
	c0.486,0,0.881,0.336,0.881,0.75v9C13.5,13.664,13.105,14,12.619,14z M10.42,12.875h0.88v-0.75h-0.88V12.875z M10.42,11.75h0.88V11
	h-0.88V11.75z M10.42,10.625h0.88v-0.75h-0.88V10.625z M10.42,9.5h0.88V8.75h-0.88V9.5z M9.1,12.875h0.88v-0.75H9.1V12.875z
	 M9.1,11.75h0.88V11H9.1V11.75z M9.1,10.625h0.88v-0.75H9.1V10.625z M9.1,9.5h0.88V8.75H9.1V9.5z M12.619,4.625
	c0-0.207-0.196-0.375-0.439-0.375H8.22c-0.243,0-0.44,0.168-0.44,0.375v1.5C7.78,6.332,7.977,6.5,8.22,6.5h3.96
	c0.243,0,0.439-0.168,0.439-0.375V4.625z M12.619,8.75H11.74V9.5h0.879V8.75z M12.619,9.875H11.74v0.75h0.879V9.875z M12.619,11
	H11.74v0.75h0.879V11z M12.619,12.125H11.74v0.75h0.879V12.125z M6.02,12.875H4.26c-0.243,0-0.44-0.168-0.44-0.375V3.125
	c0-0.207,0.197-0.375,0.44-0.375h0.853V2H5.58v0.75h0.44c0.243,0,0.44,0.168,0.44,0.375V12.5C6.46,12.707,6.263,12.875,6.02,12.875z
	"/>
</svg>
