<?xml version="1.0" encoding="utf-8"?>
<!-- Generator: Adobe Illustrator 16.0.0, SVG Export Plug-In . SVG Version: 6.00 Build 0)  -->
<!DOCTYPE svg PUBLIC "-//W3C//DTD SVG 1.1//EN" "http://www.w3.org/Graphics/SVG/1.1/DTD/svg11.dtd">
<svg version="1.1" id="Layer_1" xmlns="http://www.w3.org/2000/svg" xmlns:xlink="http://www.w3.org/1999/xlink" x="0px" y="0px"
	 width="16px" height="16px" viewBox="0 0 16 16" enable-background="new 0 0 16 16" xml:space="preserve">
<path fill="#555655" d="M4.915,2.778C4.353,3.175,2.76,5.333,5.74,10.223c3.14,5.151,6.128,4.938,6.727,4.589l-2.117-3.378
	c-0.5,0.277-0.921-0.181-1.7-1.175c-0.013-0.009-1.518-2.399-1.523-2.43C6.815,7.187,6.564,6.53,7.088,6.237L4.915,2.778z"/>
<path fill="#555655" d="M13.758,14.1c0.232-0.13,0.286-0.399,0.162-0.6v-0.002c0,0-1.652-2.633-1.653-2.633
	c-0.132-0.209-0.413-0.274-0.633-0.153l-1.013,0.565l2.123,3.388c0,0,1.012-0.563,1.012-0.565H13.758z"/>
<path fill="#555655" d="M8.377,5.519C8.609,5.388,8.665,5.12,8.54,4.921l0.001-0.003c0,0-1.701-2.708-1.702-2.708
	C6.709,2,6.426,1.935,6.208,2.057L5.194,2.622l2.17,3.462c0,0,1.013-0.563,1.013-0.563L8.377,5.519z"/>
</svg>
