<?xml version="1.0" encoding="utf-8"?>
<!-- Generator: Adobe Illustrator 16.0.0, SVG Export Plug-In . SVG Version: 6.00 Build 0)  -->
<!DOCTYPE svg PUBLIC "-//W3C//DTD SVG 1.1//EN" "http://www.w3.org/Graphics/SVG/1.1/DTD/svg11.dtd">
<svg version="1.1" id="Layer_1" xmlns="http://www.w3.org/2000/svg" xmlns:xlink="http://www.w3.org/1999/xlink" x="0px" y="0px"
	 width="16px" height="16px" viewBox="0 0 16 16" enable-background="new 0 0 16 16" xml:space="preserve">
<g>
	<defs>
		<rect id="SVGID_1_" x="0.778" width="14.445" height="16"/>
	</defs>
	<clipPath id="SVGID_2_">
		<use xlink:href="#SVGID_1_"  overflow="visible"/>
	</clipPath>
	<polygon clip-path="url(#SVGID_2_)" fill="#555655" points="11.91,12.299 11.223,12.299 11.223,10.308 4.777,10.308 4.777,12.299 
		4.088,12.299 4.088,9.618 11.91,9.618 	"/>
	<g clip-path="url(#SVGID_2_)">
		<path fill="#555655" d="M13.953,5.128H11.91V0H4.088v5.128H2.047c-0.7,0-1.269,0.569-1.269,1.27v4.978
			c0,0.698,0.569,1.269,1.269,1.269h2.042V16h7.822v-3.356h2.043c0.699,0,1.27-0.57,1.27-1.269V6.397
			C15.223,5.697,14.652,5.128,13.953,5.128z M4.777,0.688h6.446v4.439H4.777V0.688z M11.223,15.312H4.777v-2.668v-0.345v-1.991
			h6.446v1.991v0.345V15.312z M14.533,11.375c0,0.318-0.26,0.58-0.58,0.58H11.91V9.618H4.088v2.337H2.047
			c-0.32,0-0.581-0.262-0.581-0.58V6.397c0-0.32,0.261-0.58,0.581-0.58h2.042h0.344h7.134h0.344h2.043c0.32,0,0.58,0.26,0.58,0.58
			V11.375z"/>
		<rect x="5.716" y="11.544" fill="#555655" width="4.567" height="0.689"/>
		<rect x="5.716" y="13.033" fill="#555655" width="4.567" height="0.688"/>
	</g>
	<path clip-path="url(#SVGID_2_)" fill="#555655" d="M13.686,7.628c0,0.369-0.299,0.667-0.668,0.667S12.35,7.997,12.35,7.628
		c0-0.368,0.299-0.667,0.668-0.667S13.686,7.26,13.686,7.628"/>
	<path clip-path="url(#SVGID_2_)" fill="#555655" d="M11.359,7.628c0,0.369-0.299,0.667-0.668,0.667s-0.668-0.298-0.668-0.667
		c0-0.368,0.299-0.667,0.668-0.667S11.359,7.26,11.359,7.628"/>
</g>
</svg>
