<?xml version="1.0" encoding="utf-8"?>
<!-- Generator: Adobe Illustrator 16.0.0, SVG Export Plug-In . SVG Version: 6.00 Build 0)  -->
<!DOCTYPE svg PUBLIC "-//W3C//DTD SVG 1.1//EN" "http://www.w3.org/Graphics/SVG/1.1/DTD/svg11.dtd">
<svg version="1.1" id="Layer_1" xmlns="http://www.w3.org/2000/svg" xmlns:xlink="http://www.w3.org/1999/xlink" x="0px" y="0px"
	 width="13px" height="12px" viewBox="0 0 13 12" enable-background="new 0 0 13 12" xml:space="preserve">
<path fill-rule="evenodd" clip-rule="evenodd" fill="#FFFFFF" d="M0.866,0.001h11.267C12.611,0.001,13,0.385,13,0.859
	c0,0.473-0.389,0.856-0.867,0.856H0.866C0.388,1.715,0,1.332,0,0.859C0,0.385,0.388,0.001,0.866,0.001z"/>
<path fill-rule="evenodd" clip-rule="evenodd" fill="#FFFFFF" d="M0.866,5.144h11.267C12.611,5.144,13,5.527,13,6.001
	c0,0.473-0.389,0.856-0.867,0.856H0.866C0.388,6.857,0,6.474,0,6.001C0,5.527,0.388,5.144,0.866,5.144z"/>
<path fill-rule="evenodd" clip-rule="evenodd" fill="#FFFFFF" d="M0.866,10.286h11.267c0.479,0,0.867,0.384,0.867,0.856
	C13,11.617,12.611,12,12.133,12H0.866C0.388,12,0,11.617,0,11.143C0,10.67,0.388,10.286,0.866,10.286z"/>
</svg>
