<?xml version="1.0" encoding="utf-8"?>
<!-- Generator: Adobe Illustrator 16.0.0, SVG Export Plug-In . SVG Version: 6.00 Build 0)  -->
<!DOCTYPE svg PUBLIC "-//W3C//DTD SVG 1.1//EN" "http://www.w3.org/Graphics/SVG/1.1/DTD/svg11.dtd">
<svg version="1.1" xmlns="http://www.w3.org/2000/svg" xmlns:xlink="http://www.w3.org/1999/xlink" x="0px" y="0px" width="20px"
	 height="20px" viewBox="0 0 20 20" enable-background="new 0 0 20 20" xml:space="preserve">
<g id="Layer_1">
	<rect x="3" y="11" fill="#555555" width="1" height="1"/>
	<rect x="3" y="7" fill="#555555" width="1" height="1"/>
	<rect x="5" y="7" fill="#555555" width="1" height="1"/>
	<rect x="7" y="7" fill="#555555" width="1" height="1"/>
	<rect x="9" y="7" fill="#555555" width="1" height="1"/>
	<rect x="11" y="7" fill="#555555" width="1" height="1"/>
	<rect x="13" y="7" fill="#555555" width="1" height="1"/>
	<rect x="15" y="9" fill="#555555" width="1" height="1"/>
	<rect x="13" y="9" fill="#555555" width="1" height="1"/>
	<rect x="11" y="9" fill="#555555" width="1" height="1"/>
	<rect x="9" y="9" fill="#555555" width="1" height="1"/>
	<rect x="7" y="9" fill="#555555" width="1" height="1"/>
	<rect x="5" y="9" fill="#555555" width="1" height="1"/>
	<rect x="3" y="9" fill="#555555" width="1" height="1"/>
	<rect x="16" y="7" fill="#555555" width="1" height="3"/>
	<rect x="16" y="11" fill="#555555" width="1" height="1"/>
	<rect x="5" y="11" fill="#555555" width="10" height="1"/>
</g>
<g id="Layer_2">
	<path fill="#555555" d="M18.5,15h-17C0.673,15,0,14.327,0,13.5v-8C0,4.673,0.673,4,1.5,4h17C19.327,4,20,4.673,20,5.5v8
		C20,14.327,19.327,15,18.5,15z M1.5,5C1.224,5,1,5.224,1,5.5v8C1,13.775,1.224,14,1.5,14h17c0.275,0,0.5-0.225,0.5-0.5v-8
		C19,5.224,18.775,5,18.5,5H1.5z"/>
</g>
</svg>
