<?xml version="1.0" encoding="utf-8"?>
<!-- Generator: Adobe Illustrator 16.0.0, SVG Export Plug-In . SVG Version: 6.00 Build 0)  -->
<!DOCTYPE svg PUBLIC "-//W3C//DTD SVG 1.1//EN" "http://www.w3.org/Graphics/SVG/1.1/DTD/svg11.dtd">
<svg version="1.1" id="Layer_1" xmlns="http://www.w3.org/2000/svg" xmlns:xlink="http://www.w3.org/1999/xlink" x="0px" y="0px"
	 width="32px" height="32px" viewBox="0 0 32 32" enable-background="new 0 0 32 32" xml:space="preserve">
<path fill-rule="evenodd" clip-rule="evenodd" fill="#FFFFFF" d="M16,32C7.164,32,0,24.836,0,16C0,7.163,7.164,0,16,0
	s16,7.164,16,16C32,24.836,24.836,32,16,32z M16,3.692C9.203,3.692,3.692,9.202,3.692,16S9.203,28.307,16,28.307
	S28.308,22.797,28.308,16S22.797,3.692,16,3.692z M14.113,22.218c-0.228,0.227-0.596,0.227-0.823,0l-0.183-0.183l-0.001,0.001
	l-0.194-0.195l-0.857-0.857c-0.003-0.003-0.001-0.008-0.004-0.011l-3.922-3.951c-0.228-0.227-0.228-0.596,0-0.823l1.234-1.234
	c0.227-0.227,0.595-0.227,0.823,0l3.521,3.546l7.4-7.4c0.227-0.228,0.595-0.228,0.823,0l1.234,1.234
	c0.228,0.228,0.228,0.596,0,0.823L14.113,22.218z"/>
</svg>
