<?xml version="1.0" encoding="utf-8"?>
<!-- Generator: Adobe Illustrator 16.0.0, SVG Export Plug-In . SVG Version: 6.00 Build 0)  -->
<!DOCTYPE svg PUBLIC "-//W3C//DTD SVG 1.1//EN" "http://www.w3.org/Graphics/SVG/1.1/DTD/svg11.dtd">
<svg version="1.1" id="Layer_1" xmlns="http://www.w3.org/2000/svg" xmlns:xlink="http://www.w3.org/1999/xlink" x="0px" y="0px"
	 width="20px" height="20px" viewBox="0 0 20 20" enable-background="new 0 0 20 20" xml:space="preserve">
<g>
	<path fill="none" d="M15.88,9c0-3.859-3.116-7-6.947-7C5.102,2,1.986,5.141,1.986,9s3.116,7,6.947,7
		C12.764,16,15.88,12.859,15.88,9z"/>
	<path fill="#434343" d="M19.708,17.943l-3.592-3.617c1.094-1.492,1.749-3.332,1.749-5.326c0-4.962-4.007-9-8.932-9
		C4.007,0,0,4.038,0,9c0,4.963,4.007,9,8.933,9c2.231,0,4.269-0.834,5.836-2.201l3.534,3.559c0.388,0.393,1.017,0.393,1.404,0
		C20.098,18.967,20.098,18.334,19.708,17.943z M1.986,9c0-3.859,3.116-7,6.947-7c3.831,0,6.947,3.141,6.947,7s-3.116,7-6.947,7
		C5.102,16,1.986,12.859,1.986,9z"/>
</g>
</svg>
