<?xml version="1.0" encoding="utf-8"?>
<!-- Generator: Adobe Illustrator 16.0.0, SVG Export Plug-In . SVG Version: 6.00 Build 0)  -->
<!DOCTYPE svg PUBLIC "-//W3C//DTD SVG 1.1//EN" "http://www.w3.org/Graphics/SVG/1.1/DTD/svg11.dtd">
<svg version="1.1" id="Layer_1" xmlns="http://www.w3.org/2000/svg" xmlns:xlink="http://www.w3.org/1999/xlink" x="0px" y="0px"
	 width="22px" height="16px" viewBox="0 0 22 16" enable-background="new 0 0 22 16" xml:space="preserve">
<g>
	<rect x="11.122" y="3.503" fill-rule="evenodd" clip-rule="evenodd" fill="#555655" width="1.031" height="0.854"/>
	<rect x="12.879" y="3.503" fill-rule="evenodd" clip-rule="evenodd" fill="#555655" width="1.031" height="0.854"/>
	<rect x="2.955" y="3.503" fill-rule="evenodd" clip-rule="evenodd" fill="#555655" width="1.03" height="0.854"/>
	<rect x="4.712" y="3.503" fill-rule="evenodd" clip-rule="evenodd" fill="#555655" width="1.031" height="0.854"/>
	<rect x="2.955" y="5.932" fill-rule="evenodd" clip-rule="evenodd" fill="#555655" width="2.788" height="0.854"/>
	<path fill-rule="evenodd" clip-rule="evenodd" fill="#555655" d="M16.997,5.024v-4.6c0-0.236-0.193-0.427-0.432-0.427h-5.895
		c-0.024,0-0.048,0.002-0.071,0.005C10.536,0.013,9.287,0.25,8.5,1.481C7.713,0.25,6.464,0.013,6.4,0.002
		C6.377-0.001,6.353-0.003,6.33-0.003H0.435c-0.239,0-0.432,0.191-0.432,0.427v9.693c0,0.235,0.193,0.427,0.432,0.427h5.622
		c1.429,0,2.031,1.164,2.057,1.214c0.008,0.016,0.026,0.023,0.036,0.039c0.018,0.027,0.039,0.045,0.063,0.068
		c0.043,0.041,0.09,0.07,0.146,0.092c0.017,0.006,0.026,0.022,0.044,0.027c0.03,0.006,0.06,0.01,0.089,0.01
		c0.003,0,0.006,0.002,0.009,0.002c0.032,0,0.065-0.004,0.097-0.011c0.021-0.005,0.031-0.024,0.051-0.032
		c0.053-0.02,0.096-0.047,0.138-0.086c0.025-0.023,0.047-0.042,0.066-0.07c0.01-0.016,0.028-0.023,0.036-0.039
		c0.025-0.05,0.626-1.214,2.056-1.214h0.058c0.025,3.016,2.477,5.453,5.499,5.453c3.038,0,5.501-2.463,5.501-5.5
		C22.002,7.628,19.803,5.275,16.997,5.024z M8.068,10.394c-0.456-0.37-1.115-0.704-2.012-0.704H0.867V0.852h5.42
		c0.206,0.045,1.326,0.35,1.782,1.685V10.394z M11.122,5.932v0.854h1.354c-0.73,0.792-1.245,1.786-1.41,2.903h-0.122
		c-0.898,0-1.557,0.334-2.012,0.704V2.536c0.456-1.338,1.582-1.641,1.781-1.685h5.421v4.166c-0.99,0.065-1.904,0.394-2.682,0.914
		H11.122z M19,13h-5v-1h5V13z M19,11h-5v-1h5V11z M19,9h-5V8h5V9z"/>
</g>
</svg>
