<?xml version="1.0" encoding="utf-8"?>
<!-- Generator: Adobe Illustrator 16.0.0, SVG Export Plug-In . SVG Version: 6.00 Build 0)  -->
<!DOCTYPE svg PUBLIC "-//W3C//DTD SVG 1.1//EN" "http://www.w3.org/Graphics/SVG/1.1/DTD/svg11.dtd">
<svg version="1.1" id="Layer_1" xmlns="http://www.w3.org/2000/svg" xmlns:xlink="http://www.w3.org/1999/xlink" x="0px" y="0px"
	 width="12px" height="12px" viewBox="0 0 12 12" enable-background="new 0 0 12 12" xml:space="preserve">
<rect y="2" fill="#808589" width="2" height="2"/>
<rect y="4" fill="#808589" width="2" height="2"/>
<rect y="8" fill="#808589" width="2" height="2"/>
<rect y="10" fill="#808589" width="2" height="2"/>
<rect x="4" y="6" fill="#808589" width="2" height="2"/>
<rect x="4" y="8" fill="#808589" width="2" height="2"/>
<rect x="4" fill="#808589" width="2" height="2"/>
<rect x="4" y="2" fill="#808589" width="2" height="2"/>
<rect x="10" y="6" fill="#808589" width="2" height="2"/>
<rect x="10" y="8" fill="#808589" width="2" height="2"/>
<rect x="10" fill="#808589" width="2" height="2"/>
<rect x="10" y="2" fill="#808589" width="2" height="2"/>
<rect x="6" y="8" fill="#808589" width="2" height="2"/>
<rect x="6" y="10" fill="#808589" width="2" height="2"/>
<rect x="6" y="2" fill="#808589" width="2" height="2"/>
<rect x="6" y="4" fill="#808589" width="2" height="2"/>
<rect x="8" y="10" fill="#808589" width="2" height="2"/>
<rect x="8" fill="#808589" width="2" height="2"/>
<rect x="8" y="4" fill="#808589" width="2" height="2"/>
<rect x="8" y="6" fill="#808589" width="2" height="2"/>
<rect x="2" y="4" fill="#808589" width="2" height="2"/>
<rect x="2" y="6" fill="#808589" width="2" height="2"/>
<rect x="2" y="10" fill="#808589" width="2" height="2"/>
<rect x="2" fill="#808589" width="2" height="2"/>
</svg>
