<?xml version="1.0" encoding="utf-8"?>
<!-- Generator: Adobe Illustrator 21.0.0, SVG Export Plug-In . SVG Version: 6.00 Build 0)  -->
<svg version="1.1" xmlns="http://www.w3.org/2000/svg" xmlns:xlink="http://www.w3.org/1999/xlink" x="0px" y="0px"
	 viewBox="0 0 240.945 158.74" enable-background="new 0 0 240.945 158.74" xml:space="preserve" width="85px" height="55px">
<g id="레이어_1_사본">
</g>
<g id="레이어_2">
	<path fill-rule="evenodd" clip-rule="evenodd" fill="#8DC63F" d="M162.551,61.967c3.039,0,5.503-2.407,5.503-5.378
		c0-2.96-2.464-5.377-5.503-5.377c-3.03,0-5.503,2.417-5.503,5.377C157.048,59.56,159.521,61.967,162.551,61.967"/>
	<path fill-rule="evenodd" clip-rule="evenodd" fill="#8DC63F" d="M180.038,72.674c1.164,1.723,2.278,3.369,3.186,4.732
		c4.831,2.309,8.189,7.226,8.189,12.932c0,7.908-6.434,14.345-14.344,14.345c-7.912,0-14.349-6.437-14.349-14.345
		c0-0.298,0.028-0.596,0.05-0.882h-0.757c-0.147,0.235-1.227,1.982-2.563,4.159c1.537,8.329,8.848,14.657,17.618,14.657
		c9.886,0,17.928-8.044,17.928-17.933C194.997,81.464,188.519,74.093,180.038,72.674"/>
	<path fill-rule="evenodd" clip-rule="evenodd" fill="#8DC63F" d="M153.098,102.482l8.487-13.792h18.385
		c2.122,0,7.336-3.63,4.682-7.786c0,0-11.579-17.33-12.547-18.298c-0.974-0.966-3.983-1.861-6.637-0.092
		c-2.084,1.392-6.445,11.218-6.445,11.218s-4.951,0.093-6.462,0c-1.493-0.084-1.942,5.042-0.085,5.042h9.017l3.361-5.827
		l6.982,10.693h-14.231l-11.138,18.841c-0.631,1.147-0.53,2.806,1.655,2.806C150.299,105.288,151.626,104.339,153.098,102.482"/>
	<rect x="146.439" y="76.026" fill-rule="evenodd" clip-rule="evenodd" fill="#8DC63F" width="16.025" height="4.446"/>
	<polygon fill-rule="evenodd" clip-rule="evenodd" fill="#8DC63F" points="148.219,76.266 146.488,77.481 137.156,64.158 
		138.891,62.935 	"/>
	<path fill-rule="evenodd" clip-rule="evenodd" fill="#88BF43" d="M71.519,120.092c14.116,5.312,31.47,8.418,49.991,8.418
		c48.826,0,88.454-21.497,88.454-48.176c0-13.6-12.561-31.342-44.55-31.342c-23.182,0-43.386,10.231-43.386,22.794
		c0,2.201,1.294,4.663,2.979,6.346c2.591,2.979,3.367,6.604,3.367,9.973c0,15.412-22.924,27.845-51.157,27.845
		c-18.65,0-35.745-5.18-44.164-13.598c-6.735-6.735-8.935-14.376-8.935-22.017c0-29.4,43.645-53.23,97.392-53.23
		c53.876,0,97.522,23.83,97.522,53.23c0,29.397-43.646,53.228-97.522,53.228c-21.24,0-40.925-3.756-56.857-9.972L71.519,120.092z"/>
	<path fill-rule="evenodd" clip-rule="evenodd" fill="#378840" d="M70.877,115.734c14.116,5.311,31.47,8.418,49.991,8.418
		c48.826,0,88.454-21.497,88.454-48.176c0-13.6-12.561-31.342-44.55-31.342c-23.182,0-43.386,10.231-43.386,22.794
		c0,2.201,1.294,4.663,2.979,6.346c2.591,2.979,3.367,6.605,3.367,9.973c0,15.412-22.924,27.845-51.157,27.845
		c-18.65,0-35.745-5.18-44.164-13.598c-6.735-6.736-8.935-14.376-8.935-22.018c0-29.4,43.645-53.23,97.392-53.23
		c53.876,0,97.522,23.83,97.522,53.23c0,29.398-43.646,53.229-97.522,53.229c-21.24,0-40.925-3.756-56.857-9.972L70.877,115.734z"/>
	<g>
		<polygon fill-rule="evenodd" clip-rule="evenodd" fill="#FFFFFF" points="73.482,94.431 65.418,94.431 64.276,67.946 
			47.191,94.431 39.115,94.431 39.044,50.775 49.128,50.775 48.49,78.305 65.825,50.775 73.067,50.775 73.819,78.305 89.832,50.775 
			99.916,50.775 		"/>
		<path fill-rule="evenodd" clip-rule="evenodd" fill="#FFFFFF" d="M106.513,94.782l0.149-7.747H94.472l-4.274,7.747H78.51
			l26.316-43.77h11.531l1.85,43.77H106.513z M107.258,63.91l-8.986,15.929h8.797L107.258,63.91z"/>
	</g>
	
		<ellipse fill-rule="evenodd" clip-rule="evenodd" fill="none" stroke="#88BF43" stroke-width="2" cx="120.472" cy="78.703" rx="120.472" ry="78.53"/>
	<g>
		<path d="M31.022,110.056l2.415,1.758c-1.491,3.363-2.538,5.707-3.142,7.035c-0.418,0.912-0.826,1.781-1.224,2.607l0.028,0.021
			l0.433-0.445c0.712-0.699,1.424-1.39,2.138-2.073c1.255-1.187,2.947-2.766,5.076-4.736l2.372,1.726
			c-1.531,3.377-2.585,5.681-3.162,6.912c-0.4,0.868-0.83,1.758-1.29,2.669l0.057,0.041c0.536-0.537,1.204-1.166,2.004-1.888
			c1.144-1.035,3.097-2.773,5.857-5.211l2.316,1.685l-11.374,9.15l-2.188-1.592c1.469-3.233,2.458-5.389,2.968-6.467
			c0.559-1.186,1.172-2.406,1.838-3.66l-0.014-0.01c-1.058,1.055-2.011,1.977-2.859,2.765c-0.936,0.868-2.722,2.495-5.356,4.881
			l-2.116-1.54L31.022,110.056z"/>
		<path fill="#444444" d="M53.734,127.332l-6.277-3.313l-1.361,2.579l5.749,3.034l-1.124,2.129l-5.749-3.034l-1.673,3.17
			l6.541,3.452l-1.132,2.144l-8.981-4.74l6.43-12.182l8.717,4.601L53.734,127.332z"/>
		<path fill="#444444" d="M56.95,126.13l6.267,2.499c1.349,0.538,2.203,1.32,2.563,2.346c0.281,0.781,0.255,1.59-0.079,2.428
			c-0.321,0.805-0.767,1.371-1.339,1.698c-0.311,0.178-0.724,0.297-1.239,0.357l-0.007,0.016c0.596,0.528,0.941,1.15,1.033,1.868
			c0.081,0.587-0.024,1.246-0.314,1.974c-0.2,0.501-0.498,0.949-0.896,1.345c-0.367,0.383-0.785,0.671-1.252,0.863
			c-0.563,0.242-1.098,0.35-1.605,0.324c-0.681-0.031-1.598-0.277-2.751-0.737l-5.483-2.187L56.95,126.13z M55.233,137.74
			l3.362,1.341c0.653,0.26,1.203,0.303,1.651,0.129c0.474-0.177,0.841-0.592,1.102-1.244c0.204-0.511,0.166-0.986-0.113-1.426
			c-0.235-0.359-0.609-0.64-1.12-0.844l-3.509-1.399L55.233,137.74z M57.459,132.159l3.248,1.295
			c0.533,0.213,1.003,0.267,1.41,0.165c0.459-0.107,0.781-0.395,0.968-0.862c0.208-0.523,0.187-0.959-0.063-1.312
			c-0.216-0.312-0.639-0.595-1.27-0.846l-3.166-1.262L57.459,132.159z"/>
		<path d="M73.773,146.563l-2.866-0.705l8.014-12.214l3.139,0.772l1.37,14.521l-2.935-0.721l-0.19-2.978l-4.931-1.212
			L73.773,146.563z M76.691,141.907l3.395,0.835l-0.355-5.696l-0.051-0.013L76.691,141.907z"/>
		<path fill="#444444" d="M96.331,141.695c-0.072-0.686-0.221-1.214-0.449-1.581c-0.408-0.655-1.099-1.058-2.071-1.209
			c-0.868-0.134-1.638,0.056-2.31,0.568c-0.889,0.693-1.465,1.889-1.728,3.591c-0.204,1.32-0.114,2.43,0.268,3.33
			c0.434,1.027,1.212,1.627,2.335,1.8c0.764,0.118,1.423-0.006,1.977-0.37c0.566-0.363,1-0.948,1.302-1.754l2.796,0.431
			c-0.552,1.503-1.358,2.617-2.418,3.342c-1.154,0.794-2.523,1.068-4.109,0.823c-1.829-0.282-3.188-1.114-4.077-2.496
			c-0.938-1.448-1.231-3.312-0.879-5.593c0.349-2.257,1.205-3.932,2.571-5.025c1.286-1.034,2.82-1.414,4.602-1.139
			c1.794,0.277,3.139,1.048,4.034,2.312c0.717,1.035,1.034,2.169,0.951,3.4L96.331,141.695z"/>
		<path fill="#444444" d="M110.369,143.002c-0.128-0.678-0.321-1.191-0.579-1.538c-0.461-0.619-1.182-0.964-2.164-1.033
			c-0.876-0.062-1.628,0.191-2.255,0.757c-0.829,0.764-1.304,2.004-1.425,3.721c-0.094,1.332,0.087,2.431,0.542,3.297
			c0.517,0.988,1.343,1.521,2.476,1.601c0.771,0.054,1.418-0.123,1.94-0.533c0.533-0.408,0.918-1.027,1.152-1.856l2.821,0.199
			c-0.426,1.544-1.137,2.72-2.133,3.531c-1.084,0.886-2.426,1.273-4.027,1.16c-1.846-0.13-3.269-0.847-4.269-2.15
			c-1.055-1.366-1.501-3.199-1.338-5.502c0.161-2.278,0.876-4.018,2.147-5.22c1.196-1.136,2.693-1.641,4.492-1.515
			c1.811,0.127,3.215,0.784,4.212,1.97c0.8,0.973,1.21,2.076,1.229,3.31L110.369,143.002z"/>
		<path fill="#444444" d="M125.664,141.032l-7.097,0.075l0.031,2.916l6.5-0.069l0.025,2.407l-6.5,0.068l0.038,3.584l7.396-0.078
			l0.026,2.424l-10.154,0.107l-0.146-13.773l9.856-0.104L125.664,141.032z"/>
		<path fill="#444444" d="M131.054,147.853c0.055,0.548,0.254,0.984,0.597,1.31c0.521,0.499,1.33,0.706,2.428,0.619
			c0.782-0.062,1.399-0.222,1.848-0.481c0.584-0.339,0.851-0.831,0.801-1.473c-0.039-0.49-0.296-0.851-0.773-1.084
			c-0.342-0.161-0.934-0.297-1.777-0.407l-1.465-0.254c-0.738-0.119-1.28-0.216-1.627-0.295c-0.563-0.144-1.03-0.324-1.399-0.542
			c-0.457-0.269-0.807-0.617-1.052-1.045c-0.274-0.484-0.438-1.082-0.494-1.794c-0.094-1.05,0.144-1.968,0.717-2.753
			c0.806-1.097,2.167-1.722,4.082-1.873c1.81-0.142,3.224,0.281,4.242,1.269c0.764,0.739,1.2,1.656,1.31,2.752l-2.645,0.208
			c-0.111-0.52-0.307-0.921-0.588-1.205c-0.509-0.489-1.288-0.691-2.339-0.609c-0.619,0.049-1.129,0.206-1.531,0.473
			c-0.491,0.333-0.714,0.779-0.67,1.339c0.035,0.444,0.219,0.77,0.552,0.979c0.198,0.125,0.512,0.23,0.941,0.314l0.036,0.014
			l3.342,0.583c1.106,0.171,1.94,0.458,2.5,0.86c0.772,0.55,1.203,1.397,1.293,2.541c0.137,1.74-0.499,3.048-1.911,3.922
			c-0.862,0.538-1.865,0.852-3.009,0.942c-2.161,0.17-3.769-0.261-4.825-1.294c-0.751-0.727-1.171-1.663-1.261-2.808
			L131.054,147.853z"/>
		<path fill="#444444" d="M144.751,146.462c0.098,0.542,0.331,0.961,0.698,1.259c0.559,0.457,1.382,0.599,2.47,0.426
			c0.774-0.123,1.377-0.331,1.804-0.624c0.555-0.385,0.783-0.895,0.682-1.532c-0.077-0.486-0.363-0.826-0.856-1.02
			c-0.353-0.133-0.954-0.222-1.803-0.265l-1.481-0.139c-0.745-0.06-1.293-0.115-1.645-0.166c-0.573-0.098-1.052-0.242-1.438-0.43
			c-0.476-0.233-0.852-0.552-1.131-0.959c-0.31-0.461-0.521-1.044-0.633-1.749c-0.177-1.04-0.011-1.973,0.498-2.801
			c0.718-1.158,2.025-1.887,3.922-2.189c1.793-0.284,3.236,0.026,4.329,0.932c0.818,0.676,1.326,1.557,1.522,2.64l-2.62,0.417
			c-0.152-0.509-0.38-0.895-0.681-1.155c-0.546-0.447-1.339-0.588-2.38-0.422c-0.613,0.097-1.11,0.295-1.489,0.592
			c-0.463,0.37-0.651,0.833-0.562,1.388c0.069,0.44,0.279,0.75,0.627,0.932c0.207,0.109,0.528,0.189,0.964,0.238l0.037,0.012
			l3.377,0.318c1.116,0.083,1.97,0.304,2.559,0.661c0.813,0.488,1.31,1.298,1.49,2.432c0.274,1.724-0.258,3.077-1.597,4.06
			c-0.818,0.604-1.793,0.996-2.926,1.177c-2.141,0.339-3.777,0.036-4.912-0.91c-0.806-0.666-1.298-1.566-1.478-2.7L144.751,146.462z
			"/>
		<path fill="#444444" d="M160.048,147.9l-2.743,0.612l-2.999-13.443l2.743-0.612L160.048,147.9z"/>
		<path fill="#444444" d="M160.233,133.776l6.47-1.911c1.393-0.412,2.548-0.326,3.465,0.259c0.703,0.439,1.184,1.091,1.439,1.956
			c0.246,0.831,0.245,1.552-0.002,2.163c-0.134,0.333-0.385,0.681-0.754,1.047l0.005,0.017c0.796,0.046,1.451,0.322,1.968,0.829
			c0.427,0.412,0.751,0.993,0.974,1.746c0.152,0.517,0.194,1.054,0.127,1.611c-0.051,0.528-0.201,1.012-0.45,1.452
			c-0.293,0.538-0.646,0.954-1.06,1.247c-0.555,0.396-1.428,0.77-2.618,1.122l-5.661,1.673L160.233,133.776z M164.362,138.199
			l3.353-0.991c0.55-0.162,0.953-0.41,1.21-0.742c0.294-0.368,0.37-0.793,0.228-1.276c-0.159-0.539-0.447-0.869-0.861-0.991
			c-0.363-0.112-0.871-0.072-1.522,0.12l-3.268,0.966L164.362,138.199z M166.064,143.962l3.471-1.026
			c0.674-0.199,1.133-0.506,1.377-0.92c0.263-0.432,0.296-0.984,0.096-1.659c-0.156-0.528-0.479-0.878-0.97-1.05
			c-0.407-0.136-0.873-0.127-1.402,0.029l-3.622,1.071L166.064,143.962z"/>
		<path fill="#444444" d="M181.12,141.447l-2.63,0.991l-4.853-12.891l2.63-0.991L181.12,141.447z"/>
		<path fill="#444444" d="M186.509,136.508l6.035-2.772l1.042,2.267l-8.589,3.945l-5.749-12.517l2.555-1.173L186.509,136.508z"/>
		<path fill="#444444" d="M199.074,132.944l-2.456,1.368l-6.701-12.034l2.456-1.368L199.074,132.944z"/>
		<path fill="#444444" d="M207.889,127.362l-2.322,1.584l-6.384-9.362l-3.426,2.336l-1.375-2.017l9.173-6.256l1.376,2.017
			l-3.425,2.336L207.889,127.362z"/>
		<path fill="#444444" d="M219.035,118.297l-2.071,1.9l-3.515-3.832l-9.304-3.102l2.435-2.233l6.209,2.482l-2.131-6.223l2.332-2.137
			l2.566,9.35L219.035,118.297z"/>
	</g>
	<path fill="#388840" d="M23.475,16.973"/>
	<g>
		<g>
			<path fill="#388840" d="M43.277,32.333c-0.893-2.232-1.768-3.799-2.531-5.074l-5.332,3.19l-0.977-1.633l7.347-4.396l0.698,1.166
				c0.828,1.384,1.87,3.125,2.897,5.721L43.277,32.333z M43.231,34.789c1.352-0.872,2.691-1.8,3.9-2.734l0.993,1.412
				c-2.601,2.232-5.757,4.205-8.228,5.704l-1.191-1.568c0.791-0.473,1.659-0.992,2.548-1.546l-2.531-4.23l2.015-1.206L43.231,34.789
				z M50.596,27.363l-1.922,1.15l4.094,6.841l-2.046,1.225l-8.569-14.321l2.046-1.224l3.452,5.769l1.922-1.15L50.596,27.363z"/>
			<path fill="#388840" d="M62.161,16.861l-9.14,3.513l-0.676-1.759l3.44-1.322l-0.559-1.454l2.243-0.862l0.559,1.454l3.457-1.328
				L62.161,16.861z M59.983,24.84c-2.226,0.856-4.26,0.298-4.916-1.41c-0.65-1.691,0.487-3.467,2.713-4.323
				c2.243-0.862,4.26-0.298,4.91,1.394C63.346,22.209,62.226,23.978,59.983,24.84z M59.333,23.149
				c0.995-0.382,1.537-1.037,1.231-1.832c-0.299-0.778-1.14-0.901-2.135-0.519c-1.012,0.389-1.537,1.037-1.238,1.815
				C57.497,23.408,58.321,23.538,59.333,23.149z M57.688,26.926l10.354-3.979l1.996,5.192l-2.226,0.855l-1.307-3.399l-8.128,3.124
				L57.688,26.926z M68.351,17.607l-2.057,0.791l1.502,3.907l-2.226,0.856l-3.751-9.758l2.226-0.856l1.54,4.008l2.057-0.791
				L68.351,17.607z"/>
			<path fill="#388840" d="M80.765,9.718c1.17,4.974,0.453,9.423-4.64,13.563l-1.644-1.549c3.662-2.965,4.858-5.927,4.346-9.604
				l-5.397,1.27l-0.435-1.852L80.765,9.718z M85.184,6.891l3.82,16.244l-2.338,0.55l-3.82-16.244L85.184,6.891z"/>
			<path fill="#388840" d="M101.729,13.035l0.122,1.062l4.488-0.512l0.492,4.302l-9.047,1.033l0.107,0.936l9.478-1.082l0.203,1.782
				l-11.83,1.35l-0.498-4.356l9.065-1.035l-0.103-0.9l-9.083,1.037l-0.202-1.764l4.56-0.52l-0.121-1.062l-6.265,0.715l-0.214-1.872
				l14.936-1.705l0.214,1.872L101.729,13.035z M106.212,9.934c-2.889,0.02-5.059-0.827-6.273-2.22
				c-0.868,1.631-2.809,2.947-5.628,3.578l-0.976-1.694c3.675-0.784,5.278-2.663,5.095-4.265l-0.035-0.306l2.441-0.279l0.035,0.306
				c0.183,1.602,2.169,3.071,5.927,3.007L106.212,9.934z"/>
			<path fill="#388840" d="M121.756,13.025c-1.812-0.581-3.069-1.747-3.805-3.208c-0.707,1.692-2.012,3.063-3.939,3.733
				l-1.227-1.873c2.628-0.948,3.818-3.08,3.871-5.164l-3.268,0.03l-0.018-1.92l8.939-0.082l0.018,1.92l-3.233,0.03
				c0.09,1.902,1.264,3.848,3.8,4.658L121.756,13.025z M126.903,17c0.019,2.029-2.138,3.227-5.659,3.26
				c-3.54,0.033-5.717-1.125-5.736-3.154c-0.019-2.029,2.138-3.227,5.677-3.26C124.707,13.813,126.885,14.971,126.903,17z
				 M124.52,17.022c-0.009-0.942-1.151-1.385-3.317-1.365c-2.185,0.02-3.319,0.484-3.31,1.426c0.009,0.942,1.15,1.385,3.336,1.364
				C123.395,18.428,124.528,17.965,124.52,17.022z M124.36,7.547l-0.037-4.022l2.384-0.022l0.092,9.929l-2.384,0.022l-0.037-3.968
				l-2.492,0.023l-0.018-1.939L124.36,7.547z"/>
			<path fill="#388840" d="M147.326,18.034l-0.195,1.929l-14.988-1.512l0.195-1.929l6.29,0.635l0.308-3.047l-4.708-0.475
				l0.877-8.672l2.354,0.237l-0.261,2.578l7.081,0.715l0.26-2.578l2.337,0.236l-0.877,8.672l-4.691-0.473L141,17.396L147.326,18.034
				z M136.774,11.979l7.081,0.715l0.235-2.326l-7.08-0.715L136.774,11.979z"/>
			<path fill="#388840" d="M167.199,17.831l-0.401,1.823l-14.692-3.234l0.401-1.823l6.173,1.359l0.222-1.009l-4.339-0.955
				l1.533-6.972l11.182,2.462l-0.389,1.77l-8.872-1.953l-0.187,0.85l8.501,1.871l-0.374,1.699l-8.502-1.871l-0.194,0.885l8.995,1.98
				l-0.389,1.77l-4.639-1.021l-0.222,1.009L167.199,17.831z M164.322,22.67c-0.382,1.734-2.651,2.218-6.231,1.43
				c-3.563-0.784-5.421-2.176-5.039-3.911c0.385-1.752,2.652-2.218,6.214-1.433C162.846,19.544,164.707,20.919,164.322,22.67z
				 M161.976,22.154c0.147-0.672-0.831-1.185-3.088-1.682c-2.24-0.493-3.343-0.439-3.491,0.233
				c-0.148,0.673,0.826,1.203,3.066,1.695C160.722,22.898,161.828,22.827,161.976,22.154z"/>
			<path fill="#388840" d="M183.314,29.589l-0.653,1.787l-10.794-3.941l1.846-5.055l2.24,0.818l-1.193,3.268L183.314,29.589z
				 M180.035,23.241c-1.513-1.228-2.279-2.819-2.423-4.531c-1.291,1.323-2.979,2.153-5.025,2.12l-0.484-2.202
				c2.92,0.063,4.842-1.724,5.6-3.8l0.56-1.532l2.274,0.83l-0.56,1.532c-0.752,2.059-0.399,4.464,1.848,6.211L180.035,23.241z
				 M183.719,27.268l-2.258-0.824l4.171-11.42l2.258,0.824L183.719,27.268z"/>
			<path fill="#388840" d="M202.379,36.346l-5.561-3.158l-2.569,4.522l-2.073-1.178l2.569-4.522l-5.466-3.105l0.94-1.654
				l13.099,7.441L202.379,36.346z M202.542,32.438l-10.052-5.71l3.652-6.428l2.057,1.169l-0.94,1.654l5.953,3.381l0.94-1.654
				l2.042,1.16L202.542,32.438z M202.291,28.127l-5.953-3.381l-0.851,1.497l5.953,3.381L202.291,28.127z"/>
		</g>
	</g>
</g>
</svg>
