<?xml version="1.0" encoding="utf-8"?>
<!-- Generator: Adobe Illustrator 16.0.0, SVG Export Plug-In . SVG Version: 6.00 Build 0)  -->
<!DOCTYPE svg PUBLIC "-//W3C//DTD SVG 1.1//EN" "http://www.w3.org/Graphics/SVG/1.1/DTD/svg11.dtd">
<svg version="1.1" id="Layer_1" xmlns="http://www.w3.org/2000/svg" xmlns:xlink="http://www.w3.org/1999/xlink" x="0px" y="0px"
	 width="250px" height="250px" viewBox="0 0 250 250" enable-background="new 0 0 250 250" xml:space="preserve">
<g enable-background="new    ">
	<g>
		<defs>
			<rect id="SVGID_1_" x="14.584" width="220.832" height="250"/>
		</defs>
		<clipPath id="SVGID_2_">
			<use xlink:href="#SVGID_1_"  overflow="visible"/>
		</clipPath>
		<path clip-path="url(#SVGID_2_)" fill="#FFFFFF" d="M187.484,10.835c-5.021-10.817-20.963-14.086-35.615-7.291
			c-14.672,6.789-22.492,21.076-17.482,31.89c5.023,10.818,20.979,14.087,35.639,7.288C184.678,35.94,192.498,21.654,187.484,10.835
			"/>
	</g>
	<g>
		<defs>
			<rect id="SVGID_3_" x="14.584" width="220.832" height="250"/>
		</defs>
		<clipPath id="SVGID_4_">
			<use xlink:href="#SVGID_3_"  overflow="visible"/>
		</clipPath>
		<path clip-path="url(#SVGID_4_)" fill="#FFFFFF" d="M147.563,224.271c5.092-1.819-12.719,6.699-17.301,9.106
			c-14.092,7.388-31.014,11.409-44.077,14.208c-26.118,5.575-48.632,1.616-61.337-13.186C-0.57,204.791,22.85,143.02,77.16,96.407
			c27.144-23.311,56.875-38.41,82.994-43.976c13.063-2.797,25.223-3.191,35.699-1.061c0,0,29.362,4.889,15.039,40.893
			c0,0-37.306,81.112-142.239,125.846c0,0,67.311-47.211,99.78-106.133c0,0,25.772-42.468-13.652-41.706c0,0-16.77-0.126-42.694,15
			c-22.875,12.532-51.725,35.429-67.445,75.021c0,0-27.093,64.65,47.962,71.471C92.605,231.762,119.736,234.216,147.563,224.271"/>
	</g>
	<g>
		<defs>
			<rect id="SVGID_5_" x="14.584" width="220.832" height="250"/>
		</defs>
		<clipPath id="SVGID_6_">
			<use xlink:href="#SVGID_5_"  overflow="visible"/>
		</clipPath>
		<path clip-path="url(#SVGID_6_)" fill="#FFFFFF" d="M207.104,111.099c-4.201,6.269-12.416,18.226-20.686,28.625
			c9.604,0.781,19.043,3.355,12.311,22.092c0,0-11.112,28.774-43.553,57.879c0,0,54.799-31.893,74.465-73.815
			C229.641,145.879,252.551,101.598,207.104,111.099"/>
	</g>
</g>
</svg>
