<?xml version="1.0" encoding="utf-8"?>
<!-- Generator: Adobe Illustrator 16.0.0, SVG Export Plug-In . SVG Version: 6.00 Build 0)  -->
<!DOCTYPE svg PUBLIC "-//W3C//DTD SVG 1.1//EN" "http://www.w3.org/Graphics/SVG/1.1/DTD/svg11.dtd">
<svg version="1.1" id="Layer_1" xmlns="http://www.w3.org/2000/svg" xmlns:xlink="http://www.w3.org/1999/xlink" x="0px" y="0px"
	 width="60px" height="60px" viewBox="0 0 60 60" enable-background="new 0 0 60 60" xml:space="preserve">
<g>
	<g>
		<path fill="#B7E1E5" d="M35.033,33.88l-3.444-2.014l-7.004-4.09h-8.153L5.982,33.88c0,0-3.71,1.57-3.817,6.935l0.213,18.417
			l36.477-0.074l0.001-18.343C38.748,35.45,35.033,33.88,35.033,33.88z"/>
		<path fill="#232728" d="M2.378,59.866c-0.348,0-0.631-0.279-0.635-0.627L1.53,40.823c0.113-5.731,4.038-7.458,4.205-7.528
			l10.377-6.066c0.097-0.058,0.208-0.087,0.32-0.087h8.153c0.112,0,0.224,0.029,0.32,0.087l10.45,6.104
			c0.093,0.032,4.022,1.759,4.136,7.47l-0.001,18.354c0,0.351-0.283,0.635-0.634,0.635L2.38,59.866
			C2.379,59.866,2.378,59.866,2.378,59.866z M16.604,28.411L6.302,34.429c-0.206,0.094-3.405,1.543-3.502,6.398l0.206,17.769
			l35.214-0.072V40.814c-0.096-4.843-3.301-6.292-3.437-6.352l-10.371-6.052H16.604z"/>
	</g>
	<g>
		<path fill="#EFECEA" d="M29.388,12.548c-0.047-0.006-0.093,0.01-0.142,0.018c-0.08-0.759-0.2-1.488-0.369-2.184
			c-0.923-3.798-3.269-6.432-8.13-6.432c-5.467,0-7.896,3.675-8.477,8.604c-0.013,0-0.025-0.007-0.035-0.006
			c-1.403,0.193-1.469,1.369-1.277,2.936c0.206,1.603,0.793,2.596,1.493,2.604c0.448,2.055,1.338,3.868,2.534,5.254
			c0.256,1.265,0.802,5.089-1.438,7.043l14.353,0.065c0,0-2.202-2.688-1.707-6.762c1.359-1.431,2.369-3.378,2.855-5.618
			c0.035,0.005,0.071,0.02,0.112,0.02c0.701,0,1.298-0.998,1.5-2.605C30.855,13.917,30.791,12.741,29.388,12.548z"/>
		<path fill="#232728" d="M29.247,31.091l-17.383-0.08l1.268-1.105c1.911-1.668,1.494-5.049,1.264-6.28
			c-1.148-1.374-1.997-3.096-2.471-5.009c-0.804-0.33-1.384-1.42-1.594-3.052c-0.124-1.007-0.37-3.016,1.372-3.549
			c0.812-5.694,3.932-8.7,9.047-8.7c4.688,0,7.631,2.327,8.746,6.917c0.135,0.551,0.243,1.139,0.324,1.755
			c1.856,0.487,1.601,2.552,1.474,3.574c-0.218,1.729-0.853,2.849-1.731,3.105c-0.52,2.061-1.467,3.881-2.76,5.299
			c-0.362,3.648,1.57,6.057,1.59,6.081L29.247,31.091z M14.904,29.755l11.831,0.055c-0.658-1.207-1.513-3.39-1.172-6.198
			l0.025-0.209l0.145-0.152c1.307-1.374,2.239-3.213,2.695-5.316l0.128-0.588l0.68,0.114c0.132-0.007,0.616-0.625,0.796-2.056
			c0.23-1.866-0.104-2.126-0.658-2.217l-0.622,0.12l-0.137-0.676c-0.078-0.746-0.196-1.453-0.354-2.1
			c-0.973-4.002-3.43-5.947-7.513-5.947c-4.578,0-7.217,2.706-7.846,8.044l-0.066,0.561h-0.595
			c-0.549,0.092-0.879,0.361-0.652,2.217c0.2,1.555,0.708,2.044,0.87,2.046l0.506,0.005l0.107,0.494
			c0.42,1.927,1.249,3.646,2.395,4.975l0.109,0.126l0.033,0.163C15.879,24.557,16.267,27.565,14.904,29.755z"/>
	</g>
	<g>
		<polygon fill="#EFECEA" points="15.214,26.593 20.783,29.661 26.313,26.831 28.611,29.874 26.249,34.419 20.854,30.285 
			15.284,33.944 12.834,29.806 		"/>
		<path fill="#232728" d="M26.249,35.054c-0.139,0-0.275-0.045-0.387-0.131l-5.037-3.859l-5.193,3.412
			c-0.146,0.094-0.325,0.126-0.492,0.087c-0.169-0.04-0.314-0.146-0.403-0.296l-2.45-4.139c-0.129-0.219-0.115-0.495,0.037-0.701
			l2.38-3.212c0.189-0.256,0.54-0.331,0.817-0.178l5.272,2.905l5.23-2.677c0.271-0.14,0.61-0.063,0.796,0.184l2.298,3.043
			c0.146,0.195,0.17,0.458,0.056,0.676l-2.362,4.545c-0.086,0.166-0.242,0.285-0.425,0.326
			C26.339,35.049,26.293,35.054,26.249,35.054z M21.521,29.997l4.513,3.458l1.829-3.518l-1.734-2.298L21.521,29.997z M13.595,29.845
			l1.896,3.203l4.618-3.033l-4.716-2.598L13.595,29.845z"/>
	</g>
	<g>
		<path fill="#7C90A5" d="M23.45,6.874c0,0-6.659,2.059-10.349,6.553l-0.198,1.729l-0.359-1.763c0,0-0.785-1.172-1.402-0.094
			c0,0-1.598-4.29,1.824-8.252c0,0,2.888-5.233,10.145-4.302c0,0,10.362,2.047,7.461,13.038c0,0-0.614-1.89-1.59-0.554l-0.46,1.96
			l0.163-2.777C28.684,12.413,27.114,6.722,23.45,6.874z"/>
		<path fill="#232728" d="M28.521,15.825c-0.03,0-0.062-0.001-0.092-0.006c-0.326-0.048-0.562-0.337-0.543-0.666l0.157-2.666
			c-0.215-0.699-1.649-4.981-4.45-4.981l-0.037,0.001c-0.75,0.247-6.519,2.246-9.846,6.181l-0.177,1.541
			c-0.036,0.31-0.291,0.549-0.603,0.562c-0.314,0.022-0.586-0.201-0.65-0.508l-0.329-1.618c-0.061-0.068-0.133-0.135-0.186-0.167
			c-0.01,0.021-0.038,0.059-0.072,0.118c-0.124,0.214-0.362,0.336-0.604,0.317c-0.246-0.02-0.457-0.18-0.543-0.411
			c-0.07-0.188-1.675-4.657,1.898-8.843C12.788,4.099,15.419,0,21.418,0c0.576,0,1.172,0.039,1.773,0.116
			c0.231,0.044,4.719,0.97,7.105,4.784c1.529,2.445,1.829,5.489,0.889,9.046c-0.072,0.272-0.314,0.465-0.597,0.473
			c-0.268,0.015-0.535-0.17-0.622-0.438c-0.071-0.213-0.209-0.461-0.309-0.563c-0.022,0.02-0.055,0.05-0.093,0.095l-0.427,1.824
			C29.071,15.626,28.812,15.825,28.521,15.825z M11.745,12.209c0.481,0,0.862,0.299,1.094,0.544c3.8-4.4,10.15-6.401,10.424-6.485
			c0.052-0.017,0.106-0.026,0.161-0.028l0.17-0.003c3.833,0,5.495,5.294,5.686,5.949c0.335-0.121,0.702-0.064,0.973,0.095
			c0.458-2.625,0.112-4.876-1.033-6.706c-2.098-3.354-6.191-4.197-6.232-4.205c-0.505-0.063-1.047-0.1-1.569-0.1
			c-5.578,0-7.875,4.044-7.897,4.085C13.5,5.394,13.475,5.43,13.446,5.463c-2.266,2.623-2.159,5.406-1.918,6.767
			C11.605,12.215,11.678,12.209,11.745,12.209z"/>
	</g>
	<g>
		<polygon fill="#F7AB72" points="55.448,41.522 47.266,41.522 47.266,39.123 45.535,39.123 45.535,41.522 38.618,41.522 
			38.618,39.232 36.89,39.232 36.89,41.522 28.413,41.522 27.314,59.365 57.051,59.365 		"/>
		<path fill="#232728" d="M57.051,60H27.314c-0.175,0-0.342-0.072-0.462-0.199c-0.121-0.128-0.183-0.299-0.172-0.473l1.099-17.846
			c0.021-0.333,0.298-0.595,0.634-0.595h7.841v-1.655c0-0.351,0.285-0.635,0.636-0.635h1.729c0.351,0,0.635,0.284,0.635,0.635v1.655
			H44.9v-1.765c0-0.35,0.283-0.635,0.635-0.635h1.73c0.35,0,0.635,0.285,0.635,0.635v1.765h7.548c0.329,0,0.603,0.25,0.632,0.577
			l1.604,17.845c0.016,0.177-0.044,0.354-0.164,0.484C57.399,59.926,57.229,60,57.051,60z M27.99,58.729h28.367l-1.489-16.572
			h-7.602c-0.351,0-0.635-0.284-0.635-0.635v-1.765H46.17v1.765c0,0.351-0.285,0.635-0.635,0.635h-6.917
			c-0.351,0-0.636-0.284-0.636-0.635v-1.655h-0.458v1.655c0,0.351-0.285,0.635-0.635,0.635h-7.88L27.99,58.729z"/>
	</g>
	<g>
		<rect x="36.301" y="45.056" fill="#EFECEA" width="2.433" height="1.923"/>
		<path fill="#232728" d="M38.733,47.297h-2.433c-0.175,0-0.318-0.143-0.318-0.318v-1.923c0-0.176,0.144-0.317,0.318-0.317h2.433
			c0.176,0,0.318,0.142,0.318,0.317v1.923C39.052,47.154,38.909,47.297,38.733,47.297z M36.618,46.661h1.798v-1.288h-1.798V46.661z"
			/>
	</g>
	<g>
		<rect x="41.057" y="45.044" fill="#EFECEA" width="2.433" height="1.924"/>
		<path fill="#232728" d="M43.489,47.285h-2.433c-0.175,0-0.316-0.143-0.316-0.317v-1.924c0-0.175,0.142-0.317,0.316-0.317h2.433
			c0.176,0,0.317,0.143,0.317,0.317v1.924C43.807,47.143,43.665,47.285,43.489,47.285z M41.375,46.649h1.797v-1.287h-1.797V46.649z"
			/>
	</g>
	<g>
		<rect x="45.753" y="44.969" fill="#EFECEA" width="2.434" height="1.921"/>
		<path fill="#232728" d="M48.187,47.207h-2.434c-0.176,0-0.317-0.143-0.317-0.317v-1.921c0-0.176,0.142-0.318,0.317-0.318h2.434
			c0.175,0,0.316,0.143,0.316,0.318v1.921C48.503,47.064,48.361,47.207,48.187,47.207z M46.07,46.572h1.798v-1.287H46.07V46.572z"/>
	</g>
	<g>
		<rect x="36.236" y="48.963" fill="#EFECEA" width="2.434" height="1.92"/>
		<path fill="#232728" d="M38.67,51.2h-2.434c-0.175,0-0.316-0.142-0.316-0.317v-1.92c0-0.176,0.142-0.317,0.316-0.317h2.434
			c0.176,0,0.317,0.142,0.317,0.317v1.92C38.987,51.059,38.846,51.2,38.67,51.2z M36.555,50.565h1.798V49.28h-1.798V50.565z"/>
	</g>
	<g>
		<rect x="40.992" y="48.95" fill="#EFECEA" width="2.433" height="1.923"/>
		<path fill="#232728" d="M43.425,51.19h-2.433c-0.176,0-0.318-0.143-0.318-0.317V48.95c0-0.176,0.143-0.317,0.318-0.317h2.433
			c0.175,0,0.317,0.142,0.317,0.317v1.923C43.742,51.048,43.6,51.19,43.425,51.19z M41.309,50.556h1.799v-1.288h-1.799V50.556z"/>
	</g>
	<g>
		<rect x="45.688" y="48.874" fill="#EFECEA" width="2.435" height="1.921"/>
		<path fill="#232728" d="M48.123,51.113h-2.435c-0.175,0-0.316-0.144-0.316-0.318v-1.921c0-0.176,0.142-0.317,0.316-0.317h2.435
			c0.176,0,0.317,0.142,0.317,0.317v1.921C48.44,50.97,48.299,51.113,48.123,51.113z M46.007,50.478h1.799v-1.286h-1.799V50.478z"/>
	</g>
	<g>
		<rect x="36.301" y="52.948" fill="#EFECEA" width="2.433" height="1.921"/>
		<path fill="#232728" d="M38.733,55.187h-2.433c-0.175,0-0.318-0.142-0.318-0.317v-1.921c0-0.176,0.144-0.317,0.318-0.317h2.433
			c0.176,0,0.318,0.142,0.318,0.317v1.921C39.052,55.045,38.909,55.187,38.733,55.187z M36.618,54.552h1.798v-1.286h-1.798V54.552z"
			/>
	</g>
	<g>
		<rect x="41.056" y="52.937" fill="#EFECEA" width="2.434" height="1.921"/>
		<path fill="#232728" d="M43.489,55.176h-2.434c-0.175,0-0.316-0.143-0.316-0.318v-1.921c0-0.175,0.142-0.317,0.316-0.317h2.434
			c0.176,0,0.317,0.143,0.317,0.317v1.921C43.807,55.033,43.665,55.176,43.489,55.176z M41.374,54.54h1.798v-1.286h-1.798V54.54z"/>
	</g>
	<g>
		<rect x="45.753" y="52.86" fill="#EFECEA" width="2.434" height="1.92"/>
		<path fill="#232728" d="M48.187,55.098h-2.434c-0.176,0-0.317-0.143-0.317-0.317v-1.92c0-0.175,0.142-0.317,0.317-0.317h2.434
			c0.175,0,0.316,0.143,0.316,0.317v1.92C48.503,54.955,48.361,55.098,48.187,55.098z M46.07,54.463h1.798v-1.285H46.07V54.463z"/>
	</g>
	<g>
		<path fill="#7DC0DB" d="M56.805,42.777l1.004-3.776c0,0,0.597-4.276-3.365-6.059c0,0-11.989-5.715-20.938-4.287
			c0,0-3.345,0.223-4.367,2.624l-0.809,4.435l0.008,0.002c-0.01,0.029-0.023,0.06-0.029,0.093c-0.115,0.646,1.398,1.453,3.376,1.801
			c1.964,0.348,3.647,0.113,3.784-0.521h0.003v-0.012c0.002,0,0.003-0.002,0.004-0.002c0-0.001-0.001-0.005,0-0.007l0.445-3.203
			c0,0,5.38-1.838,15.099,3.146l-1.136,3.553c-0.21,0.622,1.161,1.646,3.062,2.294c1.905,0.646,3.619,0.666,3.829,0.046
			c0.015-0.043,0.021-0.084,0.021-0.13L56.805,42.777z"/>
		<path fill="#232728" d="M55.55,43.99c-0.799,0-1.796-0.189-2.809-0.532c-2.011-0.685-3.86-1.905-3.459-3.099l0.967-3.026
			c-7.651-3.804-12.438-3.236-13.759-2.958l-0.383,2.756c-0.005,0.058-0.018,0.114-0.038,0.167c-0.21,0.726-1.125,1.108-2.655,1.108
			c-0.572,0-1.209-0.061-1.841-0.173c-1.382-0.242-3.074-0.808-3.673-1.666c-0.244-0.351-0.253-0.666-0.217-0.87
			c0.003-0.015,0.01-0.041,0.018-0.071c0.001-0.008,0.003-0.016,0.004-0.026l0.809-4.435c0.009-0.046,0.022-0.092,0.04-0.134
			c1.161-2.73,4.756-2.999,4.91-3.01c0.927-0.15,1.995-0.23,3.116-0.23c8.436,0,17.744,4.391,18.137,4.577
			c4.333,1.95,3.729,6.674,3.723,6.72l-1.021,3.854c-0.001,0.005-0.002,0.009-0.003,0.013c-0.009,0.052-0.021,0.102-0.037,0.148
			C57.24,43.51,56.812,43.99,55.55,43.99z M50.507,40.699c0.13,0.282,1.004,1,2.644,1.556c0.87,0.296,1.745,0.465,2.399,0.465
			c0.342,0,0.537-0.046,0.626-0.081c0.009-0.08,0.031-0.15,0.066-0.215l0.953-3.586c0.006-0.079,0.452-3.757-3.013-5.317
			c-0.105-0.05-9.459-4.459-17.604-4.459c-1.055,0-2.055,0.074-2.975,0.221c-0.085,0.009-2.968,0.233-3.856,2.185l-0.777,4.269
			c-0.001,0.043-0.006,0.086-0.016,0.129c0.197,0.267,1.167,0.825,2.838,1.119c0.561,0.1,1.12,0.152,1.62,0.152
			c0.901,0,1.326-0.162,1.444-0.244l0.433-3.113c0.033-0.237,0.197-0.436,0.424-0.514c0.101-0.036,5.562-1.965,15.594,3.181
			c0.277,0.142,0.41,0.462,0.316,0.759L50.507,40.699z"/>
	</g>
	<g>
		<polygon fill="#7DC0DB" points="20.082,30.271 21.785,30.271 23.328,31.747 21.842,34.452 20.135,34.452 18.375,31.96 		"/>
		<path fill="#232728" d="M21.842,35.087h-1.707c-0.207,0-0.399-0.101-0.519-0.27l-1.76-2.49c-0.18-0.254-0.149-0.6,0.072-0.817
			l1.706-1.69c0.118-0.117,0.279-0.184,0.447-0.184h1.704c0.164,0,0.321,0.063,0.439,0.176l1.542,1.476
			c0.208,0.199,0.256,0.513,0.118,0.765l-1.485,2.705C22.287,34.96,22.073,35.087,21.842,35.087z M20.464,33.817h1.002l1.069-1.949
			l-1.006-0.963h-1.188l-1.138,1.128L20.464,33.817z"/>
	</g>
	<g>
		<polygon fill="#7DC0DB" points="20.135,34.452 21.842,34.452 23.359,44.22 21.067,51.146 18.471,44.016 		"/>
		<path fill="#232728" d="M21.067,51.781c-0.266,0-0.505-0.167-0.597-0.417l-2.597-7.132c-0.038-0.104-0.048-0.217-0.029-0.325
			l1.665-9.564c0.053-0.304,0.317-0.525,0.626-0.525h1.707c0.313,0,0.579,0.228,0.627,0.536l1.517,9.768
			c0.016,0.1,0.006,0.201-0.025,0.297l-2.292,6.928c-0.085,0.257-0.324,0.432-0.594,0.436
			C21.074,51.781,21.071,51.781,21.067,51.781z M19.125,43.958l1.913,5.253l1.67-5.046l-1.411-9.078h-0.629L19.125,43.958z"/>
	</g>
	<g>
		<polygon fill="#F2DD86" points="49.598,25.653 54.278,22.074 51.762,18.591 57.525,15.714 54.391,19.204 57.111,23.108 		"/>
		<path fill="#232728" d="M49.598,26.076c-0.152,0-0.298-0.083-0.373-0.224c-0.098-0.184-0.049-0.41,0.116-0.535l4.354-3.329
			l-2.275-3.149c-0.073-0.102-0.099-0.229-0.068-0.35s0.111-0.222,0.222-0.277l5.764-2.877c0.181-0.09,0.403-0.041,0.525,0.122
			c0.124,0.161,0.115,0.388-0.021,0.539l-2.911,3.241l2.529,3.63c0.075,0.109,0.096,0.247,0.055,0.373
			c-0.042,0.127-0.141,0.227-0.267,0.27l-7.513,2.545C49.688,26.069,49.644,26.076,49.598,26.076z M52.396,18.747l2.225,3.079
			c0.134,0.187,0.097,0.445-0.085,0.584l-2.638,2.018l4.544-1.54l-2.398-3.442c-0.112-0.161-0.1-0.378,0.032-0.524l1.648-1.835
			L52.396,18.747z"/>
	</g>
	<g>
		<polygon fill="#F2DD86" points="41.452,25.685 42.144,19.833 37.891,19.212 39.841,13.071 40.161,17.754 44.859,18.521 		"/>
		<path fill="#232728" d="M41.452,26.108c-0.038,0-0.078-0.006-0.117-0.017c-0.199-0.058-0.327-0.251-0.303-0.457l0.643-5.442
			l-3.846-0.562c-0.122-0.018-0.231-0.089-0.298-0.194c-0.065-0.105-0.081-0.234-0.044-0.353l1.95-6.14
			c0.062-0.194,0.241-0.317,0.453-0.293c0.202,0.024,0.359,0.188,0.373,0.392l0.297,4.347l4.366,0.713
			c0.132,0.021,0.246,0.104,0.308,0.222c0.062,0.117,0.064,0.258,0.007,0.378l-3.407,7.164
			C41.763,26.018,41.612,26.108,41.452,26.108z M38.444,18.865l3.761,0.549c0.228,0.033,0.387,0.241,0.358,0.469l-0.389,3.297
			l2.06-4.333l-4.141-0.675c-0.194-0.032-0.342-0.193-0.354-0.39l-0.169-2.461L38.444,18.865z"/>
	</g>
	<path fill="#232728" d="M8.193,59.752c-0.351,0-0.635-0.284-0.635-0.635V46.842c0-0.351,0.284-0.635,0.635-0.635
		s0.635,0.284,0.635,0.635v12.275C8.828,59.468,8.544,59.752,8.193,59.752z"/>
</g>
</svg>
