<?xml version="1.0" encoding="utf-8"?>
<!-- Generator: Adobe Illustrator 16.0.0, SVG Export Plug-In . SVG Version: 6.00 Build 0)  -->
<!DOCTYPE svg PUBLIC "-//W3C//DTD SVG 1.1//EN" "http://www.w3.org/Graphics/SVG/1.1/DTD/svg11.dtd">
<svg version="1.1" id="Layer_1" xmlns="http://www.w3.org/2000/svg" xmlns:xlink="http://www.w3.org/1999/xlink" x="0px" y="0px"
	 width="60px" height="60px" viewBox="0 0 60 60" enable-background="new 0 0 60 60" xml:space="preserve">
<g>
	<g>
		<path fill="#D6E281" d="M30.438,7.899L12.785,7.918c-1.107,0.001-2.003,0.901-2.003,2.009l0.015,12.836
			c0,1.107,0.899,2.005,2.009,2.003l4.778-0.007l5.988,3.422l-1.651-3.427l8.535-0.008c1.107,0,2.004-0.899,2.004-2.009
			L32.444,9.902C32.442,8.796,31.545,7.897,30.438,7.899z"/>
		<path fill="#232728" d="M23.571,28.707c-0.09,0-0.18-0.022-0.261-0.069l-5.866-3.353l-4.638,0.007
			c-1.398,0-2.533-1.134-2.534-2.528L10.258,9.928c-0.001-1.396,1.133-2.533,2.527-2.535l17.652-0.019
			c1.396,0,2.529,1.134,2.532,2.527l0.016,12.836c0,1.397-1.135,2.533-2.529,2.534l-7.7,0.007l1.289,2.675
			c0.1,0.207,0.053,0.455-0.115,0.612C23.829,28.658,23.701,28.707,23.571,28.707z M17.583,24.235c0.091,0,0.181,0.024,0.26,0.069
			l4.521,2.584l-0.919-1.906c-0.077-0.163-0.067-0.354,0.028-0.506c0.097-0.153,0.264-0.246,0.444-0.246l8.535-0.007
			c0.816,0,1.48-0.667,1.48-1.484L31.92,9.903c-0.002-0.815-0.666-1.479-1.479-1.479l-17.655,0.02
			c-0.815,0.001-1.479,0.667-1.479,1.484l0.015,12.835c0,0.815,0.665,1.479,1.481,1.479L17.583,24.235L17.583,24.235z"/>
	</g>
	<g>
		
			<rect x="14.748" y="12.372" transform="matrix(1 -0.0011 0.0011 1 -0.0134 0.0229)" fill="#EFECEA" width="13.852" height="0.633"/>
		<path fill="#232728" d="M14.748,13.274c-0.07,0-0.136-0.028-0.185-0.077s-0.077-0.116-0.077-0.186v-0.633
			c0-0.145,0.117-0.262,0.262-0.262l13.851-0.016l0,0c0.069,0,0.136,0.028,0.186,0.077c0.049,0.049,0.077,0.116,0.077,0.186v0.633
			c0,0.145-0.117,0.263-0.262,0.263L14.748,13.274L14.748,13.274z M15.01,12.641v0.108l13.327-0.014l-0.001-0.109L15.01,12.641z"/>
	</g>
	<g>
		
			<rect x="14.666" y="15.953" transform="matrix(1 -0.0011 0.0011 1 -0.0178 0.0236)" fill="#EFECEA" width="13.851" height="0.634"/>
		<path fill="#232728" d="M14.667,16.857c-0.07,0-0.136-0.028-0.186-0.077c-0.049-0.049-0.077-0.116-0.077-0.186l0-0.634
			c0-0.145,0.117-0.263,0.262-0.263l13.852-0.015l0,0c0.069,0,0.136,0.028,0.185,0.077c0.05,0.049,0.077,0.116,0.077,0.186v0.634
			c0,0.145-0.117,0.262-0.262,0.262L14.667,16.857L14.667,16.857z M14.928,16.223l0,0.109l13.326-0.015v-0.109L14.928,16.223z"/>
	</g>
	<g>
		<rect x="14.584" y="19.517" fill="#EFECEA" width="8.038" height="0.633"/>
		<path fill="#232728" d="M14.584,20.416c-0.145,0-0.263-0.117-0.263-0.262l0-0.632c0-0.145,0.118-0.263,0.262-0.263l8.039-0.009
			l0,0c0.069,0,0.136,0.028,0.185,0.077c0.05,0.049,0.077,0.116,0.077,0.186l0.001,0.634c0,0.069-0.027,0.136-0.076,0.186
			c-0.05,0.049-0.116,0.077-0.187,0.077L14.584,20.416L14.584,20.416z M14.846,19.783l0,0.108l7.514-0.007l-0.001-0.109
			L14.846,19.783z"/>
	</g>
	<g>
		<path fill="#B7E1E5" d="M21.7,39.771l-3.947-2.906c0.082-0.483,0.136-0.977,0.136-1.484c0-4.794-3.888-8.681-8.682-8.681
			c-4.795,0-8.683,3.887-8.683,8.681c0,4.796,3.887,8.682,8.683,8.682c3.173,0,5.941-1.707,7.455-4.248L21.7,39.771z"/>
		<path fill="#232728" d="M9.208,44.588C4.13,44.588,0,40.457,0,35.381c0-5.076,4.13-9.206,9.208-9.206
			c5.077,0,9.207,4.13,9.207,9.206c0,0.396-0.031,0.807-0.093,1.25l3.689,2.719c0.183,0.134,0.259,0.369,0.188,0.584
			c-0.069,0.215-0.269,0.361-0.495,0.363l-4.748,0.039C15.271,42.966,12.33,44.588,9.208,44.588z M9.208,27.225
			c-4.498,0-8.158,3.66-8.158,8.156c0,4.498,3.66,8.157,8.158,8.157c2.897,0,5.516-1.492,7.004-3.993
			c0.093-0.157,0.263-0.254,0.447-0.256l3.463-0.028l-2.679-1.974c-0.16-0.117-0.24-0.314-0.206-0.51
			c0.086-0.51,0.128-0.966,0.128-1.396C17.365,30.885,13.706,27.225,9.208,27.225z"/>
	</g>
	<g>
		<circle fill="#EFECEA" cx="5.059" cy="35.768" r="1"/>
		<path fill="#232728" d="M5.059,37.03c-0.696,0-1.263-0.565-1.263-1.263s0.566-1.264,1.263-1.264s1.263,0.566,1.263,1.264
			S5.755,37.03,5.059,37.03z M5.059,35.028c-0.407,0-0.738,0.332-0.738,0.739s0.331,0.738,0.738,0.738s0.738-0.331,0.738-0.738
			S5.466,35.028,5.059,35.028z"/>
	</g>
	<g>
		<circle fill="#EFECEA" cx="9.327" cy="35.623" r="1.001"/>
		<path fill="#232728" d="M9.328,36.887c-0.697,0-1.264-0.566-1.264-1.264s0.567-1.264,1.264-1.264c0.696,0,1.263,0.566,1.263,1.264
			S10.024,36.887,9.328,36.887z M9.328,34.885c-0.408,0-0.739,0.33-0.739,0.738c0,0.406,0.332,0.738,0.739,0.738
			c0.407,0,0.738-0.332,0.738-0.738C10.066,35.215,9.735,34.885,9.328,34.885z"/>
	</g>
	<g>
		<circle fill="#EFECEA" cx="13.475" cy="35.635" r="1.001"/>
		<path fill="#232728" d="M13.475,36.898c-0.697,0-1.263-0.567-1.263-1.264c0-0.697,0.566-1.264,1.263-1.264
			c0.696,0,1.263,0.566,1.263,1.264C14.738,36.331,14.171,36.898,13.475,36.898z M13.475,34.896c-0.407,0-0.738,0.331-0.738,0.738
			c0,0.408,0.331,0.738,0.738,0.738s0.738-0.33,0.738-0.738C14.213,35.228,13.882,34.896,13.475,34.896z"/>
	</g>
	<g>
		<path fill="#7DC0DB" d="M41.558,37.514l2.242-4.36c-0.289-0.396-0.556-0.813-0.781-1.267c-2.135-4.295-0.381-9.505,3.912-11.64
			c4.295-2.133,9.505-0.38,11.639,3.914c2.133,4.293,0.382,9.504-3.913,11.638c-2.842,1.411-6.082,1.113-8.566-0.49L41.558,37.514z"
			/>
		<path fill="#232728" d="M41.558,38.038c-0.138,0-0.273-0.055-0.375-0.157c-0.157-0.162-0.194-0.406-0.092-0.607l2.097-4.076
			c-0.25-0.363-0.46-0.718-0.639-1.077c-2.259-4.546-0.397-10.083,4.148-12.343c1.286-0.639,2.662-0.963,4.089-0.963
			c3.524,0,6.687,1.959,8.253,5.113c2.259,4.546,0.397,10.083-4.148,12.342c-2.797,1.389-6.175,1.236-8.832-0.361l-4.271,2.077
			C41.715,38.021,41.636,38.038,41.558,38.038z M50.786,19.864c-1.263,0-2.482,0.287-3.622,0.854
			c-4.027,2.002-5.677,6.908-3.676,10.935c0.195,0.393,0.436,0.782,0.735,1.191c0.116,0.16,0.134,0.373,0.043,0.549l-1.521,2.96
			l3.115-1.516c0.164-0.079,0.359-0.068,0.514,0.031c2.391,1.543,5.492,1.73,8.049,0.461c4.029-2.003,5.678-6.907,3.676-10.935
			C56.711,21.6,53.908,19.864,50.786,19.864z"/>
	</g>
	<g>
		<circle fill="#EFECEA" cx="54.949" cy="28.098" r="1"/>
		<path fill="#232728" d="M54.948,29.362c-0.696,0-1.263-0.567-1.263-1.264c0-0.696,0.566-1.262,1.263-1.262
			s1.263,0.566,1.263,1.262C56.211,28.794,55.645,29.362,54.948,29.362z M54.948,27.36c-0.407,0-0.737,0.331-0.737,0.737
			c0,0.408,0.33,0.739,0.737,0.739s0.738-0.332,0.738-0.739C55.687,27.691,55.355,27.36,54.948,27.36z"/>
	</g>
	<g>
		<path fill="#EFECEA" d="M49.678,27.952c0,0.554,0.449,1.003,1.002,1.003c0.552,0,1.001-0.449,1.001-1.003c0-0.551-0.449-1-1.001-1
			C50.127,26.953,49.678,27.401,49.678,27.952z"/>
		<path fill="#232728" d="M50.68,29.217c-0.697,0-1.264-0.567-1.264-1.265c0-0.696,0.566-1.262,1.264-1.262
			c0.696,0,1.263,0.566,1.263,1.262C51.942,28.65,51.376,29.217,50.68,29.217z M50.68,27.215c-0.407,0-0.739,0.331-0.739,0.737
			c0,0.408,0.332,0.741,0.739,0.741s0.738-0.333,0.738-0.741C51.418,27.545,51.087,27.215,50.68,27.215z"/>
	</g>
	<g>
		<circle fill="#EFECEA" cx="46.531" cy="27.966" r="1.001"/>
		<path fill="#232728" d="M46.531,29.23c-0.696,0-1.263-0.567-1.263-1.264c0-0.697,0.566-1.265,1.263-1.265s1.264,0.567,1.264,1.265
			C47.795,28.663,47.228,29.23,46.531,29.23z M46.531,27.227c-0.407,0-0.738,0.332-0.738,0.74c0,0.407,0.331,0.739,0.738,0.739
			s0.739-0.332,0.739-0.739C47.271,27.559,46.938,27.227,46.531,27.227z"/>
	</g>
	<g>
		<g>
			<path fill="#F2DD86" d="M42.322,43.568l-2.413-1.412L35,39.29h-5.714l-7.323,4.278c0,0-2.6,1.1-2.675,4.858v3.674h5.348h7.382
				h0.098h0.153H45v-3.674C44.926,44.668,42.322,43.568,42.322,43.568z"/>
			<path fill="#232728" d="M45,52.626H19.288c-0.29,0-0.525-0.235-0.525-0.525v-3.674c0.082-4.063,2.876-5.292,2.995-5.343
				l7.264-4.247c0.08-0.048,0.172-0.071,0.265-0.071H35c0.094,0,0.185,0.023,0.265,0.071l7.323,4.278
				c0.058,0.02,2.856,1.248,2.938,5.302v3.684C45.525,52.391,45.29,52.626,45,52.626z M19.813,51.576h24.663v-3.149
				c-0.067-3.369-2.334-4.365-2.357-4.375l-7.26-4.237h-5.431l-7.201,4.207c-0.15,0.07-2.347,1.069-2.414,4.416V51.576z"/>
		</g>
		<g>
			<path fill="#EFECEA" d="M38.367,28.618c-0.033-0.005-0.065,0.007-0.1,0.012c-0.056-0.532-0.141-1.042-0.259-1.531
				c-0.646-2.661-2.29-4.507-5.697-4.507c-3.832,0-5.534,2.575-5.94,6.029c-0.01,0-0.017-0.005-0.024-0.004
				c-0.983,0.136-1.03,0.959-0.896,2.056c0.144,1.123,0.557,1.82,1.046,1.826c0.314,1.439,0.938,2.71,1.777,3.682
				c0.179,0.887,0.562,3.565-1.008,4.935l10.057,0.047c0,0-1.542-1.884-1.195-4.739c0.952-1.002,1.66-2.367,2.001-3.938
				c0.025,0.004,0.05,0.016,0.079,0.016c0.491,0,0.91-0.701,1.051-1.828C39.396,29.577,39.351,28.753,38.367,28.618z"/>
			<path fill="#232728" d="M38.436,41.693l-12.562-0.059l1.047-0.913c1.297-1.132,1.023-3.438,0.864-4.306
				c-0.799-0.96-1.391-2.157-1.726-3.486c-0.572-0.262-0.982-1.04-1.129-2.188c-0.082-0.664-0.264-2.14,0.969-2.557
				c0.584-3.949,2.85-6.117,6.412-6.117c3.327,0,5.415,1.651,6.207,4.908c0.091,0.374,0.165,0.771,0.222,1.186
				c1.313,0.382,1.123,1.903,1.039,2.579c-0.152,1.218-0.6,2.019-1.226,2.231c-0.366,1.428-1.025,2.691-1.923,3.683
				c-0.239,2.51,1.085,4.16,1.099,4.178L38.436,41.693z M28.356,40.598l8.018,0.036c-0.456-0.876-0.998-2.374-0.767-4.272
				l0.021-0.173l0.119-0.126c0.906-0.953,1.553-2.229,1.868-3.688l0.105-0.484l0.504,0.08c0.11-0.056,0.397-0.439,0.514-1.361
				c0.161-1.296-0.077-1.416-0.378-1.462l-0.512,0.104l-0.103-0.565c-0.055-0.519-0.138-1.011-0.247-1.462
				c-0.672-2.763-2.369-4.106-5.188-4.106c-3.161,0-4.984,1.873-5.419,5.566l-0.055,0.463h-0.481
				c-0.293,0.046-0.544,0.168-0.385,1.463c0.125,0.977,0.439,1.348,0.532,1.365l0.419,0.006l0.087,0.408
				c0.293,1.338,0.866,2.529,1.661,3.449l0.091,0.104l0.027,0.135C28.976,37.004,29.239,39.051,28.356,40.598z"/>
		</g>
		<g>
			<polygon fill="#C6EBF4" points="28.433,38.461 32.336,40.611 36.213,38.628 37.822,40.76 36.166,43.945 32.385,41.048 
				28.481,43.611 26.766,40.711 			"/>
			<path fill="#232728" d="M36.166,44.47c-0.114,0-0.227-0.037-0.319-0.107l-3.485-2.671l-3.591,2.359
				c-0.121,0.078-0.269,0.104-0.407,0.072c-0.14-0.032-0.26-0.12-0.333-0.244l-1.717-2.901c-0.107-0.182-0.096-0.409,0.03-0.58
				l1.667-2.249c0.156-0.211,0.445-0.273,0.676-0.146l3.658,2.016l3.629-1.857c0.226-0.115,0.504-0.053,0.658,0.151l1.609,2.132
				c0.122,0.162,0.14,0.379,0.047,0.559l-1.656,3.186c-0.071,0.138-0.2,0.236-0.352,0.271C36.242,44.466,36.204,44.47,36.166,44.47z
				 M33.002,40.859l2.987,2.289l1.215-2.337l-1.145-1.516L33.002,40.859z M27.395,40.743l1.259,2.128l3.055-2.006l-3.127-1.724
				L27.395,40.743z"/>
		</g>
		<g>
			<path fill="#7C90A5" d="M34.206,24.641c0,0-4.668,1.443-7.254,4.593l-0.139,1.211l-0.252-1.235c0,0-0.549-0.821-0.983-0.067
				c0,0-1.119-3.006,1.279-5.783c0,0,2.022-3.667,7.109-3.015c0,0,7.263,1.435,5.229,9.137c0,0-0.431-1.324-1.116-0.387
				l-0.321,1.373l0.115-1.946C37.874,28.523,36.772,24.534,34.206,24.641z"/>
			<path fill="#232728" d="M37.76,30.994c-0.025,0-0.051-0.002-0.077-0.006c-0.269-0.039-0.464-0.278-0.448-0.55l0.11-1.853
				c-0.161-0.519-1.149-3.421-3.038-3.421l-0.012,0c-0.563,0.186-4.534,1.575-6.84,4.286l-0.12,1.055
				c-0.029,0.257-0.24,0.454-0.498,0.465c-0.265,0.011-0.485-0.167-0.537-0.419l-0.228-1.114c-0.012-0.012-0.023-0.025-0.036-0.036
				c-0.001,0.001-0.002,0.003-0.003,0.004c-0.101,0.176-0.29,0.278-0.498,0.262c-0.203-0.017-0.378-0.149-0.448-0.34
				c-0.05-0.134-1.188-3.305,1.341-6.271c0.261-0.439,2.129-3.312,6.354-3.312c0.406,0,0.828,0.027,1.252,0.082
				c0.17,0.032,3.347,0.688,5.036,3.39c1.084,1.733,1.297,3.887,0.633,6.401c-0.059,0.225-0.26,0.384-0.493,0.391
				c-0.226,0.018-0.441-0.141-0.513-0.362c-0.032-0.096-0.089-0.208-0.14-0.287l-0.288,1.23
				C38.214,30.828,37.999,30.994,37.76,30.994z M26.001,28.3c0.326,0,0.588,0.177,0.764,0.344c2.684-3.055,7.095-4.445,7.286-4.504
				c0.043-0.014,0.088-0.021,0.133-0.023l0.123-0.002c2.624,0,3.82,3.444,4.038,4.15c0.194-0.05,0.402-0.026,0.567,0.046
				c0.29-1.773,0.045-3.296-0.731-4.537c-1.451-2.322-4.286-2.906-4.315-2.911c-0.345-0.043-0.722-0.068-1.083-0.068
				c-3.864,0-5.45,2.792-5.466,2.821c-0.017,0.032-0.038,0.062-0.062,0.089c-1.528,1.769-1.497,3.639-1.341,4.601
				C25.946,28.302,25.976,28.3,26.001,28.3z"/>
		</g>
	</g>
	<g>
		<polygon fill="#7DC0DB" points="31.846,41.038 33.039,41.038 34.12,42.071 33.078,43.968 31.882,43.968 30.647,42.223 		"/>
		<path fill="#232728" d="M33.078,44.492h-1.196c-0.17,0-0.33-0.082-0.429-0.222l-1.233-1.745c-0.148-0.209-0.123-0.495,0.06-0.676
			l1.197-1.186c0.099-0.096,0.231-0.15,0.369-0.15h1.193c0.136,0,0.266,0.052,0.363,0.145l1.08,1.034
			c0.172,0.165,0.212,0.424,0.097,0.632l-1.041,1.896C33.446,44.388,33.27,44.492,33.078,44.492z M32.153,43.443h0.615l0.697-1.271
			l-0.637-0.609h-0.768l-0.729,0.721L32.153,43.443z"/>
	</g>
	<g>
		<polygon fill="#7DC0DB" points="31.882,43.968 33.078,43.968 34.141,48.438 32.536,51.607 30.716,48.345 		"/>
		<path fill="#232728" d="M32.536,52.133c-0.19,0-0.366-0.103-0.459-0.27l-1.819-3.263c-0.066-0.119-0.084-0.259-0.049-0.391
			l1.166-4.377c0.061-0.23,0.27-0.39,0.507-0.39h1.196c0.243,0,0.454,0.167,0.511,0.403l1.063,4.469
			c0.028,0.121,0.014,0.248-0.043,0.358l-1.604,3.171c-0.088,0.173-0.264,0.283-0.458,0.288
			C32.543,52.133,32.539,52.133,32.536,52.133z M31.277,48.274l1.236,2.216l1.072-2.118l-0.923-3.88h-0.378L31.277,48.274z"/>
	</g>
</g>
</svg>
