<svg id="Layer_8" data-name="Layer 8" xmlns="http://www.w3.org/2000/svg" viewBox="0 0 100 100" width="80px"><title>ico_17</title><path d="M26.24,27.55H73a6,6,0,0,1,6,6V80.35a6,6,0,0,1-6,6H26.24a6,6,0,0,1-6-6V33.59A6,6,0,0,1,26.24,27.55Z" style="fill:#ff6464;stroke:#212121;stroke-linecap:round;stroke-linejoin:round;stroke-width:3px"/><rect x="33.63" y="51.53" width="7.47" height="18.41" style="fill:#fff;stroke:#212121;stroke-linejoin:round;stroke-width:3px"/><rect x="45.89" y="44" width="7.47" height="25.94" style="fill:#fff;stroke:#212121;stroke-linejoin:round;stroke-width:3px"/><rect x="58.14" y="48.6" width="7.47" height="21.34" style="fill:#fff;stroke:#212121;stroke-linejoin:round;stroke-width:3px"/><path d="M71.91,14.84a10,10,0,0,0-4.67-1.21,10.43,10.43,0,0,0-4.77.75,9.06,9.06,0,0,0-4.51,12L65.72,43.7h.1l9.41-16.48A9.06,9.06,0,0,0,71.91,14.84Z" style="fill:#58c4dd;stroke:#212121;stroke-linecap:round;stroke-width:3px"/><circle cx="66.82" cy="22.17" r="3.57" transform="translate(41.41 87.83) rotate(-87.21)" style="fill:#fff;stroke:#212121;stroke-linejoin:round;stroke-width:3px"/><line x1="26.17" y1="33.69" x2="26.17" y2="37.57" style="fill:none;stroke:#212121;stroke-width:3px"/><line x1="33.14" y1="33.69" x2="33.14" y2="37.57" style="fill:none;stroke:#212121;stroke-width:3px"/><line x1="40.11" y1="33.69" x2="40.11" y2="37.57" style="fill:none;stroke:#212121;stroke-width:3px"/><line x1="47.08" y1="33.69" x2="47.08" y2="37.57" style="fill:none;stroke:#212121;stroke-width:3px"/><line x1="54.05" y1="33.69" x2="54.05" y2="37.57" style="fill:none;stroke:#212121;stroke-width:3px"/><line x1="78.84" y1="77.84" x2="51.73" y2="77.84" style="fill:none;stroke:#212121;stroke-width:3px"/></svg>