<?xml version="1.0" encoding="utf-8"?>
<!-- Generator: Adobe Illustrator 16.0.0, SVG Export Plug-In . SVG Version: 6.00 Build 0)  -->
<!DOCTYPE svg PUBLIC "-//W3C//DTD SVG 1.1//EN" "http://www.w3.org/Graphics/SVG/1.1/DTD/svg11.dtd">
<svg version="1.1" id="Layer_1" xmlns="http://www.w3.org/2000/svg" xmlns:xlink="http://www.w3.org/1999/xlink" x="0px" y="0px"
	 width="100px" height="100px" viewBox="0 0 100 100" enable-background="new 0 0 100 100" xml:space="preserve">
<rect x="24.201" y="36.383" fill="#FFFFFF" width="51.598" height="27.234"/>
<g>
	<defs>
		<rect id="SVGID_1_" x="20" y="28.568" width="60" height="42.863"/>
	</defs>
	<clipPath id="SVGID_2_">
		<use xlink:href="#SVGID_1_"  overflow="visible"/>
	</clipPath>
	<path clip-path="url(#SVGID_2_)" fill="#1B1C1C" d="M80,71.256H26.745V42.364H80V71.256z M28.403,69.598h49.94V44.021h-49.94
		V69.598z"/>
	<path clip-path="url(#SVGID_2_)" fill="#FFFFFF" d="M75.652,38.86H57.607c-2.337,0-4.229,1.652-4.229,3.69v28.053
		c0-2.039,1.893-3.691,4.229-3.691h18.045c0.095,0,0.188,0.008,0.282,0.014V38.872C75.841,38.866,75.747,38.86,75.652,38.86"/>
	<polygon clip-path="url(#SVGID_2_)" fill="#1B1C1C" points="76.763,67.813 75.685,67.742 66.63,67.742 66.63,66.084 75.105,66.084 
		75.105,39.688 71.141,39.688 71.141,38.031 75.972,38.044 76.762,38.082 	"/>
	<path clip-path="url(#SVGID_2_)" fill="#1B1C1C" d="M54.206,70.604h-1.657V42.551c0-0.624,0.14-1.229,0.415-1.797
		c0.262-0.541,0.635-1.024,1.107-1.438c0.466-0.406,1.005-0.723,1.603-0.943c0.61-0.227,1.261-0.342,1.934-0.342h4.512v1.657h-4.512
		c-0.475,0-0.932,0.081-1.357,0.239c-0.411,0.15-0.776,0.365-1.09,0.638c-0.303,0.265-0.54,0.571-0.704,0.91
		c-0.166,0.342-0.25,0.704-0.25,1.075v24.705c0.435-0.352,0.928-0.631,1.468-0.83c0.611-0.227,1.263-0.342,1.934-0.342h4.512v1.656
		h-4.512c-0.474,0-0.931,0.082-1.357,0.24c-0.411,0.15-0.776,0.365-1.09,0.639c-0.303,0.264-0.54,0.57-0.704,0.908
		C54.29,69.871,54.206,70.232,54.206,70.604z"/>
	<path clip-path="url(#SVGID_2_)" fill="#FFEE65" d="M31.094,38.86h18.045c2.336,0,4.229,1.652,4.229,3.69v28.053
		c0-2.039-1.894-3.691-4.229-3.691H31.094c-0.095,0-0.188,0.008-0.282,0.014V38.872C30.905,38.866,30.999,38.86,31.094,38.86"/>
	<path clip-path="url(#SVGID_2_)" fill="#1B1C1C" d="M53.368,71.432c-0.458,0-0.829-0.371-0.829-0.828
		c0-1.578-1.525-2.863-3.4-2.863H31.094c-0.068,0-0.136,0.006-0.203,0.012c-0.226,0.012-0.466-0.064-0.634-0.221
		s-0.274-0.375-0.274-0.605V38.872c0-0.439,0.343-0.803,0.781-0.827c0.136-0.009,0.233-0.014,0.33-0.014h18.045
		c2.789,0,5.058,2.027,5.058,4.52v28.053C54.196,71.061,53.825,71.432,53.368,71.432z M31.641,66.084h17.498
		c1.309,0,2.501,0.445,3.4,1.176V42.551c0-1.578-1.525-2.862-3.4-2.862H31.641V66.084z"/>
	<line clip-path="url(#SVGID_2_)" fill="#FFFFFF" x1="60.529" y1="45.553" x2="68.222" y2="45.553"/>
	<rect x="60.529" y="44.725" clip-path="url(#SVGID_2_)" fill="#1B1C1C" width="7.692" height="1.657"/>
	<line clip-path="url(#SVGID_2_)" fill="#FFFFFF" x1="60.529" y1="49.645" x2="68.222" y2="49.645"/>
	<rect x="60.529" y="48.815" clip-path="url(#SVGID_2_)" fill="#1B1C1C" width="7.692" height="1.658"/>
	<line clip-path="url(#SVGID_2_)" fill="#FFFFFF" x1="60.529" y1="53.736" x2="68.222" y2="53.736"/>
	<rect x="60.529" y="52.908" clip-path="url(#SVGID_2_)" fill="#1B1C1C" width="7.692" height="1.656"/>
	<line clip-path="url(#SVGID_2_)" fill="#FFFFFF" x1="60.529" y1="57.828" x2="68.222" y2="57.828"/>
	<rect x="60.529" y="56.998" clip-path="url(#SVGID_2_)" fill="#1B1C1C" width="7.692" height="1.658"/>
	<polygon clip-path="url(#SVGID_2_)" fill="#FFFFFF" points="43.083,44.663 39.59,48.156 36.096,51.65 42.313,53.723 45.156,50.88 	
		"/>
	<path clip-path="url(#SVGID_2_)" fill="#1B1C1C" d="M42.313,54.553c-0.088,0-0.176-0.016-0.262-0.043l-6.217-2.072
		c-0.272-0.09-0.479-0.316-0.544-0.596s0.017-0.572,0.221-0.777l6.987-6.987c0.203-0.203,0.498-0.287,0.776-0.221
		c0.28,0.065,0.506,0.271,0.596,0.544l2.073,6.218c0.1,0.298,0.022,0.626-0.2,0.847l-2.844,2.844
		C42.74,54.467,42.529,54.553,42.313,54.553z M37.63,51.289l4.459,1.486l2.119-2.119l-1.486-4.459L37.63,51.289z"/>
	<polygon clip-path="url(#SVGID_2_)" fill="#FFFFFF" points="45.156,50.88 42.313,53.723 46.579,55.146 	"/>
	<path clip-path="url(#SVGID_2_)" fill="#1B1C1C" d="M46.579,55.975c-0.088,0-0.177-0.014-0.263-0.043l-4.266-1.422
		c-0.272-0.092-0.479-0.316-0.545-0.596c-0.065-0.281,0.019-0.574,0.221-0.777l2.844-2.843c0.203-0.203,0.498-0.287,0.776-0.221
		c0.279,0.066,0.505,0.272,0.596,0.545l1.423,4.265c0.099,0.299,0.021,0.627-0.2,0.85C47.007,55.891,46.795,55.975,46.579,55.975z
		 M43.847,53.361l1.422,0.473l-0.475-1.42L43.847,53.361z"/>
	
		<rect x="25.395" y="30.306" transform="matrix(0.7071 0.7071 -0.7071 0.7071 31.2916 -9.99)" clip-path="url(#SVGID_2_)" fill="#FFFFFF" width="4.62" height="4.942"/>
	<path clip-path="url(#SVGID_2_)" fill="#1B1C1C" d="M27.591,36.986L27.591,36.986c-0.22,0-0.431-0.087-0.586-0.242l-3.267-3.267
		c-0.324-0.324-0.324-0.849,0-1.172l3.494-3.495c0.311-0.311,0.861-0.311,1.172,0l3.267,3.267c0.324,0.324,0.324,0.849,0,1.173
		l-3.495,3.494C28.021,36.899,27.811,36.986,27.591,36.986z M25.497,32.892l2.094,2.094l2.322-2.322l-2.095-2.094L25.497,32.892z"/>
	
		<rect x="26.852" y="37.941" transform="matrix(-0.7071 -0.7071 0.7071 -0.7071 31.7525 93.9725)" clip-path="url(#SVGID_2_)" fill="#FFFFFF" width="16.969" height="4.94"/>
	<path clip-path="url(#SVGID_2_)" fill="#1B1C1C" d="M39.59,48.985c-0.212,0-0.424-0.081-0.586-0.243L27.005,36.744
		c-0.155-0.155-0.243-0.366-0.243-0.586s0.087-0.431,0.243-0.586l3.494-3.495c0.156-0.155,0.366-0.242,0.586-0.242l0,0
		c0.22,0,0.431,0.087,0.586,0.242l11.998,12c0.324,0.323,0.324,0.848,0,1.172l-3.493,3.493
		C40.014,48.904,39.802,48.985,39.59,48.985z M28.763,36.158L39.59,46.984l2.321-2.321L31.085,33.836L28.763,36.158z"/>
	
		<rect x="23.358" y="41.433" transform="matrix(-0.7071 -0.7071 0.7071 -0.7071 23.3165 97.4651)" clip-path="url(#SVGID_2_)" fill="#FFFFFF" width="16.97" height="4.942"/>
	<path clip-path="url(#SVGID_2_)" fill="#1B1C1C" d="M36.095,52.48c-0.22,0-0.431-0.088-0.586-0.244l-12-11.999
		c-0.155-0.155-0.243-0.366-0.243-0.586c0-0.221,0.087-0.431,0.243-0.586l3.496-3.493c0.323-0.323,0.848-0.324,1.171,0l12,11.998
		c0.324,0.324,0.324,0.849,0,1.172l-3.495,3.494C36.526,52.393,36.315,52.48,36.095,52.48z M25.268,39.651l10.828,10.828
		l2.323-2.323L27.591,37.33L25.268,39.651z"/>
	
		<rect x="21.738" y="33.962" transform="matrix(0.7073 -0.707 0.707 0.7073 -18.5552 27.7336)" clip-path="url(#SVGID_2_)" fill="#FFFFFF" width="4.942" height="4.619"/>
	<path clip-path="url(#SVGID_2_)" fill="#1B1C1C" d="M24.095,40.479c-0.212,0-0.424-0.08-0.586-0.242l-3.267-3.266
		C20.087,36.816,20,36.605,20,36.386s0.087-0.431,0.243-0.586l3.496-3.495c0.324-0.323,0.848-0.323,1.172,0.001l3.267,3.267
		c0.155,0.155,0.243,0.366,0.243,0.586s-0.087,0.431-0.243,0.586l-3.495,3.493C24.52,40.399,24.308,40.479,24.095,40.479z
		 M22.001,36.386l2.094,2.094l2.323-2.322l-2.094-2.094L22.001,36.386z"/>
	<rect x="34.681" y="59.879" clip-path="url(#SVGID_2_)" fill="#FFFFFF" width="7.616" height="3.516"/>
	<path clip-path="url(#SVGID_2_)" fill="#1B1C1C" d="M43.125,64.223h-9.273v-5.172h9.273V64.223z M35.51,62.564h5.958v-1.857H35.51
		V62.564z"/>
</g>
</svg>
