<svg id="Layer_8" data-name="Layer 8" xmlns="http://www.w3.org/2000/svg" viewBox="0 0 100 100" width="80px"><title>ico_11</title><rect x="19.36" y="28.37" width="63.27" height="54.04" rx="4.98" ry="4.98" style="fill:#fff;stroke:#212121;stroke-width:3px"/><rect x="29.86" y="37.23" width="42.28" height="29.31" style="fill:#58c4dd;stroke:#212121;stroke-width:3px"/><path d="M60,76.14C59.5,78.36,57.86,80,55.89,80H46.11c-2,0-3.61-1.64-4.09-3.86H14.67v2.93c0,3.14,2.09,5.69,4.67,5.69h63.3c2.58,0,4.67-2.55,4.67-5.69V76.14Z" style="fill:#ff6464;stroke:#212121;stroke-width:3px"/><rect x="38.32" y="22.99" width="25.36" height="31.58" style="fill:#fff;stroke:#212121;stroke-width:3px"/><line x1="49.04" y1="30.17" x2="58.42" y2="30.17" style="fill:#fff;stroke:#212121;stroke-width:3px"/><line x1="49.04" y1="35.91" x2="58.42" y2="35.91" style="fill:#fff;stroke:#212121;stroke-width:3px"/><line x1="49.04" y1="41.66" x2="58.42" y2="41.66" style="fill:#fff;stroke:#212121;stroke-width:3px"/><line x1="49.04" y1="47.4" x2="58.42" y2="47.4" style="fill:#fff;stroke:#212121;stroke-width:3px"/><line x1="43.58" y1="30.17" x2="46.66" y2="30.17" style="fill:#fff;stroke:#212121;stroke-width:3px"/><line x1="43.58" y1="35.91" x2="46.66" y2="35.91" style="fill:#fff;stroke:#212121;stroke-width:3px"/><line x1="43.58" y1="41.66" x2="46.66" y2="41.66" style="fill:#fff;stroke:#212121;stroke-width:3px"/><line x1="43.58" y1="47.4" x2="46.66" y2="47.4" style="fill:#fff;stroke:#212121;stroke-width:3px"/></svg>