<?xml version="1.0" encoding="utf-8"?>
<!-- Generator: Adobe Illustrator 16.0.0, SVG Export Plug-In . SVG Version: 6.00 Build 0)  -->
<!DOCTYPE svg PUBLIC "-//W3C//DTD SVG 1.1//EN" "http://www.w3.org/Graphics/SVG/1.1/DTD/svg11.dtd">
<svg version="1.1" id="Layer_1" xmlns="http://www.w3.org/2000/svg" xmlns:xlink="http://www.w3.org/1999/xlink" x="0px" y="0px"
	 width="100px" height="100px" viewBox="0 0 100 100" enable-background="new 0 0 100 100" xml:space="preserve">
<g>
	<defs>
		<rect id="SVGID_1_" x="31" y="25.206" width="38" height="49.589"/>
	</defs>
	<clipPath id="SVGID_2_">
		<use xlink:href="#SVGID_1_"  overflow="visible"/>
	</clipPath>
	<path clip-path="url(#SVGID_2_)" fill="#FFFFFF" d="M64.201,26.204H41.688l-9.688,9.689v34.103c0,2.1,1.701,3.799,3.8,3.799h28.402
		c2.099,0,3.8-1.699,3.8-3.799V30.004C68.001,27.906,66.3,26.204,64.201,26.204"/>
	<rect x="67.002" y="42.668" clip-path="url(#SVGID_2_)" fill="#1B1C1C" width="1.997" height="4.664"/>
	<path clip-path="url(#SVGID_2_)" fill="#1B1C1C" d="M42.899,74.795h-7.101c-0.647,0-1.276-0.127-1.869-0.379
		c-0.572-0.242-1.085-0.588-1.524-1.027c-0.44-0.439-0.787-0.953-1.028-1.525C31.127,71.273,31,70.645,31,69.996l0-8.525l0-25.578
		c0-0.265,0.105-0.519,0.292-0.706l9.688-9.689c0.188-0.187,0.441-0.292,0.707-0.292h22.514c0.002,0,0.004,0,0.006,0
		c0.644,0,1.271,0.127,1.863,0.378c0.566,0.239,1.08,0.584,1.523,1.025c0.441,0.443,0.786,0.956,1.028,1.527
		c0.25,0.589,0.377,1.218,0.377,1.867v9.999h-1.997v-9.999c0-0.379-0.073-0.745-0.219-1.087c-0.143-0.335-0.344-0.636-0.602-0.894
		c-0.258-0.257-0.559-0.459-0.89-0.599c-0.346-0.146-0.711-0.221-1.086-0.221c-0.001,0-0.002,0-0.004,0H42.102l-9.104,9.104v33.689
		c0,0.379,0.074,0.744,0.219,1.088c0.142,0.336,0.343,0.635,0.6,0.891c0.258,0.258,0.558,0.461,0.892,0.602
		c0.345,0.146,0.711,0.221,1.09,0.221L64.2,72.795c0.382,0,0.748-0.072,1.09-0.217c0.334-0.143,0.634-0.344,0.893-0.602
		c0.256-0.258,0.458-0.557,0.6-0.891c0.146-0.346,0.22-0.711,0.22-1.09V50h1.997v19.996c0,0.646-0.127,1.275-0.377,1.867
		c-0.242,0.572-0.588,1.086-1.028,1.525c-0.441,0.441-0.954,0.787-1.525,1.027c-0.589,0.25-1.218,0.377-1.868,0.377L42.899,74.795z"
		/>
	<polyline clip-path="url(#SVGID_2_)" fill="#FFFFFF" points="43.019,29.624 43.019,36.749 35.893,36.749 	"/>
	<path clip-path="url(#SVGID_2_)" fill="#1B1C1C" d="M43.019,37.748h-7.125V35.75h6.126v-6.126h1.998v7.125
		C44.017,37.301,43.57,37.748,43.019,37.748z"/>
	<rect x="39.883" y="43.634" clip-path="url(#SVGID_2_)" fill="#1B1C1C" width="20.233" height="1.998"/>
	<rect x="39.883" y="50.568" clip-path="url(#SVGID_2_)" fill="#1B1C1C" width="20.233" height="1.998"/>
	<rect x="39.883" y="57.502" clip-path="url(#SVGID_2_)" fill="#1B1C1C" width="15.395" height="1.998"/>
</g>
</svg>
