<svg id="Layer_8" data-name="Layer 8" xmlns="http://www.w3.org/2000/svg" viewBox="0 0 100 100" width="80px"><title>ico_18</title><rect x="31.06" y="34.49" width="43.24" height="33.93" style="fill:#fff;stroke:#212121;stroke-linejoin:round;stroke-width:3px"/><line x1="66.15" y1="41.72" x2="66.15" y2="61.18" style="fill:#fff;stroke:#212121;stroke-linejoin:round;stroke-width:3px"/><line x1="59.67" y1="41.72" x2="59.67" y2="61.18" style="fill:#fff;stroke:#212121;stroke-linejoin:round;stroke-width:3px"/><line x1="53.18" y1="41.72" x2="53.18" y2="61.18" style="fill:#fff;stroke:#212121;stroke-linejoin:round;stroke-width:3px"/><line x1="46.69" y1="41.72" x2="46.69" y2="53.7" style="fill:#fff;stroke:#212121;stroke-linejoin:round;stroke-width:3px"/><rect x="11.8" y="46.38" width="43.24" height="33.93" style="fill:#fff;stroke:#212121;stroke-linejoin:round;stroke-width:3px"/><line x1="46.89" y1="53.62" x2="46.89" y2="73.08" style="fill:#fff;stroke:#212121;stroke-linejoin:round;stroke-width:3px"/><line x1="40.41" y1="53.62" x2="40.41" y2="73.08" style="fill:#fff;stroke:#212121;stroke-linejoin:round;stroke-width:3px"/><line x1="33.92" y1="53.62" x2="33.92" y2="73.08" style="fill:#fff;stroke:#212121;stroke-linejoin:round;stroke-width:3px"/><line x1="27.43" y1="53.62" x2="27.43" y2="65.59" style="fill:#fff;stroke:#212121;stroke-linejoin:round;stroke-width:3px"/><path d="M86.72,25.14H64.26a2.43,2.43,0,0,0-2.14,2.63V43.32a2.42,2.42,0,0,0,2.14,2.63h4.49v6.59l8.71-6.59h9.26a2.42,2.42,0,0,0,2.14-2.63V27.78A2.43,2.43,0,0,0,86.72,25.14Z" style="fill:#ff6464;stroke:#212121;stroke-linecap:round;stroke-linejoin:round;stroke-width:3px"/><line x1="71.43" y1="31.79" x2="79.56" y2="31.79" style="fill:#ff6464;stroke:#212121;stroke-linecap:round;stroke-linejoin:round;stroke-width:3px"/><line x1="71.43" y1="38.16" x2="79.56" y2="38.16" style="fill:#ff6464;stroke:#212121;stroke-linecap:round;stroke-linejoin:round;stroke-width:3px"/></svg>