<svg id="Layer_8" data-name="Layer 8" xmlns="http://www.w3.org/2000/svg" viewBox="0 0 100 100" width="80px"><title>ico_13</title><polyline points="85.09 37.42 85.09 81.58 23.4 81.58" style="fill:#fff;stroke:#212121;stroke-width:3px"/><rect x="18.33" y="32.36" width="61.69" height="44.16" style="fill:#fff;stroke:#212121;stroke-width:3px"/><path d="M28.23,34.39a1.75,1.75,0,0,1-1.75,1.75h0a1.75,1.75,0,0,1-1.75-1.75V28.86a1.75,1.75,0,0,1,1.75-1.75h0a1.75,1.75,0,0,1,1.75,1.75Z" style="fill:#73c679;stroke:#212121;stroke-linecap:round;stroke-linejoin:round;stroke-width:3px"/><path d="M39.58,34.39a1.75,1.75,0,0,1-1.75,1.75h0a1.75,1.75,0,0,1-1.75-1.75V28.86a1.75,1.75,0,0,1,1.75-1.75h0a1.75,1.75,0,0,1,1.75,1.75Z" style="fill:#73c679;stroke:#212121;stroke-linecap:round;stroke-linejoin:round;stroke-width:3px"/><path d="M50.92,34.39a1.75,1.75,0,0,1-1.75,1.75h0a1.75,1.75,0,0,1-1.75-1.75V28.86a1.75,1.75,0,0,1,1.75-1.75h0a1.75,1.75,0,0,1,1.75,1.75Z" style="fill:#73c679;stroke:#212121;stroke-linecap:round;stroke-linejoin:round;stroke-width:3px"/><path d="M62.27,34.39a1.75,1.75,0,0,1-1.75,1.75h0a1.75,1.75,0,0,1-1.75-1.75V28.86a1.75,1.75,0,0,1,1.75-1.75h0a1.75,1.75,0,0,1,1.75,1.75Z" style="fill:#73c679;stroke:#212121;stroke-linecap:round;stroke-linejoin:round;stroke-width:3px"/><path d="M73.62,34.39a1.75,1.75,0,0,1-1.75,1.75h0a1.75,1.75,0,0,1-1.75-1.75V28.86a1.75,1.75,0,0,1,1.75-1.75h0a1.75,1.75,0,0,1,1.75,1.75Z" style="fill:#73c679;stroke:#212121;stroke-linecap:round;stroke-linejoin:round;stroke-width:3px"/><rect x="27.91" y="47.66" width="13.95" height="16.42" style="fill:#ff6464;stroke:#212121;stroke-linecap:round;stroke-linejoin:round;stroke-width:3px"/><line x1="52.7" y1="49.11" x2="69.48" y2="49.11" style="fill:none;stroke:#212121;stroke-linecap:round;stroke-linejoin:round;stroke-width:3px"/><line x1="52.7" y1="55.64" x2="69.48" y2="55.64" style="fill:none;stroke:#212121;stroke-linecap:round;stroke-linejoin:round;stroke-width:3px"/><line x1="52.7" y1="62.18" x2="69.48" y2="62.18" style="fill:none;stroke:#212121;stroke-linecap:round;stroke-linejoin:round;stroke-width:3px"/><line x1="47.76" y1="49.11" x2="48.29" y2="49.11" style="fill:none;stroke:#212121;stroke-linecap:round;stroke-linejoin:round;stroke-width:3px"/><line x1="47.76" y1="55.64" x2="48.29" y2="55.64" style="fill:none;stroke:#212121;stroke-linecap:round;stroke-linejoin:round;stroke-width:3px"/><line x1="47.76" y1="62.18" x2="48.29" y2="62.18" style="fill:none;stroke:#212121;stroke-linecap:round;stroke-linejoin:round;stroke-width:3px"/><polygon points="40.14 85.57 34.48 80.52 28.81 85.57 28.81 77.2 28.81 68.84 34.48 68.84 40.14 68.84 40.14 77.2 40.14 85.57" style="fill:#ffe885;stroke:#212121;stroke-linejoin:round;stroke-width:3px"/><line x1="23.67" y1="68.84" x2="45.28" y2="68.84" style="fill:#fff;stroke:#212121;stroke-linecap:round;stroke-linejoin:round;stroke-width:3px"/></svg>