<svg id="Layer_8" data-name="Layer 8" xmlns="http://www.w3.org/2000/svg" viewBox="0 0 100 100" width="80px"><title>ico_21</title><rect x="18.84" y="27.03" width="64.25" height="10.99" style="fill:#7795c6;stroke:#212121;stroke-linecap:round;stroke-linejoin:round;stroke-width:3px"/><rect x="18.84" y="38.02" width="45.47" height="39.98" style="fill:#fff"/><polyline points="18.84 58.01 18.84 68.01 18.84 78 30.2 78 41.57 78 52.94 78 64.31 78 64.31 68.01 64.31 58.01 64.31 48.02 64.31 38.02 52.94 38.02 41.57 38.02 30.2 38.02 18.84 38.02 18.84 48.02" style="fill:none;stroke:#212121;stroke-width:3px"/><rect x="64.31" y="38.02" width="18.78" height="39.98" style="fill:#fff;stroke:#212121;stroke-width:3px"/><line x1="31.25" y1="49.48" x2="27.1" y2="49.48" style="fill:#fff;stroke:#212121;stroke-width:3px"/><line x1="31.25" y1="56.49" x2="27.1" y2="56.49" style="fill:#fff;stroke:#212121;stroke-width:3px"/><line x1="31.25" y1="63.5" x2="27.1" y2="63.5" style="fill:#fff;stroke:#212121;stroke-width:3px"/><line x1="34.36" y1="49.48" x2="54.95" y2="49.48" style="fill:#fff;stroke:#212121;stroke-width:3px"/><line x1="34.36" y1="56.49" x2="54.95" y2="56.49" style="fill:#fff;stroke:#212121;stroke-width:3px"/><line x1="34.36" y1="63.5" x2="54.95" y2="63.5" style="fill:#fff;stroke:#212121;stroke-width:3px"/><line x1="73.27" y1="32.64" x2="77.52" y2="32.64" style="fill:#fff;stroke:#212121;stroke-width:3px"/><rect x="71.19" y="51.36" width="5.13" height="14.7" style="fill:#ff6464;stroke:#212121;stroke-linecap:round;stroke-linejoin:round;stroke-width:3px"/><rect x="80.49" y="47.07" width="5.13" height="18.99" style="fill:#ff6464;stroke:#212121;stroke-linecap:round;stroke-linejoin:round;stroke-width:3px"/><rect x="89.8" y="51.36" width="5.13" height="14.7" style="fill:#ff6464;stroke:#212121;stroke-linecap:round;stroke-linejoin:round;stroke-width:3px"/><line x1="14.18" y1="53.54" x2="21.65" y2="53.54" style="fill:none;stroke:#212121;stroke-width:3px"/></svg>