<?xml version="1.0" encoding="utf-8"?>
<!-- Generator: Adobe Illustrator 16.0.0, SVG Export Plug-In . SVG Version: 6.00 Build 0)  -->
<!DOCTYPE svg PUBLIC "-//W3C//DTD SVG 1.1//EN" "http://www.w3.org/Graphics/SVG/1.1/DTD/svg11.dtd">
<svg version="1.1" id="Layer_1" xmlns="http://www.w3.org/2000/svg" xmlns:xlink="http://www.w3.org/1999/xlink" x="0px" y="0px"
	 width="100px" height="100px" viewBox="0 0 100 100" enable-background="new 0 0 100 100" xml:space="preserve">
<g>
	<polygon fill="#6895C8" points="27.93,47.545 20.001,59.703 20.001,72.389 50,72.389 50,47.545 	"/>
	<g>
		<defs>
			<rect id="SVGID_1_" x="19" y="20.662" width="62" height="58.676"/>
		</defs>
		<clipPath id="SVGID_2_">
			<use xlink:href="#SVGID_1_"  overflow="visible"/>
		</clipPath>
		<path clip-path="url(#SVGID_2_)" fill="#1B1B1B" d="M51.002,73.391H19V59.404l8.388-12.86h23.614V73.391z M21.002,71.389h27.996
			V48.546H28.473L21.002,60V71.389z"/>
	</g>
	<rect x="38.37" y="32.479" fill="#FF8383" width="41.629" height="39.91"/>
	<g>
		<defs>
			<rect id="SVGID_3_" x="19" y="20.662" width="62" height="58.676"/>
		</defs>
		<clipPath id="SVGID_4_">
			<use xlink:href="#SVGID_3_"  overflow="visible"/>
		</clipPath>
		<path clip-path="url(#SVGID_4_)" fill="#1B1B1B" d="M79.999,73.391H38.37c-0.553,0-1.001-0.449-1.001-1.002v-39.91
			c0-0.553,0.448-1.001,1.001-1.001h41.629c0.553,0,1.001,0.448,1.001,1.001v39.91C81,72.941,80.552,73.391,79.999,73.391z
			 M39.371,71.389h39.626V33.48H39.371V71.389z"/>
		<path clip-path="url(#SVGID_4_)" fill="#FFFFFF" d="M63.479,73.184c0,2.846,2.309,5.154,5.154,5.154
			c2.848,0,5.155-2.309,5.155-5.154c0-2.848-2.308-5.156-5.155-5.156C65.787,68.027,63.479,70.336,63.479,73.184"/>
		<path clip-path="url(#SVGID_4_)" fill="#1B1B1B" d="M68.633,79.338c-3.394,0-6.154-2.762-6.154-6.154
			c0-3.395,2.761-6.156,6.154-6.156c3.395,0,6.156,2.762,6.156,6.156C74.789,76.576,72.027,79.338,68.633,79.338z M68.633,69.029
			c-2.289,0-4.152,1.863-4.152,4.154c0,2.289,1.863,4.152,4.152,4.152c2.291,0,4.154-1.863,4.154-4.152
			C72.787,70.893,70.924,69.029,68.633,69.029z"/>
		<path clip-path="url(#SVGID_4_)" fill="#FFFFFF" d="M23.041,73.184c0,2.846,2.307,5.154,5.154,5.154
			c2.846,0,5.153-2.309,5.153-5.154c0-2.848-2.307-5.156-5.153-5.156C25.348,68.027,23.041,70.336,23.041,73.184"/>
		<path clip-path="url(#SVGID_4_)" fill="#1B1B1B" d="M28.195,79.338c-3.394,0-6.156-2.762-6.156-6.154
			c0-3.395,2.762-6.156,6.156-6.156c3.394,0,6.154,2.762,6.154,6.156C34.35,76.576,31.589,79.338,28.195,79.338z M28.195,69.029
			c-2.29,0-4.153,1.863-4.153,4.154c0,2.289,1.863,4.152,4.153,4.152c2.29,0,4.152-1.863,4.152-4.152
			C32.347,70.893,30.485,69.029,28.195,69.029z"/>
		<path clip-path="url(#SVGID_4_)" fill="#FFED64" d="M54.399,21.663c-2.021,0-3.657,1.637-3.657,3.657v25.531
			c0-2.021,1.637-3.657,3.657-3.657h24.652V21.663H54.399z"/>
		<path clip-path="url(#SVGID_4_)" fill="#1B1B1B" d="M50.742,51.852c-0.553,0-1.001-0.448-1.001-1.001V25.32
			c0-2.568,2.089-4.659,4.659-4.659h24.652c0.553,0,1.001,0.448,1.001,1.001v25.531c0,0.553-0.448,1.001-1.001,1.001H54.399
			c-1.465,0-2.656,1.191-2.656,2.656C51.743,51.403,51.295,51.852,50.742,51.852z M54.399,22.664c-1.465,0-2.656,1.191-2.656,2.656
			v21.705c0.755-0.525,1.67-0.833,2.656-0.833h23.65V22.664H54.399z"/>
		<path clip-path="url(#SVGID_4_)" fill="#FFFFFF" d="M50.741,50.851v0.462c0,2.02,1.638,3.656,3.658,3.656h24.652v-7.776H54.399
			C52.379,47.193,50.741,48.831,50.741,50.851"/>
		<path clip-path="url(#SVGID_4_)" fill="#1B1B1B" d="M80.053,55.971H54.399c-2.569,0-4.66-2.09-4.66-4.658v-0.462
			c0-2.569,2.09-4.659,4.66-4.659h25.653V55.971z M54.399,48.194c-1.466,0-2.657,1.191-2.657,2.656v0.462
			c0,1.464,1.191,2.655,2.657,2.655h23.65v-5.773H54.399z"/>
		<line clip-path="url(#SVGID_4_)" fill="#FFFFFF" x1="53.822" y1="51.302" x2="78.466" y2="51.302"/>
		<rect x="53.822" y="50.301" clip-path="url(#SVGID_4_)" fill="#1B1B1B" width="24.644" height="2.002"/>
		<line clip-path="url(#SVGID_4_)" fill="#FFFFFF" x1="71.346" y1="31.637" x2="74.913" y2="31.637"/>
		<rect x="71.346" y="30.635" clip-path="url(#SVGID_4_)" fill="#1B1B1B" width="3.567" height="2.002"/>
		<line clip-path="url(#SVGID_4_)" fill="#FFFFFF" x1="71.346" y1="35.741" x2="74.913" y2="35.741"/>
		<rect x="71.346" y="34.74" clip-path="url(#SVGID_4_)" fill="#1B1B1B" width="3.567" height="2.002"/>
		<line clip-path="url(#SVGID_4_)" fill="#FFFFFF" x1="71.346" y1="39.844" x2="74.913" y2="39.844"/>
		<rect x="71.346" y="38.842" clip-path="url(#SVGID_4_)" fill="#1B1B1B" width="3.567" height="2.003"/>
		<line clip-path="url(#SVGID_4_)" fill="#FFFFFF" x1="64.625" y1="31.637" x2="68.193" y2="31.637"/>
		<rect x="64.625" y="30.635" clip-path="url(#SVGID_4_)" fill="#1B1B1B" width="3.568" height="2.002"/>
		<line clip-path="url(#SVGID_4_)" fill="#FFFFFF" x1="64.625" y1="35.741" x2="68.193" y2="35.741"/>
		<rect x="64.625" y="34.74" clip-path="url(#SVGID_4_)" fill="#1B1B1B" width="3.568" height="2.002"/>
		<line clip-path="url(#SVGID_4_)" fill="#FFFFFF" x1="64.625" y1="39.844" x2="68.193" y2="39.844"/>
		<rect x="64.625" y="38.842" clip-path="url(#SVGID_4_)" fill="#1B1B1B" width="3.568" height="2.003"/>
		<path clip-path="url(#SVGID_4_)" fill="#FF6464" d="M62.19,26.021c-0.202-0.068-0.394-0.104-0.577-0.115
			c-1.376-0.086-2.237,1.244-2.502,1.517c-0.266-0.273-1.127-1.603-2.503-1.517c-0.184,0.011-0.375,0.046-0.577,0.115
			c-2.043,0.686-2.504,4.547,3.078,7.115c0,0,0.001,0.001,0.001,0.001c0-0.001,0-0.001,0.001-0.001c0,0,0,0,0.001,0.001v-0.001
			C64.695,30.568,64.233,26.706,62.19,26.021"/>
		<path clip-path="url(#SVGID_4_)" fill="#1B1B1B" d="M59.111,34.137c-0.145,0-0.289-0.032-0.42-0.092
			c-3.295-1.515-5.188-3.793-5.063-6.095c0.072-1.348,0.89-2.479,2.085-2.879c0.273-0.092,0.555-0.148,0.834-0.165
			c0.063-0.004,0.127-0.006,0.189-0.006c1.049,0,1.838,0.526,2.375,1.031c0.568-0.535,1.432-1.093,2.564-1.025
			c0.279,0.017,0.561,0.073,0.836,0.166c1.191,0.4,2.01,1.53,2.082,2.878c0.124,2.301-1.77,4.58-5.063,6.095
			C59.396,34.107,59.253,34.137,59.111,34.137L59.111,34.137L59.111,34.137z M56.736,26.903c-0.001,0-0.066,0.002-0.067,0.002
			c-0.104,0.006-0.208,0.027-0.317,0.064c-0.426,0.143-0.695,0.549-0.725,1.088c-0.057,1.066,0.84,2.643,3.485,3.969
			c2.644-1.327,3.54-2.903,3.482-3.969c-0.029-0.539-0.3-0.945-0.724-1.087c-0.109-0.037-0.213-0.058-0.318-0.064l-0.066-0.002
			c-0.641,0-1.171,0.641-1.455,0.985c-0.084,0.1-0.151,0.18-0.202,0.232c-0.188,0.194-0.448,0.304-0.718,0.304H59.11
			c-0.271,0-0.53-0.11-0.719-0.305c-0.05-0.052-0.118-0.131-0.2-0.23C57.907,27.544,57.377,26.903,56.736,26.903z"/>
	</g>
</g>
</svg>
