<svg id="Layer_8" data-name="Layer 8" xmlns="http://www.w3.org/2000/svg" viewBox="0 0 100 100" width="80px"><title>ico_08</title><path d="M23.65,73.38H55.39a6.42,6.42,0,0,1,6.42,6.42v1.15a0,0,0,0,1,0,0H17.23a0,0,0,0,1,0,0V79.8A6.42,6.42,0,0,1,23.65,73.38Z" style="fill:#aa8671;stroke:#363436;stroke-linecap:round;stroke-linejoin:round;stroke-width:1.5px"/><rect x="10.24" y="80.95" width="58.57" height="7.57" rx="3.21" ry="3.21" style="fill:#aa8671;stroke:#363436;stroke-linecap:round;stroke-linejoin:round;stroke-width:1.5px"/><rect x="39.18" y="26.96" width="30.55" height="16.9" transform="translate(-9.09 48.88) rotate(-45)" style="fill:#aa8671;stroke:#363436;stroke-linecap:round;stroke-linejoin:round;stroke-width:1.5px"/><rect x="37.93" y="36.79" width="6.71" height="23.59" rx="2.85" ry="2.85" transform="translate(-22.26 43.42) rotate(-45)" style="fill:#aa8671;stroke:#363436;stroke-linecap:round;stroke-linejoin:round;stroke-width:1.5px"/><path d="M91.15,72.11h0a4.35,4.35,0,0,1-6.3-.15L58.67,43.14l3.51-3.51L91,65.81A4.35,4.35,0,0,1,91.15,72.11Z" style="fill:#aa8671;stroke:#363436;stroke-linecap:round;stroke-linejoin:round;stroke-width:1.5px"/></svg>