<svg id="Layer_8" data-name="Layer 8" xmlns="http://www.w3.org/2000/svg" viewBox="0 0 100 100" width="80px"><title>ico_12</title><circle cx="36.7" cy="42.52" r="9.9" style="fill:#58c4dd;stroke:#212121;stroke-linecap:round;stroke-width:3px"/><path d="M45.79,57.34H27.6A8.56,8.56,0,0,0,19,65.9V82.41H54.35V65.9A8.56,8.56,0,0,0,45.79,57.34Z" style="fill:#58c4dd;stroke:#212121;stroke-linecap:round;stroke-width:3px"/><circle cx="65.3" cy="42.52" r="9.9" style="fill:#ffed6e;stroke:#212121;stroke-width:3px"/><path d="M74.4,57.34H56.21a8.56,8.56,0,0,0-8.56,8.56V82.41H83V65.9A8.56,8.56,0,0,0,74.4,57.34Z" style="fill:#ffed6e;stroke:#212121;stroke-width:3px"/><path d="M63.86,15.12H47.8a2.68,2.68,0,0,0-2.68,2.68v8.8a2.68,2.68,0,0,0,2.68,2.68h3.93l-2.27,5.87,9.47-5.87h4.94a2.68,2.68,0,0,0,2.68-2.68V17.8A2.68,2.68,0,0,0,63.86,15.12Z" style="fill:#fff;stroke:#212121;stroke-width:3px"/><line x1="50.08" y1="20.18" x2="61.57" y2="20.18" style="fill:#fff;stroke:#212121;stroke-width:3px"/><line x1="50.08" y1="24.14" x2="61.57" y2="24.14" style="fill:#fff;stroke:#212121;stroke-width:3px"/><rect x="58.94" y="69.29" width="15.59" height="19.59" style="fill:#fff;stroke:#212121;stroke-linejoin:round;stroke-width:3px"/><line x1="63.34" y1="73.89" x2="70.13" y2="73.89" style="fill:#fff;stroke:#212121;stroke-linejoin:round;stroke-width:3px"/><line x1="63.34" y1="78.08" x2="70.13" y2="78.08" style="fill:#fff;stroke:#212121;stroke-linejoin:round;stroke-width:3px"/><line x1="63.34" y1="82.28" x2="70.13" y2="82.28" style="fill:#fff;stroke:#212121;stroke-linejoin:round;stroke-width:3px"/></svg>