<svg id="Layer_8" data-name="Layer 8" xmlns="http://www.w3.org/2000/svg" viewBox="0 0 100 100" width="80px"><title>ico_15</title><path d="M75.69,29.84a5.44,5.44,0,0,0-5.44-5.44H20.58a5.44,5.44,0,0,0-5.44,5.44V38.9H75.69Z" style="fill:#ff6464;stroke:#212121;stroke-width:3px"/><path d="M15.14,38.9V75.16a5.44,5.44,0,0,0,5.44,5.44H70.25a5.44,5.44,0,0,0,5.44-5.44V38.9Z" style="fill:#ffed6e;stroke:#212121;stroke-linecap:round;stroke-linejoin:round;stroke-width:3px"/><rect x="21.67" y="46.88" width="47.5" height="26.11" style="fill:#fff;stroke:#212121;stroke-width:3px"/><line x1="21.67" y1="64.28" x2="69.16" y2="64.28" style="fill:#fff;stroke:#212121;stroke-width:3px"/><line x1="21.67" y1="55.58" x2="69.16" y2="55.58" style="fill:#fff;stroke:#212121;stroke-width:3px"/><line x1="53.34" y1="46.88" x2="53.34" y2="72.98" style="fill:#fff;stroke:#212121;stroke-width:3px"/><line x1="37.5" y1="46.88" x2="37.5" y2="72.98" style="fill:#fff;stroke:#212121;stroke-width:3px"/><path d="M33.09,27.17a3.7,3.7,0,0,1-3.7,3.7h0a3.7,3.7,0,0,1-3.7-3.7V17.31a3.7,3.7,0,0,1,3.7-3.7h0a3.7,3.7,0,0,1,3.7,3.7Z" style="fill:#fff;stroke:#212121;stroke-width:3px"/><path d="M65.14,27.17a3.7,3.7,0,0,1-3.7,3.7h0a3.7,3.7,0,0,1-3.7-3.7V17.31a3.7,3.7,0,0,1,3.7-3.7h0a3.7,3.7,0,0,1,3.7,3.7Z" style="fill:#fff;stroke:#212121;stroke-width:3px"/><rect x="47.13" y="67.77" width="41.34" height="23.48" style="fill:#fff;stroke:#212121;stroke-width:3px"/><rect x="47.13" y="61.14" width="41.34" height="6.63" style="fill:#fff;stroke:#212121;stroke-width:3px"/><line x1="72.52" y1="74.13" x2="81.38" y2="74.13" style="fill:#fff;stroke:#212121;stroke-width:3px"/><line x1="72.52" y1="79.45" x2="81.38" y2="79.45" style="fill:#fff;stroke:#212121;stroke-width:3px"/><line x1="72.52" y1="84.76" x2="81.38" y2="84.76" style="fill:#fff;stroke:#212121;stroke-width:3px"/></svg>