<svg id="Layer_8" data-name="Layer 8" xmlns="http://www.w3.org/2000/svg" viewBox="0 0 100 100" width="80px"><title>ico_16</title><path d="M40.68,29.9a7.89,7.89,0,1,1,15.79,0V42.77h7.72V29.9A15.62,15.62,0,1,0,33,29.9V42.77h7.72Z" style="fill:#ff6464;stroke:#212121;stroke-linecap:round;stroke-linejoin:round;stroke-width:3px"/><path d="M33,40.49H30.73a5.15,5.15,0,0,0-5.15,5.15V79.78a5.15,5.15,0,0,0,5.15,5.15H66.42a5.15,5.15,0,0,0,5.15-5.15V45.63a5.15,5.15,0,0,0-5.15-5.15H64.19" style="fill:#ffed6e;stroke:#212121;stroke-linecap:round;stroke-linejoin:round;stroke-width:3px"/><line x1="40.68" y1="40.49" x2="32.96" y2="40.49" style="fill:#fff;stroke:#212121;stroke-width:3px"/><line x1="64.19" y1="40.49" x2="56.47" y2="40.49" style="fill:#fff;stroke:#212121;stroke-width:3px"/><line x1="56.47" y1="40.49" x2="40.68" y2="40.49" style="fill:#fff;stroke:#212121;stroke-width:3px"/><line x1="41.27" y1="55.43" x2="55.88" y2="55.43" style="fill:#fff;stroke:#212121;stroke-width:3px"/><line x1="41.27" y1="64.2" x2="55.88" y2="64.2" style="fill:#fff;stroke:#212121;stroke-width:3px"/><line x1="41.27" y1="72.97" x2="55.88" y2="72.97" style="fill:#fff;stroke:#212121;stroke-width:3px"/><circle cx="66.83" cy="74.47" r="18.35" style="fill:#fff;stroke:#212121;stroke-width:3px"/><circle cx="66.83" cy="74.47" r="11.47" style="fill:#fff;stroke:#212121;stroke-width:3px"/><line x1="66.63" y1="59.06" x2="66.63" y2="62.49" style="fill:#fff;stroke:#212121;stroke-width:3px"/><line x1="66.63" y1="85.9" x2="66.63" y2="89.34" style="fill:#fff;stroke:#212121;stroke-width:3px"/><line x1="59.06" y1="61.09" x2="60.78" y2="64.06" style="fill:#fff;stroke:#212121;stroke-width:3px"/><line x1="72.48" y1="84.33" x2="74.2" y2="87.31" style="fill:#fff;stroke:#212121;stroke-width:3px"/><line x1="53.52" y1="66.63" x2="56.49" y2="68.34" style="fill:#fff;stroke:#212121;stroke-width:3px"/><line x1="76.77" y1="80.05" x2="79.74" y2="81.77" style="fill:#fff;stroke:#212121;stroke-width:3px"/><line x1="51.49" y1="74.19" x2="54.92" y2="74.19" style="fill:#fff;stroke:#212121;stroke-width:3px"/><line x1="78.33" y1="74.2" x2="81.77" y2="74.19" style="fill:#fff;stroke:#212121;stroke-width:3px"/><line x1="53.52" y1="81.77" x2="56.49" y2="80.05" style="fill:#fff;stroke:#212121;stroke-width:3px"/><line x1="76.77" y1="68.34" x2="79.74" y2="66.63" style="fill:#fff;stroke:#212121;stroke-width:3px"/><line x1="59.06" y1="87.31" x2="60.78" y2="84.33" style="fill:#fff;stroke:#212121;stroke-width:3px"/><line x1="72.48" y1="64.06" x2="74.2" y2="61.09" style="fill:#fff;stroke:#212121;stroke-width:3px"/><circle cx="66.83" cy="74.47" r="5.38" style="fill:#ff6464;stroke:#212121;stroke-linecap:round;stroke-linejoin:round;stroke-width:3px"/></svg>