<svg id="Layer_8" data-name="Layer 8" xmlns="http://www.w3.org/2000/svg" viewBox="0 0 100 100" width="80px"><title>ico_06</title><polygon points="36.27 32.59 15.26 47.94 36.31 47.94 36.31 32.59 36.27 32.59" style="fill:#55c6ff;stroke:#212121;stroke-linecap:round;stroke-linejoin:round;stroke-width:3px"/><polygon points="63.73 32.59 36.31 32.59 36.31 47.94 63.74 47.94 63.74 32.59 63.73 32.59" style="fill:#fff;stroke:#212121;stroke-linejoin:round;stroke-width:3px"/><polygon points="63.74 32.59 63.74 47.94 84.74 47.94 63.74 32.59" style="fill:#55c6ff;stroke:#212121;stroke-linecap:round;stroke-linejoin:round;stroke-width:3px"/><rect x="34.23" y="15.36" width="31.54" height="43.18" style="fill:#fff;stroke:#212121;stroke-width:3px"/><rect x="32.19" y="19.4" width="35.63" height="48.78" style="fill:#fff;stroke:#212121;stroke-width:3px"/><polyline points="70.37 24.07 70.37 79.83 29.63 79.83 29.63 24.07" style="fill:#fff;stroke:#212121;stroke-width:3px"/><line x1="35.86" y1="32.06" x2="64.14" y2="32.06" style="fill:#fff;stroke:#212121;stroke-width:3px"/><line x1="35.86" y1="37.5" x2="64.14" y2="37.5" style="fill:#fff;stroke:#212121;stroke-width:3px"/><rect x="34.23" y="15.36" width="31.54" height="43.18" style="fill:#fff;stroke:#212121;stroke-width:3px"/><rect x="32.19" y="19.4" width="35.63" height="48.78" style="fill:#fff;stroke:#212121;stroke-width:3px"/><polyline points="40.78 24.07 55.09 24.07 60.18 24.07 65.28 24.07 70.37 24.07 70.37 31.04 70.37 38.01 70.37 44.98 70.37 51.95 70.37 58.92 70.37 65.89 70.37 72.86 70.37 79.83 65.28 79.83 60.18 79.83 55.09 79.83 50 79.83 44.91 79.83 39.82 79.83 34.72 79.83 29.63 79.83 29.63 72.86 29.63 65.89 29.63 58.92 29.63 51.95 29.63 44.98 29.63 38.01 29.63 31.04 29.63 24.07 34.72 24.07" style="fill:#fff;stroke:#212121;stroke-width:3px"/><line x1="36.11" y1="24.07" x2="39.08" y2="24.07" style="fill:#fff;stroke:#212121;stroke-width:3px"/><line x1="35.86" y1="32.06" x2="64.14" y2="32.06" style="fill:#fff;stroke:#212121;stroke-width:3px"/><line x1="35.86" y1="37.5" x2="64.14" y2="37.5" style="fill:#fff;stroke:#212121;stroke-width:3px"/><polyline points="84.74 88.33 84.74 47.94 15.26 47.94 15.26 88.33" style="fill:#55c6ff"/><rect x="37.48" y="58.44" width="25.05" height="6.46" rx="0.81" ry="0.81" style="fill:#fff;stroke:#212121;stroke-linejoin:round;stroke-width:3px"/><polyline points="31.44 88.33 58.69 88.33 67.37 88.33 76.06 88.33 84.74 88.33 84.74 83.28 84.74 78.24 84.74 73.19 84.74 68.14 84.74 63.09 84.74 58.04 84.74 52.99 84.74 47.94 76.06 47.94 67.37 47.94 58.69 47.94 50 47.94 41.31 47.94 32.63 47.94 23.94 47.94 15.26 47.94 15.26 52.99 15.26 58.04 15.26 63.09 15.26 68.14 15.26 73.19 15.26 78.24 15.26 83.28 15.26 88.33 23.94 88.33" style="fill:none;stroke:#212121;stroke-linejoin:round;stroke-width:3px"/><line x1="25.98" y1="88.33" x2="29.32" y2="88.33" style="fill:none;stroke:#212121;stroke-linejoin:round;stroke-width:3px"/><line x1="78.09" y1="70.43" x2="33.52" y2="70.43" style="fill:none;stroke:#212121;stroke-width:3px"/></svg>