<svg id="Layer_8" data-name="Layer 8" xmlns="http://www.w3.org/2000/svg" viewBox="0 0 100 100" width="80px"><title>ico_05</title><path d="M31.47,17.78a7.6,7.6,0,0,0-7.6,7.6v53a7.6,7.6,0,0,1,7.6-7.6h51.2v-53Z" style="fill:#ffed6e;stroke:#212121;stroke-linecap:round;stroke-linejoin:round;stroke-width:3px"/><path d="M23.87,78.4v1a7.6,7.6,0,0,0,7.6,7.6h51.2V70.8H31.47A7.6,7.6,0,0,0,23.87,78.4Z" style="fill:#fff;stroke:#212121;stroke-width:3px"/><line x1="30.27" y1="79.34" x2="81.45" y2="79.34" style="fill:#fff;stroke:#212121;stroke-width:3px"/><line x1="66.71" y1="43.85" x2="74.12" y2="43.85" style="fill:#fff;stroke:#212121;stroke-width:3px"/><line x1="66.71" y1="52.37" x2="74.12" y2="52.37" style="fill:#fff;stroke:#212121;stroke-width:3px"/><line x1="66.71" y1="60.89" x2="74.12" y2="60.89" style="fill:#fff;stroke:#212121;stroke-width:3px"/><line x1="52.76" y1="43.85" x2="60.16" y2="43.85" style="fill:#fff;stroke:#212121;stroke-width:3px"/><line x1="52.76" y1="52.37" x2="60.16" y2="52.37" style="fill:#fff;stroke:#212121;stroke-width:3px"/><line x1="52.76" y1="60.89" x2="60.16" y2="60.89" style="fill:#fff;stroke:#212121;stroke-width:3px"/><path d="M47.65,28.22a4.65,4.65,0,0,0-1.2-.24c-2.86-.18-4.65,2.58-5.2,3.15-.55-.57-2.34-3.33-5.2-3.15a4.66,4.66,0,0,0-1.2.24c-4.24,1.42-5.2,9.44,6.39,14.78h0C52.85,37.67,51.89,29.65,47.65,28.22Z" style="fill:#ff6464;stroke:#212121;stroke-linecap:round;stroke-linejoin:round;stroke-width:3px"/></svg>