<svg id="Layer_8" data-name="Layer 8" xmlns="http://www.w3.org/2000/svg" viewBox="0 0 100 100" width="80px"><title>ico_19</title><path d="M21.84,75.3a3.39,3.39,0,0,0-3.39,3.39v9.68H84.58V78.69a3.4,3.4,0,0,0-3.39-3.39" style="fill:#fff;stroke:#212121;stroke-width:3px"/><path d="M52,25.49H51A22.73,22.73,0,0,0,28.37,48.11V75.3H74.66V48.11A22.63,22.63,0,0,0,52,25.49Z" style="fill:#ff6464;stroke:#212121;stroke-linecap:round;stroke-linejoin:round;stroke-width:3px"/><path d="M52,32.7a15.36,15.36,0,0,1,10.89,4.52" style="fill:#ff6464;stroke:#212121;stroke-linecap:round;stroke-linejoin:round;stroke-width:3px"/><rect x="66.49" y="47" width="20.44" height="21.49" style="fill:#fff;stroke:#212121;stroke-width:3px"/><line x1="73.83" y1="54.87" x2="79.59" y2="54.87" style="fill:none;stroke:#212121;stroke-width:3px"/><line x1="73.83" y1="60.63" x2="79.59" y2="60.63" style="fill:none;stroke:#212121;stroke-width:3px"/><line x1="51.52" y1="9.59" x2="51.52" y2="18.52" style="fill:#fff;stroke:#212121;stroke-width:3px"/><line x1="32.6" y1="14.65" x2="37.07" y2="22.39" style="fill:#fff;stroke:#212121;stroke-width:3px"/><line x1="18.75" y1="28.5" x2="26.49" y2="32.97" style="fill:#fff;stroke:#212121;stroke-width:3px"/><line x1="76.54" y1="32.97" x2="84.28" y2="28.5" style="fill:#fff;stroke:#212121;stroke-width:3px"/><line x1="65.97" y1="22.39" x2="70.43" y2="14.65" style="fill:#fff;stroke:#212121;stroke-width:3px"/></svg>