<svg id="Layer_8" data-name="Layer 8" xmlns="http://www.w3.org/2000/svg" viewBox="0 0 100 100" width="80px"><title>ico_07</title><rect x="52.89" y="18.61" width="15.47" height="17.19" style="fill:#fff;stroke:#212121;stroke-width:3px"/><path d="M79.23,63v8.86a6.4,6.4,0,0,1-6.4,6.4h-47a6.4,6.4,0,0,1-6.4-6.4V26.62a6.4,6.4,0,0,1,6.4-6.41H39.09a6.4,6.4,0,0,1,6.4,6.41V30H72.83a6.4,6.4,0,0,1,6.4,6.4V45.3" style="fill:#ffed6e"/><path d="M41.59,20.71a6.4,6.4,0,0,1,3.91,5.9V30H72.83a6.4,6.4,0,0,1,6.4,6.4V45.3" style="fill:none;stroke:#212121;stroke-width:3px"/><line x1="32.48" y1="20.21" x2="35.79" y2="20.21" style="fill:none;stroke:#212121;stroke-width:3px"/><path d="M79.23,63v8.86a6.4,6.4,0,0,1-6.4,6.4h-47a6.4,6.4,0,0,1-6.4-6.4V26.62a6.4,6.4,0,0,1,6.4-6.41h3.31" style="fill:none;stroke:#212121;stroke-width:3px"/><circle cx="70.16" cy="71.9" r="19.63" style="fill:#bcbcbc;stroke:#212121;stroke-width:3px"/><circle cx="79.94" cy="71.9" r="4.54" style="fill:#fff;stroke:#212121;stroke-width:3px"/><circle cx="60.38" cy="71.9" r="4.54" style="fill:#fff;stroke:#212121;stroke-width:3px"/><circle cx="70.16" cy="62.12" r="4.54" style="fill:#fff;stroke:#212121;stroke-width:3px"/><circle cx="70.16" cy="81.68" r="4.54" style="fill:#fff;stroke:#212121;stroke-width:3px"/><line x1="72.18" y1="91.53" x2="88" y2="91.53" style="fill:#fff;stroke:#212121;stroke-width:3px"/><line x1="59.02" y1="45.15" x2="63.52" y2="45.15" style="fill:none;stroke:#212121;stroke-width:3px"/><line x1="67.39" y1="45.15" x2="71.89" y2="45.15" style="fill:none;stroke:#212121;stroke-width:3px"/><line x1="20.46" y1="69.05" x2="24.76" y2="69.05" style="fill:none;stroke:#212121;stroke-width:3px"/><line x1="29.06" y1="69.05" x2="33.35" y2="69.05" style="fill:none;stroke:#212121;stroke-width:3px"/><line x1="37.65" y1="69.05" x2="41.95" y2="69.05" style="fill:none;stroke:#212121;stroke-width:3px"/><line x1="46.25" y1="69.05" x2="50.55" y2="69.05" style="fill:none;stroke:#212121;stroke-width:3px"/><rect x="14.21" y="41.82" width="15.47" height="17.19" style="fill:#fff;stroke:#212121;stroke-width:3px"/></svg>