<?xml version="1.0" encoding="utf-8"?>
<!-- Generator: Adobe Illustrator 16.0.0, SVG Export Plug-In . SVG Version: 6.00 Build 0)  -->
<!DOCTYPE svg PUBLIC "-//W3C//DTD SVG 1.1//EN" "http://www.w3.org/Graphics/SVG/1.1/DTD/svg11.dtd">
<svg version="1.1" id="Layer_1" xmlns="http://www.w3.org/2000/svg" xmlns:xlink="http://www.w3.org/1999/xlink" x="0px" y="0px"
	 width="100px" height="100px" viewBox="0 0 100 100" enable-background="new 0 0 100 100" xml:space="preserve">
<g>
	<defs>
		<rect id="SVGID_1_" x="30" y="22.601" width="40" height="54.799"/>
	</defs>
	<clipPath id="SVGID_2_">
		<use xlink:href="#SVGID_1_"  overflow="visible"/>
	</clipPath>
	<path clip-path="url(#SVGID_2_)" fill="#1B1B1B" d="M50,35.886c-5.349,0-9.701-5.959-9.701-13.285h1.618
		c0,6.434,3.625,11.667,8.083,11.667c4.457,0,8.082-5.234,8.082-11.667h1.617C59.699,29.926,55.349,35.886,50,35.886z"/>
	<path clip-path="url(#SVGID_2_)" fill="#FFFFFF" d="M52.117,45.186c0,1.169-0.947,2.118-2.117,2.118
		c-1.17,0-2.118-0.948-2.118-2.118V31.504c0-1.169,0.948-2.117,2.118-2.117c1.169,0,2.117,0.948,2.117,2.117V45.186z"/>
	<path clip-path="url(#SVGID_2_)" fill="#1B1B1B" d="M50,48.112c-1.614,0-2.927-1.313-2.927-2.926V31.504
		c0-1.613,1.313-2.926,2.927-2.926c1.613,0,2.925,1.313,2.925,2.926v13.682C52.926,46.799,51.613,48.112,50,48.112z M50,30.196
		c-0.722,0-1.309,0.587-1.309,1.308v13.682c0,0.722,0.587,1.309,1.309,1.309c0.721,0,1.308-0.587,1.308-1.309V31.504
		C51.309,30.783,50.722,30.196,50,30.196z"/>
	<path clip-path="url(#SVGID_2_)" fill="#FFFFFF" d="M69.191,57.399c0,10.599-8.593,19.191-19.191,19.191
		c-10.6,0-19.191-8.593-19.191-19.191c0-10.6,8.592-19.191,19.191-19.191C60.599,38.208,69.191,46.8,69.191,57.399"/>
	<path clip-path="url(#SVGID_2_)" fill="#1B1B1B" d="M50,77.399c-11.028,0-20-8.972-20-20s8.972-20,20-20c11.028,0,20,8.972,20,20
		S61.028,77.399,50,77.399z M50,39.017c-10.137,0-18.383,8.247-18.383,18.383c0,10.136,8.246,18.383,18.383,18.383
		c10.136,0,18.381-8.247,18.381-18.383C68.382,47.263,60.137,39.017,50,39.017z"/>
	<line clip-path="url(#SVGID_2_)" fill="#FFFFFF" x1="50" y1="42.381" x2="50" y2="46.275"/>
	<rect x="49.191" y="42.381" clip-path="url(#SVGID_2_)" fill="#1B1B1B" width="1.617" height="3.894"/>
	<line clip-path="url(#SVGID_2_)" fill="#FFFFFF" x1="50" y1="68.525" x2="50" y2="72.419"/>
	<rect x="49.191" y="68.525" clip-path="url(#SVGID_2_)" fill="#1B1B1B" width="1.617" height="3.894"/>
	<line clip-path="url(#SVGID_2_)" fill="#FFFFFF" x1="39.38" y1="46.779" x2="42.133" y2="49.532"/>
	
		<rect x="38.81" y="47.347" transform="matrix(0.7071 0.7071 -0.7071 0.7071 45.9883 -14.7145)" clip-path="url(#SVGID_2_)" fill="#1B1B1B" width="3.893" height="1.617"/>
	<line clip-path="url(#SVGID_2_)" fill="#FFFFFF" x1="57.867" y1="65.268" x2="60.621" y2="68.02"/>
	
		<rect x="57.298" y="65.834" transform="matrix(0.7074 0.7069 -0.7069 0.7074 64.4447 -22.3743)" clip-path="url(#SVGID_2_)" fill="#1B1B1B" width="3.893" height="1.619"/>
	<line clip-path="url(#SVGID_2_)" fill="#FFFFFF" x1="34.98" y1="57.399" x2="38.875" y2="57.399"/>
	<rect x="34.98" y="56.59" clip-path="url(#SVGID_2_)" fill="#1B1B1B" width="3.894" height="1.618"/>
	<line clip-path="url(#SVGID_2_)" fill="#FFFFFF" x1="61.125" y1="57.399" x2="65.02" y2="57.399"/>
	<rect x="61.125" y="56.59" clip-path="url(#SVGID_2_)" fill="#1B1B1B" width="3.895" height="1.618"/>
	<line clip-path="url(#SVGID_2_)" fill="#FFFFFF" x1="39.379" y1="68.02" x2="42.133" y2="65.268"/>
	
		<rect x="39.947" y="64.697" transform="matrix(0.7068 0.7074 -0.7074 0.7068 59.0936 -9.2915)" clip-path="url(#SVGID_2_)" fill="#1B1B1B" width="1.618" height="3.893"/>
	<line clip-path="url(#SVGID_2_)" fill="#FFFFFF" x1="57.867" y1="49.533" x2="60.621" y2="46.78"/>
	
		<rect x="58.435" y="46.209" transform="matrix(0.7073 0.707 -0.707 0.7073 51.3874 -27.7857)" clip-path="url(#SVGID_2_)" fill="#1B1B1B" width="1.618" height="3.894"/>
	<line clip-path="url(#SVGID_2_)" fill="#FFFFFF" x1="50" y1="57.399" x2="50" y2="49.163"/>
	<rect x="49.191" y="49.163" clip-path="url(#SVGID_2_)" fill="#1B1B1B" width="1.617" height="8.236"/>
</g>
</svg>
