<svg id="Layer_8" data-name="Layer 8" xmlns="http://www.w3.org/2000/svg" viewBox="0 0 100 100" width="80px"><title>ico_14</title><path d="M44.07,34.44A15.41,15.41,0,0,1,55.74,32.9a15.19,15.19,0,0,1,3.71,1.54,15.45,15.45,0,0,1,3.18,2.45h0a15.56,15.56,0,0,1,2.45,3.18,15.41,15.41,0,0,1,1.53,11.67L81.3,55.68a30.54,30.54,0,0,0-7.92-29.54h0a30.68,30.68,0,0,0-6.33-4.86,30.56,30.56,0,0,0-36.92,4.86L40.88,36.89A15.37,15.37,0,0,1,44.07,34.44Z" style="fill:#7795c6;stroke:#212121;stroke-linecap:round;stroke-linejoin:round;stroke-width:3px"/><path d="M36.46,74.25A30.58,30.58,0,0,0,81.3,55.68L66.62,51.74A15.38,15.38,0,0,1,55.74,62.62a15.38,15.38,0,0,1-14.86-4h0a15.45,15.45,0,0,1-2.44-3.18,15.4,15.4,0,0,1,0-15.39,15.46,15.46,0,0,1,2.45-3.18L30.13,26.13a30.8,30.8,0,0,0-4.86,6.33,30.57,30.57,0,0,0,4.86,36.92h0A30.68,30.68,0,0,0,36.46,74.25Z" style="fill:#ffe885;stroke:#212121;stroke-width:3px"/><path d="M75.19,40.75a6.37,6.37,0,0,0-6.37-6.36h-.9a8.31,8.31,0,0,0-15.26,3.06H50.28a4.83,4.83,0,1,0,0,9.67H69.37a4.81,4.81,0,0,0,3.28-1.29A6.35,6.35,0,0,0,75.19,40.75Z" style="fill:#fff;stroke:#212121;stroke-width:3px"/><path d="M80.52,81.68a9.83,9.83,0,0,1-9.83,9.83h0a9.83,9.83,0,0,1-9.83-9.83V69.2a9.83,9.83,0,0,1,9.83-9.83h0a9.83,9.83,0,0,1,9.83,9.83Z" style="fill:#fff;stroke:#212121;stroke-width:3px"/><path d="M71.78,70.45a1.09,1.09,0,0,1-1.09,1.09h0a1.09,1.09,0,0,1-1.09-1.09V63.9a1.09,1.09,0,0,1,1.09-1.09h0a1.09,1.09,0,0,1,1.09,1.09Z" style="fill:#fff;stroke:#212121;stroke-width:3px"/></svg>