<svg id="Layer_8" data-name="Layer 8" xmlns="http://www.w3.org/2000/svg" viewBox="0 0 100 100" width="80px"><title>ico_01</title><rect x="20.35" y="14.78" width="60.99" height="75.19" style="fill:#ff6464"/><polyline points="82.34 61.77 82.34 71.17 82.34 80.56 82.34 89.96 74.71 89.96 67.09 89.96 59.47 89.96 51.84 89.96 44.22 89.96 36.6 89.96 28.97 89.96 21.35 89.96 21.35 80.56 21.35 71.17 21.35 61.77 21.35 52.37 21.35 42.97 21.35 33.57 21.35 24.17 21.35 14.78 28.97 14.78 36.6 14.78" style="fill:none;stroke:#212121;stroke-width:3px"/><polyline points="59.47 14.78 67.09 14.78 74.71 14.78 82.34 14.78 82.34 24.17 82.34 33.57 82.34 42.97 82.34 52.37" style="fill:none;stroke:#212121;stroke-width:3px"/><line x1="44.22" y1="14.78" x2="51.84" y2="14.78" style="fill:none;stroke:#212121;stroke-width:3px"/><path d="M30,38.17a3.76,3.76,0,0,1-3.76,3.76H17.43a3.76,3.76,0,0,1-3.76-3.76h0a3.76,3.76,0,0,1,3.76-3.76H26.2A3.76,3.76,0,0,1,30,38.17Z" style="fill:#ffed6e;stroke:#212121;stroke-linecap:round;stroke-linejoin:round;stroke-width:3px"/><path d="M30,52.37a3.76,3.76,0,0,1-3.76,3.76H17.43a3.76,3.76,0,0,1-3.76-3.76h0a3.76,3.76,0,0,1,3.76-3.76H26.2A3.76,3.76,0,0,1,30,52.37Z" style="fill:#ffed6e;stroke:#212121;stroke-linecap:round;stroke-linejoin:round;stroke-width:3px"/><path d="M30,66.57a3.76,3.76,0,0,1-3.76,3.76H17.43a3.76,3.76,0,0,1-3.76-3.76h0a3.76,3.76,0,0,1,3.76-3.76H26.2A3.76,3.76,0,0,1,30,66.57Z" style="fill:#ffed6e;stroke:#212121;stroke-linecap:round;stroke-linejoin:round;stroke-width:3px"/><line x1="60.84" y1="69.11" x2="73.37" y2="69.11" style="fill:#fff;stroke:#212121;stroke-linecap:round;stroke-linejoin:round;stroke-width:3px"/><line x1="54.15" y1="77.05" x2="73.37" y2="77.05" style="fill:#fff;stroke:#212121;stroke-linecap:round;stroke-linejoin:round;stroke-width:3px"/><rect x="41.15" y="25.2" width="32.21" height="8.76" style="fill:#fff;stroke:#212121;stroke-linecap:round;stroke-linejoin:round;stroke-width:3px"/><line x1="86.33" y1="52.37" x2="51.14" y2="52.37" style="fill:none;stroke:#212121;stroke-width:3px"/></svg>