<svg id="Layer_8" data-name="Layer 8" xmlns="http://www.w3.org/2000/svg" viewBox="0 0 100 100" width="80px"><title>ico_09</title><path d="M31.57,53.6H27.4a11.11,11.11,0,1,1,0-22.21h5.49a19.09,19.09,0,0,1,35.05-7H70a14.61,14.61,0,0,1,8.81,26.27H66.3" style="fill:#fff;stroke:#212121;stroke-width:3px"/><circle cx="51.8" cy="49.04" r="15.06" transform="translate(-19.5 51) rotate(-45.01)" style="fill:#58c4dd;stroke:#212121;stroke-linecap:round;stroke-linejoin:round;stroke-width:3px"/><line x1="41.02" y1="59.82" x2="32.56" y2="68.28" style="fill:#fff;stroke:#212121;stroke-width:3px"/><path d="M21,85.21a.86.86,0,0,1-1.22,0l-4.14-4.14a.86.86,0,0,1,0-1.22L29.69,65.79a.86.86,0,0,1,1.22,0l4.14,4.14a.86.86,0,0,1,0,1.22Z" style="fill:#fff;stroke:#212121;stroke-width:3px"/><path d="M44.69,43.62a8.86,8.86,0,0,1,12.53,0" style="fill:none;stroke:#212121;stroke-width:3px"/><rect x="52.83" y="49.88" width="25.84" height="26.8" style="fill:#fff;stroke:#212121;stroke-width:3px"/><line x1="58.16" y1="57.46" x2="73.35" y2="57.46" style="fill:#fff;stroke:#212121;stroke-width:3px"/><line x1="58.16" y1="63.28" x2="73.35" y2="63.28" style="fill:#fff;stroke:#212121;stroke-width:3px"/><line x1="58.16" y1="69.1" x2="66.92" y2="69.1" style="fill:#fff;stroke:#212121;stroke-width:3px"/><line x1="41.99" y1="70.94" x2="47.7" y2="70.94" style="fill:#fff;stroke:#212121;stroke-width:3px"/><line x1="41.99" y1="77.17" x2="47.7" y2="77.17" style="fill:#fff;stroke:#212121;stroke-width:3px"/><line x1="41.99" y1="83.39" x2="47.7" y2="83.39" style="fill:#fff;stroke:#212121;stroke-width:3px"/></svg>