<svg id="Layer_8" data-name="Layer 8" xmlns="http://www.w3.org/2000/svg" viewBox="0 0 100 100"  width="80px"><title>ico_03</title><rect x="16.63" y="37.59" width="66.74" height="29.56" style="fill:#ffed6e;stroke:#212121;stroke-linecap:round;stroke-linejoin:round;stroke-width:3px"/><path d="M16.63,86.22a7.15,7.15,0,0,0,7.15,7.15H76.22a7.15,7.15,0,0,0,7.15-7.15V67.15H16.63Z" style="fill:#fff;stroke:#212121;stroke-width:3px"/><path d="M83.37,18.52a7.15,7.15,0,0,0-7.15-7.15H23.78a7.15,7.15,0,0,0-7.15,7.15V37.59H83.37Z" style="fill:#7795c6;stroke:#212121;stroke-linecap:round;stroke-linejoin:round;stroke-width:3px"/><path d="M41.91,22.65v1.83a3.42,3.42,0,0,0,3.42,3.42h9.35a3.42,3.42,0,0,0,3.42-3.42V22.65Z" style="fill:#fff;stroke:#212121;stroke-width:3px"/><path d="M41.91,50.3v1.82a3.42,3.42,0,0,0,3.42,3.42h9.35a3.42,3.42,0,0,0,3.42-3.42V50.3Z" style="fill:#fff;stroke:#212121;stroke-width:3px"/><path d="M41.91,78v1.82a3.42,3.42,0,0,0,3.42,3.42h9.35a3.42,3.42,0,0,0,3.42-3.42V78Z" style="fill:#fff;stroke:#212121;stroke-width:3px"/></svg>