<?xml version="1.0" encoding="utf-8"?>
<!-- Generator: Adobe Illustrator 16.0.0, SVG Export Plug-In . SVG Version: 6.00 Build 0)  -->
<!DOCTYPE svg PUBLIC "-//W3C//DTD SVG 1.1//EN" "http://www.w3.org/Graphics/SVG/1.1/DTD/svg11.dtd">
<svg version="1.1" id="Layer_1" xmlns="http://www.w3.org/2000/svg" xmlns:xlink="http://www.w3.org/1999/xlink" x="0px" y="0px"
	 width="100px" height="100px" viewBox="0 0 100 100" enable-background="new 0 0 100 100" xml:space="preserve">
<g>
	<defs>
		<rect id="SVGID_1_" x="26.495" y="23" width="47.01" height="54"/>
	</defs>
	<clipPath id="SVGID_2_">
		<use xlink:href="#SVGID_1_"  overflow="visible"/>
	</clipPath>
	<path clip-path="url(#SVGID_2_)" fill="#58C4DD" d="M46.868,43.268c0,3.881-3.147,7.029-7.029,7.029
		c-3.882,0-7.03-3.148-7.03-7.029c0-3.884,3.147-7.03,7.03-7.03C43.721,36.238,46.868,39.384,46.868,43.268"/>
	
		<circle clip-path="url(#SVGID_2_)" fill="none" stroke="#212121" stroke-width="2" stroke-linecap="round" cx="39.839" cy="43.268" r="7.029"/>
	<path clip-path="url(#SVGID_2_)" fill="#58C4DD" d="M46.298,53.797H33.38c-3.358,0-6.08,2.721-6.08,6.078v11.729h25.079V59.875
		C52.379,56.518,49.656,53.797,46.298,53.797"/>
	<path clip-path="url(#SVGID_2_)" fill="none" stroke="#212121" stroke-width="2" stroke-linecap="round" d="M46.298,53.797H33.38
		c-3.358,0-6.08,2.721-6.08,6.078v11.729h25.079V59.875C52.379,56.518,49.656,53.797,46.298,53.797z"/>
	<path clip-path="url(#SVGID_2_)" fill="#FFED6E" d="M67.189,43.268c0,3.881-3.146,7.029-7.028,7.029s-7.03-3.148-7.03-7.029
		c0-3.884,3.148-7.03,7.03-7.03S67.189,39.384,67.189,43.268"/>
	<circle clip-path="url(#SVGID_2_)" fill="none" stroke="#212121" stroke-width="2" cx="60.16" cy="43.268" r="7.029"/>
	<path clip-path="url(#SVGID_2_)" fill="#FFED6E" d="M66.619,53.797H53.701c-3.357,0-6.08,2.721-6.08,6.078v11.729H72.7V59.875
		C72.7,56.518,69.979,53.797,66.619,53.797"/>
	<path clip-path="url(#SVGID_2_)" fill="none" stroke="#212121" stroke-width="2" d="M66.619,53.797H53.701
		c-3.357,0-6.08,2.721-6.08,6.078v11.729H72.7V59.875C72.7,56.518,69.979,53.797,66.619,53.797z"/>
	<path clip-path="url(#SVGID_2_)" fill="#FFFFFF" d="M59.139,23.805H47.725c-1.051,0-1.903,0.853-1.903,1.903v6.25
		c0,1.052,0.852,1.904,1.903,1.904h2.79l-1.613,4.168l6.725-4.168h3.512c1.051,0,1.902-0.852,1.902-1.904v-6.25
		C61.041,24.658,60.189,23.805,59.139,23.805"/>
	<path clip-path="url(#SVGID_2_)" fill="none" stroke="#212121" stroke-width="2" d="M59.139,23.805H47.725
		c-1.051,0-1.903,0.853-1.903,1.903v6.25c0,1.052,0.852,1.904,1.903,1.904h2.79l-1.613,4.168l6.725-4.168h3.512
		c1.051,0,1.902-0.852,1.902-1.904v-6.25C61.041,24.658,60.189,23.805,59.139,23.805z"/>
	<line clip-path="url(#SVGID_2_)" fill="#FFFFFF" x1="49.343" y1="27.397" x2="57.51" y2="27.397"/>
	<line clip-path="url(#SVGID_2_)" fill="none" stroke="#212121" stroke-width="2" x1="49.343" y1="27.397" x2="57.51" y2="27.397"/>
	<line clip-path="url(#SVGID_2_)" fill="#FFFFFF" x1="49.343" y1="30.213" x2="57.51" y2="30.213"/>
	<line clip-path="url(#SVGID_2_)" fill="none" stroke="#212121" stroke-width="2" x1="49.343" y1="30.213" x2="57.51" y2="30.213"/>
	<rect x="55.639" y="62.279" clip-path="url(#SVGID_2_)" fill="#FFFFFF" width="11.074" height="13.916"/>
	
		<rect x="55.639" y="62.279" clip-path="url(#SVGID_2_)" fill="none" stroke="#212121" stroke-width="2" stroke-linejoin="round" width="11.074" height="13.916"/>
	<line clip-path="url(#SVGID_2_)" fill="#FFFFFF" x1="58.762" y1="65.547" x2="63.588" y2="65.547"/>
	
		<line clip-path="url(#SVGID_2_)" fill="none" stroke="#212121" stroke-width="2" stroke-linejoin="round" x1="58.762" y1="65.547" x2="63.588" y2="65.547"/>
	<line clip-path="url(#SVGID_2_)" fill="#FFFFFF" x1="58.762" y1="68.527" x2="63.588" y2="68.527"/>
	
		<line clip-path="url(#SVGID_2_)" fill="none" stroke="#212121" stroke-width="2" stroke-linejoin="round" x1="58.762" y1="68.527" x2="63.588" y2="68.527"/>
	<line clip-path="url(#SVGID_2_)" fill="#FFFFFF" x1="58.762" y1="71.51" x2="63.588" y2="71.51"/>
	
		<line clip-path="url(#SVGID_2_)" fill="none" stroke="#212121" stroke-width="2" stroke-linejoin="round" x1="58.762" y1="71.51" x2="63.588" y2="71.51"/>
</g>
</svg>
