<?xml version="1.0" encoding="utf-8"?>
<!-- Generator: Adobe Illustrator 16.0.0, SVG Export Plug-In . SVG Version: 6.00 Build 0)  -->
<!DOCTYPE svg PUBLIC "-//W3C//DTD SVG 1.1//EN" "http://www.w3.org/Graphics/SVG/1.1/DTD/svg11.dtd">
<svg version="1.1" id="Layer_1" xmlns="http://www.w3.org/2000/svg" xmlns:xlink="http://www.w3.org/1999/xlink" x="0px" y="0px"
	 width="100px" height="100px" viewBox="0 0 100 100" enable-background="new 0 0 100 100" xml:space="preserve">
<g>
	<defs>
		<rect id="SVGID_1_" x="28.611" y="19.5" width="42.777" height="61"/>
	</defs>
	<clipPath id="SVGID_2_">
		<use xlink:href="#SVGID_1_"  overflow="visible"/>
	</clipPath>
	
		<polyline clip-path="url(#SVGID_2_)" fill="none" stroke="#212121" stroke-width="2" stroke-linecap="round" stroke-linejoin="round" points="
		70.314,67.209 70.314,73.317 70.314,79.426 65.236,79.426 60.157,79.426 55.079,79.426 50,79.426 44.921,79.426 39.843,79.426 
		34.764,79.426 29.685,79.426 29.685,73.317 29.685,67.209 29.685,61.101 29.685,54.991 29.685,48.883 	"/>
	
		<polyline clip-path="url(#SVGID_2_)" fill="none" stroke="#212121" stroke-width="2" stroke-linecap="round" stroke-linejoin="round" points="
		29.686,42.774 29.686,36.665 29.686,30.557 34.764,30.557 39.843,30.557 44.921,30.557 50,30.557 55.078,30.557 60.157,30.557 
		65.236,30.557 70.314,30.557 70.314,36.665 70.314,42.774 70.314,48.883 70.314,54.991 70.314,61.101 	"/>
	<path clip-path="url(#SVGID_2_)" fill="#97C9FF" d="M59.742,27.378h-3.983c0.053-0.313,0.086-0.632,0.086-0.958
		c0-3.229-2.616-5.845-5.845-5.845c-3.228,0-5.845,2.616-5.845,5.845c0,0.326,0.035,0.646,0.084,0.958h-3.983
		c-0.705,0-1.276,0.572-1.276,1.277v4.09c0,0.706,0.571,1.277,1.276,1.277h19.486c0.705,0,1.276-0.571,1.276-1.277v-4.09
		C61.019,27.95,60.447,27.378,59.742,27.378 M50,28.432c-1.112,0-2.012-0.9-2.012-2.012s0.9-2.012,2.012-2.012
		c1.111,0,2.013,0.9,2.013,2.012S51.11,28.432,50,28.432"/>
	
		<path clip-path="url(#SVGID_2_)" fill="none" stroke="#212121" stroke-width="2" stroke-linecap="round" stroke-linejoin="round" d="
		M59.742,27.378h-3.983c0.053-0.313,0.086-0.632,0.086-0.958c0-3.229-2.616-5.845-5.845-5.845c-3.228,0-5.845,2.616-5.845,5.845
		c0,0.326,0.035,0.646,0.084,0.958h-3.983c-0.705,0-1.276,0.572-1.276,1.277v4.09c0,0.706,0.571,1.277,1.276,1.277h19.486
		c0.705,0,1.276-0.571,1.276-1.277v-4.09C61.019,27.95,60.447,27.378,59.742,27.378z M50,28.432c-1.112,0-2.012-0.9-2.012-2.012
		s0.9-2.012,2.012-2.012c1.111,0,2.013,0.9,2.013,2.012S51.11,28.432,50,28.432z"/>
	
		<line clip-path="url(#SVGID_2_)" fill="none" stroke="#212121" stroke-width="2" stroke-linecap="round" stroke-linejoin="round" x1="42.838" y1="43.922" x2="61.997" y2="43.922"/>
	
		<line clip-path="url(#SVGID_2_)" fill="none" stroke="#212121" stroke-width="2" stroke-linecap="round" stroke-linejoin="round" x1="42.838" y1="49.651" x2="61.997" y2="49.651"/>
	
		<line clip-path="url(#SVGID_2_)" fill="none" stroke="#212121" stroke-width="2" stroke-linecap="round" stroke-linejoin="round" x1="42.838" y1="55.382" x2="61.997" y2="55.382"/>
	
		<line clip-path="url(#SVGID_2_)" fill="none" stroke="#212121" stroke-width="2" stroke-linecap="round" stroke-linejoin="round" x1="42.838" y1="61.111" x2="61.997" y2="61.111"/>
	
		<line clip-path="url(#SVGID_2_)" fill="none" stroke="#212121" stroke-width="2" stroke-linecap="round" stroke-linejoin="round" x1="42.838" y1="66.841" x2="61.997" y2="66.841"/>
	
		<line clip-path="url(#SVGID_2_)" fill="none" stroke="#212121" stroke-width="2" stroke-linecap="round" stroke-linejoin="round" x1="37.583" y1="43.922" x2="38.602" y2="43.922"/>
	
		<line clip-path="url(#SVGID_2_)" fill="none" stroke="#212121" stroke-width="2" stroke-linecap="round" stroke-linejoin="round" x1="37.583" y1="49.651" x2="38.602" y2="49.651"/>
	
		<line clip-path="url(#SVGID_2_)" fill="none" stroke="#212121" stroke-width="2" stroke-linecap="round" stroke-linejoin="round" x1="37.583" y1="55.382" x2="38.602" y2="55.382"/>
	
		<line clip-path="url(#SVGID_2_)" fill="none" stroke="#212121" stroke-width="2" stroke-linecap="round" stroke-linejoin="round" x1="37.583" y1="61.111" x2="38.602" y2="61.111"/>
	
		<line clip-path="url(#SVGID_2_)" fill="none" stroke="#212121" stroke-width="2" stroke-linecap="round" stroke-linejoin="round" x1="37.583" y1="66.841" x2="38.602" y2="66.841"/>
</g>
</svg>
