<?xml version="1.0" encoding="utf-8"?>
<!-- Generator: Adobe Illustrator 16.0.0, SVG Export Plug-In . SVG Version: 6.00 Build 0)  -->
<!DOCTYPE svg PUBLIC "-//W3C//DTD SVG 1.1//EN" "http://www.w3.org/Graphics/SVG/1.1/DTD/svg11.dtd">
<svg version="1.1" id="Layer_1" xmlns="http://www.w3.org/2000/svg" xmlns:xlink="http://www.w3.org/1999/xlink" x="0px" y="0px"
	 width="100px" height="100px" viewBox="0 0 100 100" enable-background="new 0 0 100 100" xml:space="preserve">
<g>
	<polygon fill="#FFFFFF" points="58.939,73.56 41.061,73.56 44.499,64.62 55.501,64.62 	"/>
	<g>
		<defs>
			<rect id="SVGID_1_" x="25" y="25.409" width="50" height="49.182"/>
		</defs>
		<clipPath id="SVGID_2_">
			<use xlink:href="#SVGID_1_"  overflow="visible"/>
		</clipPath>
		<path clip-path="url(#SVGID_2_)" fill="#1B1C1C" d="M61.123,75.06H38.876l4.592-11.939h13.063L61.123,75.06z M43.245,72.06h13.511
			l-2.285-5.939h-8.941L43.245,72.06z"/>
		<path clip-path="url(#SVGID_2_)" fill="#00BBD6" d="M26.031,42.645v9.524v7.463h11.984H50h11.984h11.984v-7.463v-7.461v-7.463
			v-7.463c0-0.461-0.094-0.9-0.264-1.301c-0.169-0.399-0.413-0.76-0.716-1.062c-0.302-0.303-0.662-0.548-1.063-0.717
			c-0.399-0.169-0.839-0.263-1.3-0.263H60.314H50H39.686H29.373c-0.461,0-0.901,0.094-1.299,0.263
			c-0.4,0.169-0.761,0.414-1.063,0.717c-0.303,0.302-0.547,0.662-0.717,1.062c-0.168,0.4-0.263,0.84-0.263,1.301v7.463"/>
		<path clip-path="url(#SVGID_2_)" fill="#1B1C1C" d="M75.469,61.132H24.531V42.645c0-0.829,0.671-1.5,1.5-1.5s1.5,0.671,1.5,1.5
			v15.487h44.938v-28.35c0-0.248-0.049-0.488-0.145-0.714c-0.094-0.222-0.226-0.419-0.395-0.587
			c-0.171-0.172-0.367-0.304-0.588-0.396c-0.226-0.096-0.466-0.145-0.715-0.145H29.373c-0.249,0-0.489,0.049-0.714,0.144
			c-0.221,0.094-0.417,0.226-0.585,0.396c-0.172,0.171-0.305,0.368-0.398,0.588c-0.095,0.226-0.144,0.468-0.144,0.715v7.463
			c0,0.828-0.671,1.5-1.5,1.5s-1.5-0.672-1.5-1.5v-7.463c0-0.648,0.128-1.281,0.38-1.881c0.246-0.582,0.596-1.1,1.04-1.543
			c0.44-0.441,0.958-0.792,1.538-1.037c0.596-0.253,1.23-0.381,1.884-0.381h41.254c0.652,0,1.286,0.128,1.884,0.381
			c0.579,0.245,1.098,0.595,1.541,1.039c0.441,0.441,0.791,0.96,1.035,1.537c0.253,0.596,0.382,1.23,0.382,1.885V61.132z"/>
		<path clip-path="url(#SVGID_2_)" fill="#FFFFFF" d="M26.031,59.632v3.185c0,1.846,1.497,3.342,3.341,3.342h41.254
			c1.845,0,3.342-1.496,3.342-3.342v-3.185H26.031z"/>
		<path clip-path="url(#SVGID_2_)" fill="#1B1C1C" d="M70.627,67.658H29.373c-2.669,0-4.841-2.172-4.841-4.842v-4.685h50.938v4.685
			C75.469,65.486,73.297,67.658,70.627,67.658z M27.531,61.132v1.685c0,1.016,0.826,1.842,1.841,1.842h41.254
			c1.016,0,1.842-0.826,1.842-1.842v-1.685H27.531z"/>
		<path clip-path="url(#SVGID_2_)" fill="#FFEE65" d="M39.777,52.841c-1.474,0-2.074-1.043-1.339-2.316l10.225-17.708
			c0.736-1.274,1.939-1.274,2.675,0l10.223,17.708c0.737,1.273,0.134,2.316-1.338,2.316H39.777z"/>
		<path clip-path="url(#SVGID_2_)" fill="#1B1C1C" d="M60.223,54.341H39.777c-1.252,0-2.271-0.521-2.796-1.43
			s-0.467-2.053,0.158-3.137l10.225-17.708C47.99,30.981,48.951,30.36,50,30.36c1.05,0,2.011,0.622,2.636,1.707l10.223,17.707
			c0.626,1.082,0.685,2.225,0.16,3.135S61.476,54.341,60.223,54.341z M39.702,51.339c0.023,0.002,0.048,0.002,0.075,0.002h20.445
			c0.027,0,0.051,0,0.074-0.002c-0.01-0.02-0.021-0.041-0.035-0.063L50.039,33.566c-0.013-0.022-0.026-0.044-0.038-0.063
			c-0.012,0.02-0.025,0.041-0.038,0.063L39.737,51.274C39.724,51.297,39.712,51.319,39.702,51.339z"/>
		<line clip-path="url(#SVGID_2_)" fill="#FFFFFF" x1="50" y1="39.22" x2="50" y2="45.862"/>
		<rect x="48.5" y="39.22" clip-path="url(#SVGID_2_)" fill="#1B1C1C" width="3" height="6.643"/>
		<line clip-path="url(#SVGID_2_)" fill="#FFFFFF" x1="50" y1="47.462" x2="50" y2="49.81"/>
		<rect x="48.5" y="47.462" clip-path="url(#SVGID_2_)" fill="#1B1C1C" width="3" height="2.348"/>
		<rect x="57.213" y="33.208" clip-path="url(#SVGID_2_)" fill="#1B1C1C" width="2.708" height="3"/>
		<rect x="62.026" y="33.208" clip-path="url(#SVGID_2_)" fill="#1B1C1C" width="2.708" height="3"/>
		<rect x="66.84" y="33.208" clip-path="url(#SVGID_2_)" fill="#1B1C1C" width="2.708" height="3"/>
		<rect x="63.251" y="41.116" clip-path="url(#SVGID_2_)" fill="#1B1C1C" width="2.708" height="3"/>
	</g>
</g>
</svg>
