<?xml version="1.0" encoding="utf-8"?>
<!-- Generator: Adobe Illustrator 16.0.0, SVG Export Plug-In . SVG Version: 6.00 Build 0)  -->
<!DOCTYPE svg PUBLIC "-//W3C//DTD SVG 1.1//EN" "http://www.w3.org/Graphics/SVG/1.1/DTD/svg11.dtd">
<svg version="1.1" id="Layer_1" xmlns="http://www.w3.org/2000/svg" xmlns:xlink="http://www.w3.org/1999/xlink" x="0px" y="0px"
	 width="100px" height="100px" viewBox="0 0 100 100" enable-background="new 0 0 100 100" xml:space="preserve">
<g>
	<defs>
		<rect id="SVGID_1_" x="24" y="27.029" width="52" height="45.941"/>
	</defs>
	<clipPath id="SVGID_2_">
		<use xlink:href="#SVGID_1_"  overflow="visible"/>
	</clipPath>
	<path clip-path="url(#SVGID_2_)" fill="#FFFFFF" d="M32.895,41.582h0.603v19.336h33.454V27.819H32.895
		c-3.651,0-6.782,2.23-8.105,5.402v2.957C26.113,39.351,29.244,41.582,32.895,41.582"/>
	<rect x="45.666" y="27.029" clip-path="url(#SVGID_2_)" fill="#1B1B1B" width="4.257" height="1.579"/>
	<polygon clip-path="url(#SVGID_2_)" fill="#1B1B1B" points="67.74,31.956 66.162,31.956 66.162,28.608 52.602,28.608 52.602,27.03 
		67.74,27.03 	"/>
	<rect x="66.162" y="36.094" clip-path="url(#SVGID_2_)" fill="#1B1B1B" width="1.578" height="4.137"/>
	<path clip-path="url(#SVGID_2_)" fill="#1B1B1B" d="M67.74,61.707H32.708V42.369c-0.428-0.008-0.857-0.045-1.276-0.109
		c-0.47-0.072-0.939-0.18-1.394-0.322c-0.449-0.141-0.889-0.315-1.309-0.519c-0.414-0.201-0.819-0.435-1.204-0.696
		c-0.378-0.257-0.744-0.545-1.085-0.857c-0.342-0.314-0.661-0.651-0.951-1.005c-0.291-0.354-0.56-0.735-0.798-1.131
		c-0.242-0.403-0.454-0.822-0.631-1.247L24,36.336v-3.272l0.061-0.146c0.179-0.43,0.391-0.85,0.63-1.247
		c0.236-0.394,0.505-0.775,0.799-1.133c0.291-0.354,0.609-0.691,0.949-1.001s0.705-0.599,1.085-0.858
		c0.383-0.26,0.788-0.494,1.206-0.696c0.425-0.206,0.865-0.38,1.309-0.518c0.455-0.143,0.924-0.251,1.394-0.323
		c0.479-0.073,0.971-0.111,1.461-0.111h10.094v1.579H32.894c-0.41,0-0.821,0.031-1.222,0.093c-0.391,0.06-0.782,0.15-1.162,0.27
		c-0.37,0.115-0.737,0.26-1.092,0.432c-0.348,0.168-0.687,0.364-1.006,0.581c-0.318,0.217-0.624,0.458-0.908,0.718
		c-0.283,0.259-0.55,0.542-0.793,0.838c-0.245,0.299-0.469,0.617-0.667,0.946c-0.174,0.288-0.33,0.589-0.466,0.899v2.633
		c0.134,0.305,0.291,0.607,0.466,0.898c0.198,0.33,0.422,0.648,0.666,0.944c0.243,0.297,0.51,0.58,0.795,0.841
		c0.285,0.26,0.59,0.501,0.906,0.716c0.322,0.219,0.66,0.415,1.006,0.582c0.35,0.17,0.717,0.315,1.092,0.432
		c0.378,0.119,0.769,0.209,1.161,0.269c0.401,0.062,0.813,0.093,1.223,0.093h1.393v19.337h31.875V44.368h1.578V61.707z"/>
	<path clip-path="url(#SVGID_2_)" fill="#FFFFFF" d="M24.79,60.918v0.59c1.324,3.174,4.454,5.404,8.104,5.404h0.604v-5.994"/>
	<path clip-path="url(#SVGID_2_)" fill="#1B1B1B" d="M33.498,67.701h-0.604c-3.874,0-7.341-2.312-8.833-5.889
		C24.021,61.716,24,61.612,24,61.508v-0.59c0-0.436,0.354-0.789,0.79-0.789s0.79,0.354,0.79,0.789v0.428
		c1.252,2.851,4.021,4.703,7.129,4.774v-5.202c0-0.436,0.354-0.789,0.79-0.789s0.789,0.354,0.789,0.789v5.994
		C34.287,67.348,33.934,67.701,33.498,67.701z"/>
	<path clip-path="url(#SVGID_2_)" fill="#FFFFFF" d="M33.498,60.918V41.582h-0.603c-3.651,0-6.782-2.231-8.105-5.403v18.575v6.165"
		/>
	<path clip-path="url(#SVGID_2_)" fill="#1B1B1B" d="M33.498,61.707c-0.436,0-0.79-0.354-0.79-0.789V42.369
		c-2.805-0.054-5.382-1.319-7.129-3.394v21.943c0,0.436-0.354,0.789-0.79,0.789S24,61.354,24,60.918v-24.74
		c0-0.376,0.266-0.7,0.634-0.774c0.367-0.075,0.739,0.123,0.884,0.47c1.246,2.988,4.142,4.918,7.377,4.918h0.603
		c0.436,0,0.789,0.354,0.789,0.79v19.336C34.287,61.354,33.934,61.707,33.498,61.707z"/>
	<line clip-path="url(#SVGID_2_)" fill="#FFFFFF" x1="46.112" y1="35.891" x2="61.053" y2="35.891"/>
	<rect x="46.112" y="35.101" clip-path="url(#SVGID_2_)" fill="#1B1B1B" width="14.941" height="1.579"/>
	<line clip-path="url(#SVGID_2_)" fill="#FFFFFF" x1="46.112" y1="42.115" x2="61.053" y2="42.115"/>
	<rect x="46.112" y="41.326" clip-path="url(#SVGID_2_)" fill="#1B1B1B" width="14.941" height="1.579"/>
	<line clip-path="url(#SVGID_2_)" fill="#FFFFFF" x1="46.112" y1="48.34" x2="61.053" y2="48.34"/>
	<rect x="46.112" y="47.55" clip-path="url(#SVGID_2_)" fill="#1B1B1B" width="14.941" height="1.579"/>
	<line clip-path="url(#SVGID_2_)" fill="#FFFFFF" x1="44.791" y1="35.891" x2="42.071" y2="35.891"/>
	<rect x="42.071" y="35.101" clip-path="url(#SVGID_2_)" fill="#1B1B1B" width="2.72" height="1.579"/>
	<line clip-path="url(#SVGID_2_)" fill="#FFFFFF" x1="44.791" y1="42.115" x2="42.071" y2="42.115"/>
	<rect x="42.071" y="41.326" clip-path="url(#SVGID_2_)" fill="#1B1B1B" width="2.72" height="1.579"/>
	<line clip-path="url(#SVGID_2_)" fill="#FFFFFF" x1="44.791" y1="48.34" x2="42.071" y2="48.34"/>
	<rect x="42.071" y="47.55" clip-path="url(#SVGID_2_)" fill="#1B1B1B" width="2.72" height="1.579"/>
	<path clip-path="url(#SVGID_2_)" fill="#FFFFFF" d="M53.616,56.034v14.202c0,1.074,0.871,1.945,1.946,1.945h17.703
		c1.074,0,1.945-0.871,1.945-1.945V56.034H53.616z"/>
	<path clip-path="url(#SVGID_2_)" fill="#1B1B1B" d="M73.266,72.971H55.563c-1.509,0-2.736-1.227-2.736-2.734V56.034
		c0-0.436,0.354-0.789,0.79-0.789h21.595c0.436,0,0.789,0.354,0.789,0.789v14.202C76,71.744,74.773,72.971,73.266,72.971z
		 M54.406,56.824v13.412c0,0.637,0.518,1.155,1.156,1.155h17.703c0.638,0,1.155-0.519,1.155-1.155V56.824H54.406z"/>
	<path clip-path="url(#SVGID_2_)" fill="#FF6464" d="M75.211,54.479c0-1.076-0.871-1.945-1.945-1.945H55.563
		c-1.075,0-1.946,0.869-1.946,1.945v1.556h21.595V54.479z"/>
	<path clip-path="url(#SVGID_2_)" fill="#1B1B1B" d="M75.211,56.824H53.616c-0.437,0-0.79-0.354-0.79-0.79v-1.556
		c0-1.508,1.228-2.735,2.736-2.735h17.703c1.508,0,2.734,1.228,2.734,2.735v1.556C76,56.471,75.646,56.824,75.211,56.824z
		 M54.406,55.245h20.015v-0.767c0-0.638-0.518-1.156-1.155-1.156H55.563c-0.639,0-1.156,0.519-1.156,1.156V55.245z"/>
	<line clip-path="url(#SVGID_2_)" fill="#FFFFFF" x1="56.049" y1="60.119" x2="72.778" y2="60.119"/>
	<path clip-path="url(#SVGID_2_)" fill="#1B1B1B" d="M72.778,60.908H56.049c-0.437,0-0.79-0.354-0.79-0.789s0.354-0.789,0.79-0.789
		h16.729c0.437,0,0.79,0.354,0.79,0.789S73.215,60.908,72.778,60.908z"/>
	<line clip-path="url(#SVGID_2_)" fill="#FFFFFF" x1="56.049" y1="63.621" x2="72.778" y2="63.621"/>
	<path clip-path="url(#SVGID_2_)" fill="#1B1B1B" d="M72.778,64.41H56.049c-0.437,0-0.79-0.354-0.79-0.789s0.354-0.789,0.79-0.789
		h16.729c0.437,0,0.79,0.354,0.79,0.789S73.215,64.41,72.778,64.41z"/>
	<line clip-path="url(#SVGID_2_)" fill="#FFFFFF" x1="56.049" y1="67.123" x2="65.75" y2="67.123"/>
	<path clip-path="url(#SVGID_2_)" fill="#1B1B1B" d="M65.75,67.913h-9.701c-0.437,0-0.79-0.354-0.79-0.79
		c0-0.436,0.354-0.789,0.79-0.789h9.701c0.437,0,0.79,0.354,0.79,0.789C66.54,67.56,66.187,67.913,65.75,67.913z"/>
</g>
</svg>
