<svg id="Layer_8" data-name="Layer 8" xmlns="http://www.w3.org/2000/svg" viewBox="0 0 100 100"  width="80px"><title>ico_04</title><rect x="8.94" y="34" width="82.12" height="43.34" style="fill:#61d5db;stroke:#212121;stroke-linecap:round;stroke-linejoin:round;stroke-width:3px"/><path d="M85.46,27.11H56.74C53,27.11,50,29.74,50,33V77.63c0-3.24,3-5.87,6.73-5.87H85.46l.45,0V27.13Z" style="fill:#fff;stroke:#212121;stroke-width:3px"/><path d="M14.54,27.11H43.26C47,27.11,50,29.74,50,33V77.63c0-3.24-3-5.87-6.73-5.87H14.54l-.45,0V27.13Z" style="fill:#fff;stroke:#212121;stroke-width:3px"/><circle cx="58.99" cy="60.5" r="3.43" style="fill:#fff;stroke:#212121;stroke-width:3px"/><polyline points="62.21 59.02 62.21 40 78.48 34.22 78.48 53.23" style="fill:#fff;stroke:#212121;stroke-width:3px"/><circle cx="75.27" cy="54.71" r="3.43" style="fill:#fff;stroke:#212121;stroke-width:3px"/><line x1="23.13" y1="37.91" x2="26.72" y2="37.91" style="fill:none;stroke:#212121;stroke-width:3px"/><line x1="28.89" y1="37.91" x2="43.28" y2="37.91" style="fill:none;stroke:#212121;stroke-width:3px"/><line x1="23.13" y1="46.31" x2="26.72" y2="46.31" style="fill:none;stroke:#212121;stroke-width:3px"/><line x1="28.89" y1="46.31" x2="43.28" y2="46.31" style="fill:none;stroke:#212121;stroke-width:3px"/><line x1="23.13" y1="54.71" x2="26.72" y2="54.71" style="fill:none;stroke:#212121;stroke-width:3px"/><line x1="28.89" y1="54.71" x2="43.28" y2="54.71" style="fill:none;stroke:#212121;stroke-width:3px"/></svg>