<svg id="Layer_8" data-name="Layer 8" xmlns="http://www.w3.org/2000/svg" viewBox="0 0 100 100"  width="80px"><title>ico_02</title><path d="M26.4,22.1v.68c0-.23,0-.46,0-.68Z" style="fill:#fff;stroke:#212121;stroke-linecap:round;stroke-linejoin:round;stroke-width:3px"/><path d="M26.4,68.69h0c0-.12,0-.23,0-.34Z" style="fill:#fff;stroke:#212121;stroke-linecap:round;stroke-linejoin:round;stroke-width:3px"/><path d="M33.37,61.39a7,7,0,0,0-7,7c0,.12,0,.23,0,.34a7,7,0,0,0,6.95,6.62H80.15V61.39Z" style="fill:#fff;stroke:#212121;stroke-linecap:round;stroke-linejoin:round;stroke-width:3px"/><path d="M33.37,61.39H80.15V15.82H33.37a7,7,0,0,0-6.93,6.28c0,.22,0,46.25,0,46.25A7,7,0,0,1,33.37,61.39Z" style="fill:#ff6464;stroke:#212121;stroke-linecap:round;stroke-linejoin:round;stroke-width:3px"/><polygon points="60.91 88.92 53.99 82.75 47.09 88.92 47.09 78.71 47.09 68.51 53.99 68.51 60.91 68.51 60.91 78.71 60.91 88.92" style="fill:#fff;stroke:#212121;stroke-linecap:round;stroke-linejoin:round;stroke-width:3px"/><line x1="40.81" y1="68.51" x2="67.18" y2="68.51" style="fill:#fff;stroke:#212121;stroke-linecap:round;stroke-linejoin:round;stroke-width:3px"/><line x1="32.36" y1="15.97" x2="32.36" y2="60.46" style="fill:none;stroke:#212121;stroke-linecap:round;stroke-linejoin:round;stroke-width:3px"/><rect x="64.23" y="41.04" width="21.11" height="22.66" style="fill:#fff;stroke:#212121;stroke-width:3px"/><line x1="71.06" y1="48.48" x2="78.5" y2="48.48" style="fill:#fff;stroke:#212121;stroke-width:3px"/><line x1="71.06" y1="52.37" x2="78.5" y2="52.37" style="fill:#fff;stroke:#212121;stroke-width:3px"/><line x1="71.06" y1="56.26" x2="78.5" y2="56.26" style="fill:#fff;stroke:#212121;stroke-width:3px"/><polyline points="46.67 28.52 60.13 40.31 51.01 24.92" style="fill:#fff;stroke:#212121;stroke-linecap:round;stroke-linejoin:round;stroke-width:3px"/><path d="M32.25,11.07l2.13-1.77,2.12-1.76a3.1,3.1,0,0,1,4.36.4l.78.93L39,11.07l6.54,6.83a9.56,9.56,0,0,1,10.7,2.76l-7.35,6.11L41.53,32.9a9.57,9.57,0,0,1-.75-11l-5.52-7.69-2.63,2.19-.78-.93A3.1,3.1,0,0,1,32.25,11.07Z" style="fill:#ffe885;stroke:#212121;stroke-linejoin:round;stroke-width:3px"/></svg>