<svg id="Layer_8" data-name="Layer 8" xmlns="http://www.w3.org/2000/svg" viewBox="0 0 100 100" width="80px"><title>ico_20</title><rect x="40.55" y="11.72" width="18.99" height="27.13" rx="4.52" ry="4.52" style="fill:none;stroke:#212121;stroke-width:3px"/><path d="M27.63,76.08a5.11,5.11,0,0,1-5.11,5.11h0a5.11,5.11,0,0,1-5.11-5.11V64.16a5.11,5.11,0,0,1,5.11-5.11h0a5.11,5.11,0,0,1,5.11,5.11Z" style="fill:#fff;stroke:#212121;stroke-width:3px"/><path d="M82.67,76.08a5.11,5.11,0,0,1-5.11,5.11h0a5.11,5.11,0,0,1-5.11-5.11V64.16a5.11,5.11,0,0,1,5.11-5.11h0a5.11,5.11,0,0,1,5.11,5.11Z" style="fill:#fff;stroke:#212121;stroke-width:3px"/><rect x="22.38" y="28.98" width="55.33" height="59.3" rx="9.21" ry="9.21" style="fill:#61d5db;stroke:#212121;stroke-linecap:round;stroke-linejoin:round;stroke-width:3px"/><path d="M61.13,23.3H39c-10.17,0-18.42,4.91-18.42,11V45.54c0,6.05,8.25,11,18.42,11H61.13c10.17,0,18.42-4.91,18.42-11V34.26C79.55,28.2,71.3,23.3,61.13,23.3Z" style="fill:#ffed6e;stroke:#212121;stroke-linecap:round;stroke-linejoin:round;stroke-width:3px"/><path d="M38.36,62a3.09,3.09,0,0,1-3.09,3.09h0A3.09,3.09,0,0,1,32.17,62V53.58a3.1,3.1,0,0,1,3.1-3.1h0a3.1,3.1,0,0,1,3.09,3.1Z" style="fill:#ff6464;stroke:#212121;stroke-linecap:round;stroke-linejoin:round;stroke-width:3px"/><path d="M67.91,62a3.09,3.09,0,0,1-3.1,3.09h0A3.09,3.09,0,0,1,61.72,62V53.58a3.1,3.1,0,0,1,3.1-3.1h0a3.1,3.1,0,0,1,3.1,3.1Z" style="fill:#ff6464;stroke:#212121;stroke-linecap:round;stroke-linejoin:round;stroke-width:3px"/><rect x="42.45" y="31.91" width="15.18" height="5.59" style="fill:#fff;stroke:#212121;stroke-width:3px"/><line x1="28.81" y1="77.13" x2="28.81" y2="79.54" style="fill:none;stroke:#212121;stroke-linecap:round;stroke-linejoin:round;stroke-width:3px"/><line x1="36.05" y1="77.13" x2="36.05" y2="79.54" style="fill:none;stroke:#212121;stroke-linecap:round;stroke-linejoin:round;stroke-width:3px"/><line x1="43.28" y1="77.13" x2="43.28" y2="79.54" style="fill:none;stroke:#212121;stroke-linecap:round;stroke-linejoin:round;stroke-width:3px"/><line x1="50.52" y1="77.13" x2="50.52" y2="79.54" style="fill:none;stroke:#212121;stroke-linecap:round;stroke-linejoin:round;stroke-width:3px"/><line x1="57.75" y1="77.13" x2="57.75" y2="79.54" style="fill:none;stroke:#212121;stroke-linecap:round;stroke-linejoin:round;stroke-width:3px"/><line x1="64.98" y1="77.13" x2="64.98" y2="79.54" style="fill:none;stroke:#212121;stroke-linecap:round;stroke-linejoin:round;stroke-width:3px"/><line x1="72.22" y1="77.13" x2="72.22" y2="79.54" style="fill:none;stroke:#212121;stroke-linecap:round;stroke-linejoin:round;stroke-width:3px"/></svg>