<?xml version="1.0" encoding="utf-8"?>
<!-- Generator: Adobe Illustrator 16.0.0, SVG Export Plug-In . SVG Version: 6.00 Build 0)  -->
<!DOCTYPE svg PUBLIC "-//W3C//DTD SVG 1.1//EN" "http://www.w3.org/Graphics/SVG/1.1/DTD/svg11.dtd">
<svg version="1.1" id="Layer_1" xmlns="http://www.w3.org/2000/svg" xmlns:xlink="http://www.w3.org/1999/xlink" x="0px" y="0px"
	 width="100px" height="100px" viewBox="0 0 100 100" enable-background="new 0 0 100 100" xml:space="preserve">
<g>
	<polygon fill="#FFFFFF" points="26.82,80.496 31.026,80.496 35.235,80.496 39.442,80.496 43.648,80.496 41.78,78.111 39.91,75.727 
		38.042,73.342 36.172,70.957 33.835,67.975 31.498,64.992 29.158,62.01 26.82,59.027 26.82,64.395 26.82,69.761 26.82,75.129 	"/>
	<g>
		<defs>
			<rect id="SVGID_1_" x="26" y="18.685" width="48" height="62.629"/>
		</defs>
		<clipPath id="SVGID_2_">
			<use xlink:href="#SVGID_1_"  overflow="visible"/>
		</clipPath>
		<path clip-path="url(#SVGID_2_)" fill="#1B1C1C" d="M45.333,81.314H26V56.652L45.333,81.314z M27.64,79.676h14.324L27.64,61.404
			V79.676z"/>
	</g>
	<polyline fill="#FFFFFF" points="54.706,61.492 60.883,58.337 57.896,54.527 54.909,50.718 51.923,46.906 48.935,43.095 
		43.405,45.919 37.878,48.743 32.348,51.565 26.82,54.389 26.82,55.549 26.82,56.709 26.82,57.868 26.82,59.027 29.158,62.01 
		31.498,64.992 33.835,67.975 36.172,70.957 42.35,67.803 48.527,64.647 	"/>
	<g>
		<defs>
			<rect id="SVGID_3_" x="26" y="18.685" width="48" height="62.629"/>
		</defs>
		<clipPath id="SVGID_4_">
			<use xlink:href="#SVGID_3_"  overflow="visible"/>
		</clipPath>
		<polygon clip-path="url(#SVGID_4_)" fill="#1B1C1C" points="35.943,71.994 26,59.311 26,53.887 49.164,42.058 62.143,58.614 
			55.079,62.223 54.332,60.762 59.624,58.06 48.707,44.133 27.64,54.891 27.64,58.744 36.401,69.92 48.153,63.917 48.9,65.378 		"/>
	</g>
	<polygon fill="#FFFFFF" points="26.82,34.94 26.82,39.802 26.82,44.665 26.82,49.527 26.82,54.389 32.348,51.565 37.878,48.743 
		43.405,45.919 48.935,43.096 47.336,41.057 45.738,39.017 44.14,36.979 42.542,34.94 38.611,34.94 34.68,34.94 	"/>
	<g>
		<defs>
			<rect id="SVGID_5_" x="26" y="18.685" width="48" height="62.629"/>
		</defs>
		<clipPath id="SVGID_6_">
			<use xlink:href="#SVGID_5_"  overflow="visible"/>
		</clipPath>
		<path clip-path="url(#SVGID_6_)" fill="#1B1C1C" d="M26,55.729V34.12h16.941l7.254,9.253L26,55.729z M27.64,35.76v17.289
			l20.035-10.23l-5.532-7.059H27.64z"/>
	</g>
	<polyline fill="#FFFFFF" points="48.527,64.647 42.35,67.803 36.172,70.957 38.042,73.342 39.91,75.727 41.78,78.111 
		43.649,80.496 51.031,80.496 58.416,80.496 65.798,80.496 73.18,80.496 73.18,78.877 73.18,77.26 73.18,75.642 73.18,74.023 
		70.106,70.103 67.031,66.182 63.958,62.26 60.883,58.338 54.706,61.492 	"/>
	<g>
		<defs>
			<rect id="SVGID_7_" x="26" y="18.685" width="48" height="62.629"/>
		</defs>
		<clipPath id="SVGID_8_">
			<use xlink:href="#SVGID_7_"  overflow="visible"/>
		</clipPath>
		<polygon clip-path="url(#SVGID_8_)" fill="#1B1C1C" points="74,81.314 43.25,81.314 34.912,70.68 48.153,63.917 48.9,65.378 
			37.432,71.234 44.048,79.676 72.359,79.676 72.359,74.307 60.654,59.375 55.079,62.223 54.332,60.762 61.111,57.3 74,73.741 		"/>
	</g>
	<polygon fill="#FFFFFF" points="48.935,43.096 51.923,46.906 54.909,50.717 57.896,54.527 60.884,58.338 63.958,56.768 
		67.031,55.197 70.106,53.628 73.18,52.059 73.18,47.778 73.18,43.499 73.18,39.219 73.18,34.94 65.521,34.94 57.861,34.94 
		50.201,34.94 42.542,34.94 44.14,36.979 45.738,39.017 47.336,41.057 	"/>
	<g>
		<defs>
			<rect id="SVGID_9_" x="26" y="18.685" width="48" height="62.629"/>
		</defs>
		<clipPath id="SVGID_10_">
			<use xlink:href="#SVGID_9_"  overflow="visible"/>
		</clipPath>
		<path clip-path="url(#SVGID_10_)" fill="#1B1C1C" d="M60.655,59.375L40.857,34.12H74v18.441L60.655,59.375z M44.227,35.76
			L61.112,57.3l11.247-5.743V35.76H44.227z"/>
	</g>
	<polygon fill="#FFFFFF" points="73.18,74.023 73.18,68.533 73.18,63.041 73.18,57.549 73.18,52.059 70.106,53.628 67.031,55.197 
		63.958,56.768 60.883,58.338 63.958,62.26 67.031,66.182 70.106,70.103 	"/>
	<g>
		<defs>
			<rect id="SVGID_11_" x="26" y="18.685" width="48" height="62.629"/>
		</defs>
		<clipPath id="SVGID_12_">
			<use xlink:href="#SVGID_11_"  overflow="visible"/>
		</clipPath>
		<path clip-path="url(#SVGID_12_)" fill="#1B1C1C" d="M74,76.4L59.624,58.06L74,50.718V76.4z M62.143,58.615l10.217,13.033V53.397
			L62.143,58.615z"/>
		<path clip-path="url(#SVGID_12_)" fill="#F16469" d="M39.182,24.02c-6.019,6.02-6.019,15.781,0,21.8
			c0.241,0.241,10.9,10.9,10.9,10.9s10.658-10.659,10.9-10.9c6.019-6.02,6.019-15.78,0-21.8C54.963,18,45.202,18,39.182,24.02"/>
		<path clip-path="url(#SVGID_12_)" fill="#1B1C1C" d="M50.082,57.879L38.602,46.4c-6.329-6.33-6.329-16.63,0-22.96
			c3.066-3.066,7.144-4.755,11.48-4.755c4.336,0,8.414,1.689,11.48,4.755c6.328,6.331,6.328,16.63,0,22.96
			c-0.242,0.241-10.9,10.899-10.9,10.899L50.082,57.879z M50.082,20.325c-3.898,0-7.563,1.518-10.32,4.274
			c-5.689,5.691-5.689,14.951,0,20.641l10.32,10.319c2.227-2.227,10.113-10.113,10.32-10.32c5.689-5.69,5.689-14.95,0-20.641
			C57.646,21.843,53.98,20.325,50.082,20.325z"/>
		<path clip-path="url(#SVGID_12_)" fill="#FFFFFF" d="M55.262,34.538c0,2.86-2.318,5.179-5.18,5.179
			c-2.861,0-5.18-2.319-5.18-5.179c0-2.861,2.319-5.181,5.18-5.181C52.943,29.357,55.262,31.677,55.262,34.538"/>
		<path clip-path="url(#SVGID_12_)" fill="#1B1C1C" d="M50.082,40.538c-3.309,0-6-2.691-6-6c0-3.309,2.692-6.001,6-6.001
			s6,2.692,6,6.001C56.082,37.847,53.391,40.538,50.082,40.538z M50.082,30.177c-2.404,0-4.36,1.957-4.36,4.361
			c0,2.404,1.957,4.359,4.36,4.359c2.404,0,4.359-1.956,4.359-4.359C54.441,32.133,52.486,30.177,50.082,30.177z"/>
		<path clip-path="url(#SVGID_12_)" fill="#00BCCA" d="M63.701,72.564c0,2.014-1.632,3.645-3.645,3.645
			c-2.014,0-3.645-1.631-3.645-3.645s1.631-3.645,3.645-3.645C62.069,68.92,63.701,70.551,63.701,72.564"/>
		<path clip-path="url(#SVGID_12_)" fill="#1B1C1C" d="M60.057,77.029c-2.463,0-4.465-2.003-4.465-4.465
			c0-2.463,2.002-4.465,4.465-4.465c2.462,0,4.465,2.002,4.465,4.465C64.521,75.026,62.519,77.029,60.057,77.029z M60.057,69.739
			c-1.559,0-2.825,1.267-2.825,2.825c0,1.557,1.267,2.824,2.825,2.824c1.557,0,2.825-1.268,2.825-2.824
			C62.882,71.006,61.613,69.739,60.057,69.739z"/>
	</g>
</g>
</svg>
