<?xml version="1.0" encoding="utf-8"?>
<!-- Generator: Adobe Illustrator 16.0.0, SVG Export Plug-In . SVG Version: 6.00 Build 0)  -->
<!DOCTYPE svg PUBLIC "-//W3C//DTD SVG 1.1//EN" "http://www.w3.org/Graphics/SVG/1.1/DTD/svg11.dtd">
<svg version="1.1" id="Layer_1" xmlns="http://www.w3.org/2000/svg" xmlns:xlink="http://www.w3.org/1999/xlink" x="0px" y="0px"
	 width="100px" height="100px" viewBox="0 0 100 100" enable-background="new 0 0 100 100" xml:space="preserve">
<g>
	<rect x="18.467" y="27.732" fill="#7BCFDD" width="63.066" height="36.471"/>
	<g>
		<defs>
			<rect id="SVGID_1_" x="17.5" y="25.649" width="65" height="48.701"/>
		</defs>
		<clipPath id="SVGID_2_">
			<use xlink:href="#SVGID_1_"  overflow="visible"/>
		</clipPath>
		<path clip-path="url(#SVGID_2_)" fill="#1B1C1C" d="M81.533,65.171H18.467c-0.534,0-0.967-0.434-0.967-0.968V27.732
			c0-0.534,0.433-0.967,0.967-0.967h63.066c0.533,0,0.967,0.433,0.967,0.967v36.471C82.5,64.737,82.066,65.171,81.533,65.171z
			 M19.434,63.236h61.132V28.699H19.434V63.236z"/>
		<path clip-path="url(#SVGID_2_)" fill="#FFFFFF" d="M22.839,26.616h22c2.846,0,5.155,2.014,5.155,4.501v34.2
			c0-2.484-2.31-4.499-5.155-4.499h-22c-0.117,0-0.23,0.009-0.345,0.016V26.632C22.609,26.625,22.722,26.616,22.839,26.616"/>
		<path clip-path="url(#SVGID_2_)" fill="#1B1C1C" d="M49.994,66.285c-0.534,0-0.967-0.434-0.967-0.968
			c0-1.946-1.879-3.532-4.188-3.532h-22c-0.081,0-0.158,0.006-0.237,0.011c-0.266,0.013-0.552-0.076-0.746-0.259
			c-0.195-0.183-0.329-0.436-0.329-0.703V26.632c0-0.512,0.398-0.935,0.909-0.965c0.169-0.01,0.284-0.017,0.403-0.017h22
			c3.376,0,6.122,2.453,6.122,5.468v34.2C50.961,65.852,50.528,66.285,49.994,66.285z M23.461,59.852h21.377
			c1.618,0,3.093,0.563,4.188,1.482V31.117c0-1.948-1.879-3.534-4.188-3.534H23.461V59.852z"/>
		<path clip-path="url(#SVGID_2_)" fill="#FFFFFF" d="M77.162,26.616h-22c-2.849,0-5.157,2.014-5.157,4.501v34.2
			c0-2.484,2.309-4.499,5.157-4.499h22c0.115,0,0.229,0.009,0.344,0.016V26.632C77.391,26.625,77.277,26.616,77.162,26.616"/>
		<path clip-path="url(#SVGID_2_)" fill="#1B1C1C" d="M50.005,66.285c-0.534,0-0.968-0.434-0.968-0.968v-34.2
			c0-3.015,2.748-5.468,6.125-5.468h22c0.117,0,0.232,0.007,0.349,0.014c0.51,0.032,0.962,0.458,0.962,0.969v34.202
			c0,0.266-0.11,0.521-0.304,0.703c-0.195,0.184-0.456,0.277-0.722,0.262c-0.127-0.008-0.205-0.014-0.285-0.014h-22
			c-2.311,0-4.19,1.586-4.19,3.532C50.972,65.852,50.538,66.285,50.005,66.285z M55.162,27.583c-2.311,0-4.19,1.585-4.19,3.534
			v30.218c1.097-0.919,2.571-1.483,4.19-1.483h21.376V27.583H55.162z"/>
		<path clip-path="url(#SVGID_2_)" fill="#1B1C1C" d="M44.103,37.778H32.729c-0.534,0-0.967-0.433-0.967-0.967
			s0.433-0.967,0.967-0.967h11.373c0.534,0,0.967,0.433,0.967,0.967S44.637,37.778,44.103,37.778z"/>
		<path clip-path="url(#SVGID_2_)" fill="#1B1C1C" d="M44.103,43.287H32.729c-0.534,0-0.967-0.433-0.967-0.967
			s0.433-0.967,0.967-0.967h11.373c0.534,0,0.967,0.433,0.967,0.967S44.637,43.287,44.103,43.287z"/>
		<path clip-path="url(#SVGID_2_)" fill="#1B1C1C" d="M44.103,48.795H32.729c-0.534,0-0.967-0.433-0.967-0.967
			s0.433-0.967,0.967-0.967h11.373c0.534,0,0.967,0.433,0.967,0.967S44.637,48.795,44.103,48.795z"/>
		<path clip-path="url(#SVGID_2_)" fill="#1B1C1C" d="M29.007,37.778h-0.447c-0.534,0-0.967-0.433-0.967-0.967
			s0.433-0.967,0.967-0.967h0.447c0.534,0,0.967,0.433,0.967,0.967S29.542,37.778,29.007,37.778z"/>
		<path clip-path="url(#SVGID_2_)" fill="#1B1C1C" d="M29.007,43.287h-0.447c-0.534,0-0.967-0.433-0.967-0.967
			s0.433-0.967,0.967-0.967h0.447c0.534,0,0.967,0.433,0.967,0.967S29.542,43.287,29.007,43.287z"/>
		<path clip-path="url(#SVGID_2_)" fill="#1B1C1C" d="M29.007,48.795h-0.447c-0.534,0-0.967-0.433-0.967-0.967
			s0.433-0.967,0.967-0.967h0.447c0.534,0,0.967,0.433,0.967,0.967S29.542,48.795,29.007,48.795z"/>
		<path clip-path="url(#SVGID_2_)" fill="#1B1C1C" d="M71.439,37.778H60.066c-0.534,0-0.967-0.433-0.967-0.967
			s0.433-0.967,0.967-0.967h11.373c0.533,0,0.967,0.433,0.967,0.967S71.973,37.778,71.439,37.778z"/>
		<path clip-path="url(#SVGID_2_)" fill="#1B1C1C" d="M71.439,43.287H60.066c-0.534,0-0.967-0.433-0.967-0.967
			s0.433-0.967,0.967-0.967h11.373c0.533,0,0.967,0.433,0.967,0.967S71.973,43.287,71.439,43.287z"/>
		<path clip-path="url(#SVGID_2_)" fill="#1B1C1C" d="M71.439,48.795H60.066c-0.534,0-0.967-0.433-0.967-0.967
			s0.433-0.967,0.967-0.967h11.373c0.533,0,0.967,0.433,0.967,0.967S71.973,48.795,71.439,48.795z"/>
		<path clip-path="url(#SVGID_2_)" fill="#1B1C1C" d="M56.345,37.778h-0.447c-0.534,0-0.967-0.433-0.967-0.967
			s0.433-0.967,0.967-0.967h0.447c0.533,0,0.967,0.433,0.967,0.967S56.878,37.778,56.345,37.778z"/>
		<path clip-path="url(#SVGID_2_)" fill="#1B1C1C" d="M56.345,43.287h-0.447c-0.534,0-0.967-0.433-0.967-0.967
			s0.433-0.967,0.967-0.967h0.447c0.533,0,0.967,0.433,0.967,0.967S56.878,43.287,56.345,43.287z"/>
		<path clip-path="url(#SVGID_2_)" fill="#1B1C1C" d="M56.345,48.795h-0.447c-0.534,0-0.967-0.433-0.967-0.967
			s0.433-0.967,0.967-0.967h0.447c0.533,0,0.967,0.433,0.967,0.967S56.878,48.795,56.345,48.795z"/>
		<polygon clip-path="url(#SVGID_2_)" fill="#FFFFFF" points="36.31,54.098 55.509,54.098 55.509,67.597 50.318,67.597 
			50.318,73.384 45.462,67.597 36.31,67.597 		"/>
		<path clip-path="url(#SVGID_2_)" fill="#1B1C1C" d="M50.318,74.351c-0.28,0-0.554-0.122-0.741-0.346l-4.566-5.441H36.31
			c-0.534,0-0.967-0.434-0.967-0.967V54.098c0-0.533,0.433-0.967,0.967-0.967h19.199c0.534,0,0.967,0.434,0.967,0.967v13.499
			c0,0.533-0.433,0.967-0.967,0.967h-4.224v4.82c0,0.407-0.255,0.771-0.637,0.908C50.541,74.332,50.429,74.351,50.318,74.351z
			 M37.277,66.629h8.185c0.285,0,0.557,0.127,0.74,0.346l3.148,3.753v-3.131c0-0.534,0.434-0.968,0.968-0.968h4.224V55.064H37.277
			V66.629z"/>
		<line clip-path="url(#SVGID_2_)" fill="#FFFFFF" x1="51.178" y1="59.184" x2="40.642" y2="59.184"/>
		<rect x="40.642" y="58.217" clip-path="url(#SVGID_2_)" fill="#1B1C1C" width="10.536" height="1.934"/>
		<line clip-path="url(#SVGID_2_)" fill="#FFFFFF" x1="51.178" y1="62.921" x2="40.642" y2="62.921"/>
		<rect x="40.642" y="61.954" clip-path="url(#SVGID_2_)" fill="#1B1C1C" width="10.536" height="1.934"/>
	</g>
</g>
</svg>
