<?xml version="1.0" encoding="utf-8"?>
<!-- Generator: Adobe Illustrator 16.0.0, SVG Export Plug-In . SVG Version: 6.00 Build 0)  -->
<!DOCTYPE svg PUBLIC "-//W3C//DTD SVG 1.1//EN" "http://www.w3.org/Graphics/SVG/1.1/DTD/svg11.dtd">
<svg version="1.1" id="Layer_1" xmlns="http://www.w3.org/2000/svg" xmlns:xlink="http://www.w3.org/1999/xlink" x="0px" y="0px"
	 width="50px" height="50px" viewBox="0 0 50 50" enable-background="new 0 0 50 50" xml:space="preserve">
<g>
	<path fill="#544841" d="M40.261,2.689c0,0.81-0.656,1.466-1.466,1.466h-27.59c-0.81,0-1.466-0.656-1.466-1.466V1.465
		C9.739,0.656,10.396,0,11.205,0h27.59c0.81,0,1.466,0.656,1.466,1.465V2.689z"/>
	<path fill="#544841" d="M40.261,48.535c0,0.809-0.656,1.465-1.466,1.465h-27.59c-0.81,0-1.466-0.656-1.466-1.465v-1.225
		c0-0.81,0.656-1.466,1.466-1.466h27.59c0.81,0,1.466,0.656,1.466,1.466V48.535z"/>
	<path fill="#716A64" d="M36.538,13.81V4.719H13.462v9.091c0,5.084,3.227,9.396,7.718,10.992c-4.492,1.594-7.718,5.908-7.718,10.991
		v9.605h23.076v-9.605c0-5.083-3.227-9.396-7.719-10.991C33.312,23.206,36.538,18.894,36.538,13.81z M30.033,20.108
		c-1.924,1.494-4.217,1.876-4.275,4.622c-0.011,0.034-0.011,0.172,0,0.206c0.055,2.49,1.971,2.839,3.752,4.158
		c2.022,1.775,4.079,3.793,4.079,6.48v7.288H16.411v-7.288c0-2.145,1.31-3.86,2.865-5.369c0.09-0.076,0.197-0.176,0.329-0.312
		c0.199-0.187,0.399-0.37,0.602-0.55c1.888-1.555,4.076-1.77,4.076-4.511c0-3-2.597-3.246-4.599-4.987
		c-1.728-1.602-3.273-3.425-3.273-5.753V7.254h17.178v6.839C33.589,16.548,31.872,18.443,30.033,20.108z"/>
	<path fill="#CEBC65" d="M31.886,38.883c0-3.874-3.141-7.014-7.016-7.014c-3.873,0-7.014,3.14-7.014,7.014v2.688h14.03V38.883z"/>
	<path fill="#CEBC65" d="M18.837,17.475c1.222,2.063,3.463,3.45,6.033,3.45c2.571,0,4.813-1.388,6.034-3.45H18.837z"/>
</g>
</svg>
